<svg width="70" height="70" viewBox="0 0 70 70" fill="none" xmlns="http://www.w3.org/2000/svg">
<g clip-path="url(#clip0_25_321)">
<path d="M69.986 26.7605C69.9788 26.6801 69.9628 26.6007 69.9382 26.5237C69.9222 26.4549 69.8999 26.3878 69.8717 26.323C69.8391 26.2597 69.8 26.1998 69.7551 26.1444C69.7101 26.0787 69.658 26.0181 69.5999 25.9635C69.5812 25.9473 69.5731 25.925 69.5533 25.9087L58.3329 17.1945V8.16294C58.3329 6.22992 56.7658 4.66277 54.8327 4.66277H42.1889L37.1263 0.732039C35.8757 -0.243362 34.1219 -0.243362 32.8713 0.732039L27.8077 4.66277H15.1638C13.2308 4.66277 11.6636 6.22978 11.6636 8.16294V17.1946L0.446805 25.9088C0.42698 25.9253 0.418776 25.9474 0.400181 25.9637C0.342073 26.0181 0.289981 26.0788 0.244998 26.1446C0.200152 26.1999 0.161048 26.2597 0.128371 26.3231C0.100069 26.3878 0.077919 26.4551 0.0619221 26.5238C0.0375849 26.5997 0.021588 26.6779 0.0140681 26.7572C0.0140681 26.7817 0.00012207 26.8028 0.00012207 26.8272V66.4992C0.00176278 67.2413 0.241853 67.9632 0.684981 68.5584C0.691954 68.5689 0.693185 68.5818 0.701251 68.5911C0.709455 68.6003 0.726956 68.6109 0.738578 68.6237C1.39404 69.4862 2.41347 69.9947 3.49675 69.9993H66.4999C67.5875 69.996 68.6111 69.4851 69.2674 68.618C69.2767 68.6064 69.2908 68.6028 69.2989 68.5912C69.3071 68.5796 69.3082 68.569 69.3153 68.5585C69.7584 67.9632 69.9985 67.2413 70.0001 66.4993V26.8305C70 26.806 69.9873 26.785 69.986 26.7605ZM34.2982 2.57305C34.7056 2.24928 35.2826 2.24928 35.69 2.57305L38.3816 4.66263H31.6147L34.2982 2.57305ZM3.79071 67.666L34.2983 43.9685C34.706 43.6453 35.2826 43.6453 35.6902 43.9685L66.2058 67.666H3.79071ZM67.6666 65.847L37.1263 42.1274C35.8754 41.1528 34.1222 41.1528 32.8713 42.1274L2.32993 65.847V28.6074L21.4491 43.454C21.9585 43.849 22.6917 43.7563 23.0867 43.2469C23.4817 42.7375 23.389 42.0043 22.8795 41.6093L3.45586 26.5271L11.6638 20.1486V29.1639C11.6638 29.8083 12.1862 30.3306 12.8305 30.3306C13.4748 30.3306 13.9971 29.8081 13.9971 29.1639V8.16281C13.9971 7.51842 14.5194 6.99613 15.1638 6.99613H54.8325C55.4768 6.99613 55.9991 7.51842 55.9991 8.16281V29.1639C55.9991 29.8083 56.5214 30.3306 57.1658 30.3306C57.8102 30.3306 58.3325 29.8081 58.3325 29.1639V20.1486L66.5404 26.5271L47.083 41.6363C46.7483 41.8899 46.5756 42.3039 46.6311 42.7202C46.6866 43.1366 46.9616 43.491 47.3511 43.6481C47.7406 43.8051 48.1846 43.7409 48.5134 43.4796L67.6664 28.6074V65.847H67.6666Z" fill="#CC8916"/>
<path d="M48.9989 27.9972V23.3303C48.9989 15.5979 42.7306 9.32959 34.9982 9.32959C27.2658 9.32959 20.9975 15.5979 20.9975 23.3303C20.9975 31.0627 27.2658 37.331 34.9982 37.331C35.6426 37.331 36.1649 36.8087 36.1649 36.1643C36.1649 35.5199 35.6426 34.9977 34.9982 34.9977C28.5546 34.9977 23.331 29.774 23.331 23.3304C23.331 16.8868 28.5546 11.6632 34.9982 11.6632C41.4418 11.6632 46.6654 16.8868 46.6654 23.3304V27.9973C46.6654 29.2861 45.6207 30.3308 44.3319 30.3308C43.0431 30.3308 41.9984 29.2861 41.9984 27.9973V23.3304C41.9984 22.686 41.4761 22.1638 40.8317 22.1638C40.1874 22.1638 39.6651 22.686 39.6651 23.3304C39.6651 25.9079 37.5756 27.9973 34.9982 27.9973C32.4208 27.9973 30.3314 25.9079 30.3314 23.3304C30.3314 20.753 32.4208 18.6636 34.9982 18.6636C35.6426 18.6636 36.1649 18.1413 36.1649 17.4969C36.1649 16.8525 35.6426 16.3302 34.9982 16.3302C31.8651 16.3232 29.1089 18.3989 28.2502 21.412C27.3916 24.4252 28.6395 27.6419 31.3057 29.2876C33.9718 30.9332 37.4066 30.607 39.7152 28.4887C39.9693 30.956 42.1138 32.7906 44.5907 32.6595C47.0678 32.5282 49.0067 30.4776 48.9989 27.9972Z" fill="#CC8916"/>
</g>
<defs>
<clipPath id="clip0_25_321">
<rect width="70" height="70" fill="white"/>
</clipPath>
</defs>
</svg>
