<svg width="142" height="50" viewBox="0 0 142 50" fill="none" xmlns="http://www.w3.org/2000/svg">
<g opacity="0.95">
<path d="M17.2984 1.10226L25.5926 23.6035L5.60596 28.5648L15.3393 1.7981C15.9772 1.54067 16.6305 1.30824 17.2984 1.10226Z" fill="#5E7478"/>
<path d="M18.0707 0.877693L26.376 23.4091L48.213 17.9886C44.6917 5.27654 31.6874 -2.4335 18.7735 0.69651C18.5376 0.753693 18.3033 0.814107 18.0707 0.877693Z" fill="#5E7478"/>
<path d="M48.4147 18.7652L46.8977 19.1417L48.4168 18.7735C48.4161 18.7707 48.4154 18.7679 48.4147 18.7652Z" fill="#5E7478"/>
<path d="M0.574974 29.8136C-1.93921 18.3672 3.99985 6.95183 14.3274 2.23319L4.66753 28.7977L0.574974 29.8136Z" fill="#5E7478"/>
<path d="M0.760742 30.5946C1.16082 32.1729 1.70596 33.6769 2.37843 35.0958L4.33815 29.7066L0.760742 30.5946Z" fill="#FF6D00"/>
<path d="M2.87348 36.0821C8.00675 45.7568 19.2074 51.1154 30.3408 48.4169C31.7038 48.0866 33.0124 47.6484 34.2597 47.1137L25.8729 24.3611L5.27657 29.4737L2.87348 36.0821Z" fill="#FF6D00"/>
<path d="M34.9936 46.7847C45.3509 41.9353 51.216 30.3183 48.4179 18.7737L46.9052 19.1403L26.6563 24.1666L34.9936 46.7847Z" fill="#FF6D00"/>
</g>
<path d="M59.8151 24.2837H57.3752L63.5712 13.9816H65.979L72.2874 24.2837H69.5104L68.1942 22.1021H61.0832L59.8151 24.2837ZM62.1587 20.2235H67.1348L64.6467 16.1026L62.1587 20.2235Z" fill="#fff"/>
<path d="M75.5419 19.9356C74.14 19.9356 73.4391 19.2639 73.4391 17.9206V15.9359C73.4391 15.5319 73.5087 15.2037 73.6478 14.9512C73.7869 14.6987 73.9742 14.5017 74.2096 14.3603C74.4557 14.2088 74.7447 14.1078 75.0764 14.0573C75.4188 14.0068 75.7827 13.9816 76.1679 13.9816H82.5726C82.9792 13.9816 83.3484 14.0119 83.6802 14.0725C84.0119 14.123 84.2901 14.224 84.5149 14.3755C84.7503 14.527 84.9322 14.7441 85.0606 15.0269C85.189 15.2996 85.2533 15.6582 85.2533 16.1026C85.2533 16.1531 85.2479 16.2036 85.2372 16.2541C85.2372 16.3046 85.2372 16.345 85.2372 16.3753V16.4814L83.1344 16.845V15.739H75.7185V18.0873H79.4184H83.1184C83.8567 18.0873 84.4132 18.2287 84.7878 18.5115C85.173 18.7943 85.3656 19.3043 85.3656 20.0416V22.2839C85.3656 22.7182 85.2907 23.0666 85.1409 23.3292C85.0018 23.5918 84.7985 23.7939 84.5309 23.9353C84.2741 24.0767 83.9584 24.1726 83.5839 24.2231C83.22 24.2635 82.8134 24.2837 82.3639 24.2837H75.1406C74.3915 24.2837 73.8458 24.0969 73.5033 23.7231C73.1716 23.3494 73.0057 22.804 73.0057 22.0869C73.0057 22.0364 73.0057 21.9758 73.0057 21.9051C73.0164 21.8344 73.0271 21.7688 73.0378 21.7082C73.0485 21.6375 73.0592 21.5668 73.0699 21.4961L75.0924 21.1779V22.4657H83.0863V19.9356H75.5419Z" fill="#fff"/>
<path d="M93.9354 24.2837H91.4153V15.739H86.3268V13.9816H98.9275V15.739H93.9354V24.2837Z" fill="#fff"/>
<path d="M99.7647 24.2837H97.3249L103.521 13.9816H105.929L112.237 24.2837H109.46L108.144 22.1021H101.033L99.7647 24.2837ZM102.108 20.2235H107.084L104.596 16.1026L102.108 20.2235Z" fill="#fff"/>
<path d="M113.196 13.9816H114.914L123.871 21.0264V13.9816H126.118V24.2837H124.4L115.443 17.2086V24.2837H113.196V13.9816Z" fill="#fff"/>
<path d="M129.528 24.2837H127.088L133.284 13.9816H135.692L142 24.2837H139.223L137.907 22.1021H130.796L129.528 24.2837ZM131.871 20.2235H136.847L134.359 16.1026L131.871 20.2235Z" fill="#fff"/>
<path d="M62.4555 34.2285C61.8666 34.4667 61.2497 34.5857 60.6045 34.5857C59.5656 34.5857 58.7667 34.2835 58.2079 33.6789C57.6528 33.0708 57.3752 32.1731 57.3752 30.9861C57.3752 30.4109 57.4521 29.8906 57.6059 29.4253C57.7597 28.96 57.9791 28.5662 58.2641 28.2437C58.5492 27.9177 58.8943 27.6667 59.2993 27.4908C59.7044 27.315 60.1582 27.2271 60.6608 27.2271C61.0021 27.2271 61.319 27.2564 61.6116 27.315C61.9041 27.3699 62.1854 27.456 62.4555 27.5733V28.535C62.1892 28.3921 61.9135 28.284 61.6285 28.2108C61.3434 28.1338 61.0321 28.0954 60.6946 28.0954C60.3495 28.0954 60.0363 28.1595 59.755 28.2877C59.4775 28.4123 59.2412 28.5955 59.0462 28.8373C58.8511 29.0754 58.7011 29.3685 58.5961 29.7166C58.4911 30.061 58.4385 30.4548 58.4385 30.8981C58.4385 31.8287 58.6317 32.5304 59.018 33.003C59.4043 33.4756 59.9707 33.7119 60.7171 33.7119C61.0321 33.7119 61.334 33.6771 61.6228 33.6075C61.9116 33.5342 62.1892 33.4335 62.4555 33.3052V34.2285Z" fill="#fff" fill-opacity="0.95"/>
<path d="M74.175 34.4978H73.0442L71.9471 32.2006C71.8646 32.0248 71.7802 31.88 71.694 31.7665C71.6077 31.6492 71.5139 31.5576 71.4127 31.4917C71.3152 31.4221 71.2064 31.3726 71.0864 31.3433C70.9701 31.314 70.8388 31.2993 70.6926 31.2993H70.22V34.4978H69.2186V27.315H71.1876C71.6152 27.315 71.9828 27.3608 72.2903 27.4524C72.5979 27.544 72.8492 27.6722 73.0442 27.8371C73.243 28.0019 73.3874 28.2016 73.4774 28.4361C73.5712 28.6669 73.6181 28.9234 73.6181 29.2055C73.6181 29.429 73.5843 29.6415 73.5168 29.843C73.4493 30.0408 73.348 30.2222 73.213 30.387C73.0817 30.5483 72.9167 30.6893 72.7179 30.8102C72.5229 30.9275 72.2978 31.0154 72.0428 31.074C72.2491 31.1436 72.4235 31.2664 72.566 31.4422C72.7123 31.6144 72.8604 31.8452 73.0105 32.1347L74.175 34.4978ZM72.5716 29.2879C72.5716 28.9032 72.4479 28.6156 72.2003 28.4251C71.9565 28.2346 71.6115 28.1393 71.1651 28.1393H70.22V30.5134H71.0301C71.2664 30.5134 71.4783 30.4878 71.6658 30.4365C71.8571 30.3816 72.0184 30.3028 72.1497 30.2002C72.2847 30.0939 72.3878 29.9657 72.4591 29.8155C72.5341 29.6616 72.5716 29.4858 72.5716 29.2879Z" fill="#fff" fill-opacity="0.95"/>
<path d="M84.9775 34.4978H80.7974V27.315H84.9775V28.1393H81.7989V30.3651H84.8538V31.1894H81.7989V33.6625H84.9775V34.4978Z" fill="#fff" fill-opacity="0.95"/>
<path d="M97.3497 34.4978H96.2583L95.7463 32.9315H92.6858L92.1682 34.4978H91.1274L93.569 27.315H94.9418L97.3497 34.4978ZM95.4594 32.0577L94.216 28.2163L92.9727 32.0577H95.4594Z" fill="#fff" fill-opacity="0.95"/>
<path d="M108.327 28.1503H106.149V34.4978H105.137V28.1503H102.959V27.315H108.327V28.1503Z" fill="#fff" fill-opacity="0.95"/>
<path d="M116.541 28.1393H114.848V27.315H119.247V28.1393H117.554V33.6625H119.247V34.4978H114.848V33.6625H116.541V28.1393Z" fill="#fff" fill-opacity="0.95"/>
<path d="M131.597 27.315L129.099 34.4978H127.749L125.307 27.315H126.438L128.024 32.1566L128.475 33.5745L128.936 32.1566L130.528 27.315H131.597Z" fill="#fff" fill-opacity="0.95"/>
<path d="M142 34.4978H137.82V27.315H142V28.1393H138.821V30.3651H141.876V31.1894H138.821V33.6625H142V34.4978Z" fill="#fff" fill-opacity="0.95"/>
</svg>
