<svg width="20" height="20" viewBox="0 0 20 20" fill="none" xmlns="http://www.w3.org/2000/svg">
<path d="M10.2381 16.3341C8.34282 18.0151 5.44611 17.8386 3.76786 15.9465C2.08962 14.0544 2.26022 11.1573 4.15547 9.47628L10.7016 3.67016C12.0794 2.44811 14.1851 2.57426 15.4072 3.95206C16.6292 5.32986 16.5031 7.43562 15.1253 8.65767L9.82606 13.3579C8.96572 14.121 7.64814 14.042 6.88506 13.1817C6.12197 12.3213 6.2009 11.0038 7.06124 10.2407L11.737 6.09344L12.5665 7.0286L7.89069 11.1758C7.5478 11.48 7.51332 12.0062 7.82021 12.3522C8.12711 12.6982 8.65372 12.7268 8.99662 12.4227L14.2958 7.72251C15.1562 6.95942 15.2351 5.64185 14.472 4.78151C13.7089 3.92116 12.3914 3.84223 11.531 4.60532L4.98492 10.4114C3.60712 11.6335 3.48097 13.7392 4.70302 15.117C5.92507 16.4948 8.03083 16.621 9.40863 15.3989L15.3313 10.1458L16.1607 11.081L10.2381 16.3341Z" fill="#76777E"/>
</svg>
