<svg width="20" height="20" viewBox="0 0 20 20" fill="none" xmlns="http://www.w3.org/2000/svg">
<path d="M9.99935 5.83333V2.5H1.66602V17.5H18.3327V5.83333H9.99935ZM4.99935 15.8333H3.33268V14.1667H4.99935V15.8333ZM4.99935 12.5H3.33268V10.8333H4.99935V12.5ZM4.99935 9.16667H3.33268V7.5H4.99935V9.16667ZM4.99935 5.83333H3.33268V4.16667H4.99935V5.83333ZM8.33268 15.8333H6.66602V14.1667H8.33268V15.8333ZM8.33268 12.5H6.66602V10.8333H8.33268V12.5ZM8.33268 9.16667H6.66602V7.5H8.33268V9.16667ZM8.33268 5.83333H6.66602V4.16667H8.33268V5.83333ZM16.666 15.8333H9.99935V14.1667H11.666V12.5H9.99935V10.8333H11.666V9.16667H9.99935V7.5H16.666V15.8333ZM14.9993 9.16667H13.3327V10.8333H14.9993V9.16667ZM14.9993 12.5H13.3327V14.1667H14.9993V12.5Z" fill="#0036A7"/>
</svg>
