<svg width="24" height="24" viewBox="0 0 24 24" fill="none" xmlns="http://www.w3.org/2000/svg">
<path d="M16.6406 2C15.7705 2.00105 14.9099 2.18731 14.1118 2.54729C13.3136 2.90726 12.5949 3.43332 12 4.09302C11.1282 3.1262 9.99672 2.45403 8.75257 2.16377C7.50843 1.87351 6.20903 1.97857 5.02308 2.46532C3.83712 2.95206 2.81938 3.798 2.10197 4.89332C1.38457 5.98864 1.00063 7.28275 1 8.60766C1 15.1867 11.2128 21.6444 11.6562 21.898C11.7632 21.9647 11.8856 22 12.0103 22C12.1351 22 12.2574 21.9647 12.3644 21.898C12.7872 21.6444 23 15.1867 23 8.60766C22.9982 6.85578 22.3276 5.17619 21.1354 3.93743C19.9432 2.69866 18.3267 2.00189 16.6406 2ZM12 20.4443C10.2228 19.2656 2.375 13.7581 2.375 8.60766C2.37588 7.50755 2.71389 6.43632 3.34003 5.5492C3.96617 4.66209 4.84791 4.00519 5.85747 3.6737C6.86703 3.34222 7.95196 3.35337 8.95501 3.70554C9.95806 4.05772 10.8271 4.73262 11.4363 5.63243C11.4997 5.72602 11.5839 5.8024 11.6817 5.85512C11.7795 5.90784 11.8881 5.93536 11.9983 5.93536C12.1085 5.93536 12.217 5.90784 12.3149 5.85512C12.4127 5.8024 12.4969 5.72602 12.5603 5.63243C13.1689 4.73107 14.0382 4.05471 15.0419 3.70155C16.0456 3.34838 17.1315 3.33679 18.142 3.66845C19.1525 4.00011 20.0349 4.65777 20.6613 5.54594C21.2876 6.43412 21.6252 7.50659 21.625 8.60766C21.625 13.7545 13.7772 19.2621 12 20.4443Z" fill="#333333" stroke="#333333" stroke-width="0.7"/>
</svg>
