<svg width="165" height="49" viewBox="0 0 165 49" fill="none" xmlns="http://www.w3.org/2000/svg">
<path fill-rule="evenodd" clip-rule="evenodd" d="M14.7067 39.5245L15.7289 35.6543L16.7513 31.7837H21.2102H25.6692L29.1054 35.6543L32.5422 39.5245L31.52 43.3948L30.4976 47.265H26.0382H21.5796L18.1429 43.3948L14.7067 39.5245ZM50.3776 39.5245L46.9411 35.6543L43.5047 31.7837H39.0458H34.5867L33.5643 35.6543L32.5422 39.5245L35.9788 43.3948L39.4148 47.265H43.874H48.3328L49.3557 43.3948L50.3776 39.5245ZM18.7818 24.0433L17.7597 27.9136L16.7375 31.7837H12.2787H7.81987L4.38306 27.9136L0.946289 24.0433L1.96903 20.1729L2.99084 16.303H7.44974H11.9088L15.3455 20.1729L18.7818 24.0433ZM36.6318 24.0433L40.0681 27.9136L43.5047 31.7837H47.9635H52.4224L53.4448 27.9136L54.4672 24.0433L51.031 20.1729L47.594 16.303H43.1351H38.6763L37.6536 20.1729L36.6318 24.0433ZM5.04962 8.5622L6.07171 4.69173L7.09413 0.821442H11.553H16.0119L19.4484 4.69173L22.8851 8.5622L21.863 12.4324L20.8403 16.303H16.3815H11.9223L8.48639 12.4324L5.04962 8.5622ZM40.7211 8.5622L37.2844 4.69173L33.8476 0.821442H29.3887H24.9299L23.9075 4.69173L22.8851 8.5622L26.3219 12.4324L29.7583 16.303H34.2174H38.6763L39.6984 12.4324L40.7211 8.5622ZM149.505 9.409C156.619 9.409 162.552 14.4758 163.909 21.2052H157.851C156.642 17.7525 153.363 15.2762 149.505 15.2762C144.622 15.2762 140.664 19.2437 140.664 24.1379C140.664 29.0321 144.622 32.9995 149.505 32.9995C153.363 32.9995 156.642 30.5231 157.851 27.0705H163.909C162.552 33.7999 156.619 38.8668 149.505 38.8668C141.389 38.8668 134.81 32.2724 134.81 24.1379C134.81 16.0031 141.389 9.409 149.505 9.409ZM103.497 10.0445H97.4391L104.966 38.6718H105.008H111.023H111.066L115.56 21.5777L120.054 38.6718H120.118H126.112H126.176L129.183 27.2314H123.126L123.115 27.2717L118.589 10.0567L118.592 10.0445H118.586H112.534H112.528L112.531 10.0567L108.016 27.2314L103.497 10.0445ZM130.768 21.2052L133.702 10.0445H127.644L124.71 21.2052H130.768ZM68.3796 38.6718H62.3221L69.8484 10.0445H69.8909H75.906H75.9484L80.4426 27.1387L84.9369 10.0445H85.0002H90.9949H91.0583L98.5844 38.6718H92.5268L87.9977 21.4446L83.4717 38.6593L83.475 38.6718H83.4684H77.417H77.4103L77.4139 38.6593L72.8983 21.4848L68.3796 38.6718ZM63.8776 42.8862H67.0498V41.5669H62.4195V48.2102H63.8776V42.8862ZM68.0818 48.2102H69.5399V46.2172H70.6478C72.1345 46.2172 73.3276 45.42 73.3276 43.8825C73.3276 42.5066 72.3711 41.5669 70.79 41.5669H68.0818V48.2102ZM69.5399 44.917V42.8862H70.6668C71.3958 42.8862 71.8503 43.2373 71.8503 43.8921C71.8503 44.4806 71.4244 44.917 70.6951 44.917H69.5399ZM77.2098 45.0783L75.4105 41.5669H73.7822L76.4333 46.5399C76.1682 46.9479 75.865 47.0713 75.6 47.0713C75.3442 47.0713 75.0793 47.0144 74.8141 46.853L74.246 47.9254C74.6625 48.1627 75.1076 48.3146 75.6757 48.3146C76.6036 48.3146 77.2664 47.8591 77.8441 46.7013L80.3911 41.5669H78.8098L77.2098 45.0783ZM81.357 48.2102H82.8152V42.8862H85.4288V48.2102H86.8869V41.5669H81.357V48.2102ZM88.4776 48.2102H89.9357V42.8862H92.5492V48.2102H94.0073V41.5669H88.4776V48.2102ZM95.0299 48.2102H96.5166L97.1225 46.7201H99.9253L100.531 48.2102H102.056L99.2151 41.5195H97.8705L95.0299 48.2102ZM97.6432 45.4296L98.5239 43.2753L99.4045 45.4296H97.6432ZM105.919 48.2102H107.377V46.1794L108.144 45.382L110.199 48.2102H111.95L109.129 44.3856L111.827 41.5669H110.066L107.377 44.4709V41.5669H105.919V48.2102ZM116.051 48.3241C118.096 48.3241 119.582 46.7772 119.582 44.8887C119.582 42.9811 118.115 41.4529 116.07 41.4529C114.024 41.4529 112.538 43.0001 112.538 44.8887C112.538 46.7962 114.005 48.3241 116.051 48.3241ZM116.07 46.9765C114.895 46.9765 114.062 46.0275 114.062 44.8887C114.062 43.7308 114.876 42.8007 116.051 42.8007C117.225 42.8007 118.058 43.7499 118.058 44.8887C118.058 46.0465 117.244 46.9765 116.07 46.9765ZM120.88 48.2102H122.309V43.9016L124.156 46.7108H124.194L126.059 43.8731V48.2102H127.508V41.5669H125.936L124.194 44.3761L122.452 41.5669H120.88V48.2102ZM129.099 48.2102H130.557V42.8862H133.17V48.2102H134.628V41.5669H129.099V48.2102ZM135.651 48.2102H137.138L137.743 46.7201H140.546L141.152 48.2102H142.677L139.836 41.5195H138.492L135.651 48.2102ZM138.264 45.4296L139.145 43.2753L140.025 45.4296H138.264ZM143.699 48.2102H145.157V45.5435H147.847V48.2102H149.305V41.5669H147.847V44.1957H145.157V41.5669H143.699V48.2102ZM156.605 41.5669H155.251L152.335 45.923V41.5669H150.896V48.2102H152.269L155.166 43.8541V48.2102H156.605V41.5669ZM163.906 41.5669H162.552L159.636 45.923V41.5669H158.196V48.2102H159.569L162.467 43.8541V48.2102H163.906V41.5669ZM161.075 41.0639C161.946 41.0639 162.533 40.5326 162.665 39.6215L161.823 39.4696C161.7 39.8586 161.472 40.1055 161.075 40.1055C160.677 40.1055 160.45 39.8586 160.327 39.4696L159.484 39.6215C159.617 40.5326 160.204 41.0639 161.075 41.0639Z" fill="white"/>
</svg>
