<svg width="165" height="49" viewBox="0 0 165 49" fill="none" xmlns="http://www.w3.org/2000/svg">
<path fill-rule="evenodd" clip-rule="evenodd" d="M14.7057 39.5245L15.7279 35.6543L16.7503 31.7837H21.2092H25.6683L29.1044 35.6543L32.5412 39.5245L31.5191 43.3948L30.4966 47.265H26.0372H21.5787L18.1419 43.3948L14.7057 39.5245ZM50.3767 39.5245L46.9401 35.6543L43.5037 31.7837H39.0448H34.5857L33.5633 35.6543L32.5412 39.5245L35.9779 43.3948L39.4138 47.265H43.873H48.3318L49.3547 43.3948L50.3767 39.5245ZM18.7808 24.0433L17.7587 27.9136L16.7366 31.7837H12.2777H7.81889L4.38208 27.9136L0.945312 24.0433L1.96805 20.1729L2.98986 16.303H7.44876H11.9078L15.3445 20.1729L18.7808 24.0433ZM36.6308 24.0433L40.0672 27.9136L43.5037 31.7837H47.9625H52.4214L53.4438 27.9136L54.4663 24.0433L51.03 20.1729L47.593 16.303H43.1341H38.6753L37.6526 20.1729L36.6308 24.0433ZM5.04864 8.5622L6.07074 4.69173L7.09315 0.821442H11.5521H16.011L19.4474 4.69173L22.8841 8.5622L21.862 12.4324L20.8393 16.303H16.3805H11.9214L8.48541 12.4324L5.04864 8.5622ZM40.7201 8.5622L37.2834 4.69173L33.8466 0.821442H29.3877H24.9289L23.9065 4.69173L22.8841 8.5622L26.3209 12.4324L29.7574 16.303H34.2164H38.6753L39.6974 12.4324L40.7201 8.5622ZM149.504 9.409C156.618 9.409 162.551 14.4758 163.908 21.2052H157.85C156.641 17.7525 153.362 15.2762 149.504 15.2762C144.621 15.2762 140.663 19.2437 140.663 24.1379C140.663 29.0321 144.621 32.9995 149.504 32.9995C153.362 32.9995 156.641 30.5231 157.85 27.0705H163.908C162.551 33.7999 156.618 38.8668 149.504 38.8668C141.388 38.8668 134.809 32.2724 134.809 24.1379C134.809 16.0031 141.388 9.409 149.504 9.409ZM103.496 10.0445H97.4381L104.965 38.6718H105.007H111.022H111.065L115.559 21.5777L120.053 38.6718H120.117H126.111H126.175L129.182 27.2314H123.125L123.114 27.2717L118.588 10.0567L118.591 10.0445H118.585H112.533H112.527L112.53 10.0567L108.015 27.2314L103.496 10.0445ZM130.767 21.2052L133.701 10.0445H127.643L124.709 21.2052H130.767ZM68.3786 38.6718H62.3211L69.8474 10.0445H69.8899H75.905H75.9474L80.4417 27.1387L84.9359 10.0445H84.9992H90.994H91.0573L98.5834 38.6718H92.5258L87.9967 21.4446L83.4708 38.6593L83.474 38.6718H83.4674H77.416H77.4093L77.4129 38.6593L72.8974 21.4848L68.3786 38.6718ZM63.8766 42.8862H67.0488V41.5669H62.4185V48.2102H63.8766V42.8862ZM68.0808 48.2102H69.5389V46.2172H70.6468C72.1335 46.2172 73.3266 45.42 73.3266 43.8825C73.3266 42.5066 72.3702 41.5669 70.789 41.5669H68.0808V48.2102ZM69.5389 44.917V42.8862H70.6658C71.3948 42.8862 71.8493 43.2373 71.8493 43.8921C71.8493 44.4806 71.4235 44.917 70.6941 44.917H69.5389ZM77.2088 45.0783L75.4095 41.5669H73.7812L76.4324 46.5399C76.1672 46.9479 75.8641 47.0713 75.599 47.0713C75.3432 47.0713 75.0783 47.0144 74.8131 46.853L74.245 47.9254C74.6616 48.1627 75.1066 48.3146 75.6748 48.3146C76.6027 48.3146 77.2655 47.8591 77.8432 46.7013L80.3902 41.5669H78.8088L77.2088 45.0783ZM81.3561 48.2102H82.8142V42.8862H85.4278V48.2102H86.8859V41.5669H81.3561V48.2102ZM88.4766 48.2102H89.9347V42.8862H92.5482V48.2102H94.0063V41.5669H88.4766V48.2102ZM95.029 48.2102H96.5156L97.1215 46.7201H99.9244L100.53 48.2102H102.055L99.2142 41.5195H97.8696L95.029 48.2102ZM97.6423 45.4296L98.5229 43.2753L99.4035 45.4296H97.6423ZM105.918 48.2102H107.376V46.1794L108.143 45.382L110.198 48.2102H111.95L109.128 44.3856L111.826 41.5669H110.065L107.376 44.4709V41.5669H105.918V48.2102ZM116.05 48.3241C118.095 48.3241 119.581 46.7772 119.581 44.8887C119.581 42.9811 118.114 41.4529 116.069 41.4529C114.023 41.4529 112.537 43.0001 112.537 44.8887C112.537 46.7962 114.004 48.3241 116.05 48.3241ZM116.069 46.9765C114.894 46.9765 114.061 46.0275 114.061 44.8887C114.061 43.7308 114.875 42.8007 116.05 42.8007C117.224 42.8007 118.057 43.7499 118.057 44.8887C118.057 46.0465 117.243 46.9765 116.069 46.9765ZM120.879 48.2102H122.308V43.9016L124.155 46.7108H124.193L126.058 43.8731V48.2102H127.507V41.5669H125.935L124.193 44.3761L122.451 41.5669H120.879V48.2102ZM129.098 48.2102H130.556V42.8862H133.169V48.2102H134.627V41.5669H129.098V48.2102ZM135.65 48.2102H137.137L137.742 46.7201H140.545L141.151 48.2102H142.676L139.835 41.5195H138.491L135.65 48.2102ZM138.263 45.4296L139.144 43.2753L140.024 45.4296H138.263ZM143.698 48.2102H145.156V45.5435H147.846V48.2102H149.304V41.5669H147.846V44.1957H145.156V41.5669H143.698V48.2102ZM156.604 41.5669H155.25L152.334 45.923V41.5669H150.895V48.2102H152.268L155.165 43.8541V48.2102H156.604V41.5669ZM163.905 41.5669H162.551L159.635 45.923V41.5669H158.195V48.2102H159.568L162.466 43.8541V48.2102H163.905V41.5669ZM161.074 41.0639C161.945 41.0639 162.532 40.5326 162.664 39.6215L161.822 39.4696C161.699 39.8586 161.471 40.1055 161.074 40.1055C160.676 40.1055 160.449 39.8586 160.326 39.4696L159.483 39.6215C159.616 40.5326 160.203 41.0639 161.074 41.0639Z" fill="#3157BA"/>
</svg>
