<svg width="20" height="20" viewBox="0 0 20 20" fill="none" xmlns="http://www.w3.org/2000/svg">
<path d="M16.666 5.00008H14.166V3.33341C14.166 2.41258 13.4202 1.66675 12.4993 1.66675H7.49935C6.57852 1.66675 5.83268 2.41258 5.83268 3.33341V5.00008H3.33268C2.41185 5.00008 1.66602 5.74591 1.66602 6.66675V15.8334C1.66602 16.7542 2.41185 17.5001 3.33268 17.5001H16.666C17.5868 17.5001 18.3327 16.7542 18.3327 15.8334V6.66675C18.3327 5.74591 17.5868 5.00008 16.666 5.00008ZM7.49935 3.33341H12.4993V5.00008H7.49935V3.33341ZM16.666 15.8334H3.33268V14.1667H16.666V15.8334ZM16.666 11.6667H3.33268V6.66675H5.83268V8.33341H7.49935V6.66675H12.4993V8.33341H14.166V6.66675H16.666V11.6667Z" fill="#0036A7"/>
<path d="M16.666 11.6667H3.33268V6.66675H5.83268V8.33341H7.49935V6.66675H12.4993V8.33341H14.166V6.66675H16.666V11.6667Z" fill="#0036A7"/>
<path d="M16.666 15.8334H3.33268V14.1667H16.666V15.8334Z" fill="#0036A7"/>
</svg>
