<svg width="24" height="24" viewBox="0 0 24 24" fill="none" xmlns="http://www.w3.org/2000/svg">
<g clip-path="url(#clip0_314_1448)">
<path d="M0.85 24V24.15H1H2.71875H2.86875V24C2.86875 18.9651 6.96514 14.8687 12 14.8687C17.0349 14.8687 21.1313 18.9651 21.1313 24V24.15H21.2812H23H23.15V24C23.15 21.022 21.99 18.2215 19.8843 16.1157L19.7782 16.2218L19.8843 16.1157C18.7396 14.9711 17.3893 14.1064 15.9166 13.5551C17.4899 12.3662 18.5094 10.4799 18.5094 8.35938C18.5094 4.76998 15.5894 1.85 12 1.85C8.41061 1.85 5.49062 4.76998 5.49062 8.35938C5.49062 10.4799 6.51007 12.3662 8.08345 13.5551C6.61078 14.1064 5.26042 14.9711 4.11578 16.1157L4.22184 16.2218L4.11577 16.1157C2.01002 18.2215 0.85 21.022 0.85 24ZM12 12.85C9.52401 12.85 7.50938 10.8354 7.50938 8.35938C7.50938 5.88334 9.52401 3.86875 12 3.86875C14.476 3.86875 16.4906 5.88334 16.4906 8.35938C16.4906 10.8354 14.476 12.85 12 12.85Z" fill="#333333" stroke="#333333" stroke-width="0.3"/>
</g>
<defs>
<clipPath id="clip0_314_1448">
<rect width="24" height="24" fill="white"/>
</clipPath>
</defs>
</svg>
