<svg width="24" height="24" viewBox="0 0 24 24" fill="none" xmlns="http://www.w3.org/2000/svg">
<g clip-path="url(#clip0_314_1461)">
<path d="M17.5071 14.307L17.4981 14.382C15.2991 13.286 15.0691 13.14 14.7851 13.566C14.5881 13.861 14.0141 14.53 13.8411 14.728C13.6661 14.923 13.4921 14.938 13.1951 14.803C12.8951 14.653 11.9321 14.338 10.7921 13.318C9.90414 12.523 9.30814 11.548 9.13214 11.248C8.83914 10.742 9.45214 10.67 10.0101 9.61399C10.1101 9.40399 10.0591 9.23899 9.98514 9.08999C9.91014 8.93999 9.31314 7.46999 9.06314 6.88399C8.82314 6.29999 8.57614 6.37399 8.39114 6.37399C7.81514 6.32399 7.39414 6.33199 7.02314 6.71799C5.40914 8.49199 5.81614 10.322 7.19714 12.268C9.91114 15.82 11.3571 16.474 14.0011 17.382C14.7151 17.609 15.3661 17.577 15.8811 17.503C16.4551 17.412 17.6481 16.782 17.8971 16.077C18.1521 15.372 18.1521 14.787 18.0771 14.652C18.0031 14.517 17.8071 14.442 17.5071 14.307Z" fill="#333333"/>
<path d="M20.52 3.44888C12.831 -3.98412 0.106 1.40688 0.101 11.8929C0.101 13.9889 0.65 16.0329 1.696 17.8379L0 23.9999L6.335 22.3479C14.24 26.6179 23.996 20.9479 24 11.8989C24 8.72288 22.76 5.73388 20.505 3.48788L20.52 3.44888ZM22.002 11.8659C21.996 19.4989 13.617 24.2659 6.99 20.3699L6.63 20.1559L2.88 21.1309L3.885 17.4859L3.646 17.1109C-0.478 10.5459 4.26 1.96588 12.072 1.96588C14.726 1.96588 17.217 3.00088 19.093 4.87588C20.968 6.73488 22.002 9.22588 22.002 11.8659Z" fill="#333333"/>
</g>
<defs>
<clipPath id="clip0_314_1461">
<rect width="24" height="24" fill="white"/>
</clipPath>
</defs>
</svg>
