<svg width="204" height="23" viewBox="0 0 204 23" fill="none" xmlns="http://www.w3.org/2000/svg">
<path d="M4.27 18.67H11.17V22H0.0700002V1.06H4.27V18.67ZM18.0395 1.06V22H13.8395V1.06H18.0395ZM45.0191 1.06V22H40.8191V8.38L35.2091 22H32.0291L26.3891 8.38V22H22.1891V1.06H26.9591L33.6191 16.63L40.2791 1.06H45.0191ZM53.3716 4.45V9.7H60.4216V13.03H53.3716V18.58H61.3216V22H49.1716V1.03H61.3216V4.45H53.3716ZM72.3684 22.21C70.9084 22.21 69.5884 21.96 68.4084 21.46C67.2484 20.96 66.3284 20.24 65.6484 19.3C64.9684 18.36 64.6184 17.25 64.5984 15.97H69.0984C69.1584 16.83 69.4584 17.51 69.9984 18.01C70.5584 18.51 71.3184 18.76 72.2784 18.76C73.2584 18.76 74.0284 18.53 74.5884 18.07C75.1484 17.59 75.4284 16.97 75.4284 16.21C75.4284 15.59 75.2384 15.08 74.8584 14.68C74.4784 14.28 73.9984 13.97 73.4184 13.75C72.8584 13.51 72.0784 13.25 71.0784 12.97C69.7184 12.57 68.6084 12.18 67.7484 11.8C66.9084 11.4 66.1784 10.81 65.5584 10.03C64.9584 9.23 64.6584 8.17 64.6584 6.85C64.6584 5.61 64.9684 4.53 65.5884 3.61C66.2084 2.69 67.0784 1.99 68.1984 1.51C69.3184 1.01 70.5984 0.76 72.0384 0.76C74.1984 0.76 75.9484 1.29 77.2884 2.35C78.6484 3.39 79.3984 4.85 79.5384 6.73H74.9184C74.8784 6.01 74.5684 5.42 73.9884 4.96C73.4284 4.48 72.6784 4.24 71.7384 4.24C70.9184 4.24 70.2584 4.45 69.7584 4.87C69.2784 5.29 69.0384 5.9 69.0384 6.7C69.0384 7.26 69.2184 7.73 69.5784 8.11C69.9584 8.47 70.4184 8.77 70.9584 9.01C71.5184 9.23 72.2984 9.49 73.2984 9.79C74.6584 10.19 75.7684 10.59 76.6284 10.99C77.4884 11.39 78.2284 11.99 78.8484 12.79C79.4684 13.59 79.7784 14.64 79.7784 15.94C79.7784 17.06 79.4884 18.1 78.9084 19.06C78.3284 20.02 77.4784 20.79 76.3584 21.37C75.2384 21.93 73.9084 22.21 72.3684 22.21ZM97.6696 1.06V4.45H92.0896V22H87.8896V4.45H82.3096V1.06H97.6696ZM110.454 22.21C108.494 22.21 106.694 21.75 105.054 20.83C103.414 19.91 102.114 18.64 101.154 17.02C100.194 15.38 99.7141 13.53 99.7141 11.47C99.7141 9.43 100.194 7.6 101.154 5.98C102.114 4.34 103.414 3.06 105.054 2.14C106.694 1.22 108.494 0.76 110.454 0.76C112.434 0.76 114.234 1.22 115.854 2.14C117.494 3.06 118.784 4.34 119.724 5.98C120.684 7.6 121.164 9.43 121.164 11.47C121.164 13.53 120.684 15.38 119.724 17.02C118.784 18.64 117.494 19.91 115.854 20.83C114.214 21.75 112.414 22.21 110.454 22.21ZM110.454 18.46C111.714 18.46 112.824 18.18 113.784 17.62C114.744 17.04 115.494 16.22 116.034 15.16C116.574 14.1 116.844 12.87 116.844 11.47C116.844 10.07 116.574 8.85 116.034 7.81C115.494 6.75 114.744 5.94 113.784 5.38C112.824 4.82 111.714 4.54 110.454 4.54C109.194 4.54 108.074 4.82 107.094 5.38C106.134 5.94 105.384 6.75 104.844 7.81C104.304 8.85 104.034 10.07 104.034 11.47C104.034 12.87 104.304 14.1 104.844 15.16C105.384 16.22 106.134 17.04 107.094 17.62C108.074 18.18 109.194 18.46 110.454 18.46ZM142.199 22H137.999L128.489 7.63V22H124.289V1.03H128.489L137.999 15.43V1.03H142.199V22ZM150.549 4.45V9.7H157.599V13.03H150.549V18.58H158.499V22H146.349V1.03H158.499V4.45H150.549ZM164.176 22.21C163.416 22.21 162.786 21.98 162.286 21.52C161.806 21.04 161.566 20.45 161.566 19.75C161.566 19.05 161.806 18.47 162.286 18.01C162.786 17.53 163.416 17.29 164.176 17.29C164.916 17.29 165.526 17.53 166.006 18.01C166.486 18.47 166.726 19.05 166.726 19.75C166.726 20.45 166.486 21.04 166.006 21.52C165.526 21.98 164.916 22.21 164.176 22.21ZM181.929 22L174.309 12.67V22H170.109V1.06H174.309V10.45L181.929 1.06H186.999L178.359 11.44L187.239 22H181.929ZM194.292 18.46H203.712V22H189.432V18.76L198.792 4.6H189.432V1.06H203.712V4.3L194.292 18.46Z" fill="black"/>
</svg>
