<svg width="232" height="25" viewBox="0 0 232 25" fill="none" xmlns="http://www.w3.org/2000/svg">
<path d="M5.106 20.726H12.926V24.5H0.346V0.768H5.106V20.726ZM20.7115 0.768V24.5H15.9515V0.768H20.7115ZM51.2884 0.768V24.5H46.5284V9.064L40.1704 24.5H36.5664L30.1744 9.064V24.5H25.4144V0.768H30.8204L38.3684 18.414L45.9164 0.768H51.2884ZM60.7544 4.61V10.56H68.7444V14.334H60.7544V20.624H69.7644V24.5H55.9944V0.733998H69.7644V4.61H60.7544ZM82.2841 24.738C80.6295 24.738 79.1335 24.4547 77.7961 23.888C76.4815 23.3213 75.4388 22.5053 74.6681 21.44C73.8975 20.3747 73.5008 19.1167 73.4781 17.666H78.5781C78.6461 18.6407 78.9861 19.4113 79.5981 19.978C80.2328 20.5447 81.0941 20.828 82.1821 20.828C83.2928 20.828 84.1655 20.5673 84.8001 20.046C85.4348 19.502 85.7521 18.7993 85.7521 17.938C85.7521 17.2353 85.5368 16.6573 85.1061 16.204C84.6755 15.7507 84.1315 15.3993 83.4741 15.15C82.8395 14.878 81.9555 14.5833 80.8221 14.266C79.2808 13.8127 78.0228 13.3707 77.0481 12.94C76.0961 12.4867 75.2688 11.818 74.5661 10.934C73.8861 10.0273 73.5461 8.826 73.5461 7.33C73.5461 5.92467 73.8975 4.70067 74.6001 3.658C75.3028 2.61533 76.2888 1.822 77.5581 1.278C78.8275 0.711333 80.2781 0.428 81.9101 0.428C84.3581 0.428 86.3415 1.02867 87.8601 2.23C89.4015 3.40867 90.2515 5.06333 90.4101 7.194H85.1741C85.1288 6.378 84.7775 5.70933 84.1201 5.188C83.4855 4.644 82.6355 4.372 81.5701 4.372C80.6408 4.372 79.8928 4.61 79.3261 5.086C78.7821 5.562 78.5101 6.25333 78.5101 7.16C78.5101 7.79467 78.7141 8.32733 79.1221 8.758C79.5528 9.166 80.0741 9.506 80.6861 9.778C81.3208 10.0273 82.2048 10.322 83.3381 10.662C84.8795 11.1153 86.1375 11.5687 87.1121 12.022C88.0868 12.4753 88.9255 13.1553 89.6281 14.062C90.3308 14.9687 90.6821 16.1587 90.6821 17.632C90.6821 18.9013 90.3535 20.08 89.6961 21.168C89.0388 22.256 88.0755 23.1287 86.8061 23.786C85.5368 24.4207 84.0295 24.738 82.2841 24.738ZM110.959 0.768V4.61H104.635V24.5H99.8749V4.61H93.5509V0.768H110.959ZM125.448 24.738C123.227 24.738 121.187 24.2167 119.328 23.174C117.469 22.1313 115.996 20.692 114.908 18.856C113.82 16.9973 113.276 14.9007 113.276 12.566C113.276 10.254 113.82 8.18 114.908 6.344C115.996 4.48533 117.469 3.03466 119.328 1.992C121.187 0.949333 123.227 0.428 125.448 0.428C127.692 0.428 129.732 0.949333 131.568 1.992C133.427 3.03466 134.889 4.48533 135.954 6.344C137.042 8.18 137.586 10.254 137.586 12.566C137.586 14.9007 137.042 16.9973 135.954 18.856C134.889 20.692 133.427 22.1313 131.568 23.174C129.709 24.2167 127.669 24.738 125.448 24.738ZM125.448 20.488C126.876 20.488 128.134 20.1707 129.222 19.536C130.31 18.8787 131.16 17.9493 131.772 16.748C132.384 15.5467 132.69 14.1527 132.69 12.566C132.69 10.9793 132.384 9.59667 131.772 8.418C131.16 7.21667 130.31 6.29867 129.222 5.664C128.134 5.02933 126.876 4.712 125.448 4.712C124.02 4.712 122.751 5.02933 121.64 5.664C120.552 6.29867 119.702 7.21667 119.09 8.418C118.478 9.59667 118.172 10.9793 118.172 12.566C118.172 14.1527 118.478 15.5467 119.09 16.748C119.702 17.9493 120.552 18.8787 121.64 19.536C122.751 20.1707 124.02 20.488 125.448 20.488ZM161.425 24.5H156.665L145.887 8.214V24.5H141.127V0.733998H145.887L156.665 17.054V0.733998H161.425V24.5ZM170.889 4.61V10.56H178.879V14.334H170.889V20.624H179.899V24.5H166.129V0.733998H179.899V4.61H170.889ZM186.333 24.738C185.472 24.738 184.758 24.4773 184.191 23.956C183.647 23.412 183.375 22.7433 183.375 21.95C183.375 21.1567 183.647 20.4993 184.191 19.978C184.758 19.434 185.472 19.162 186.333 19.162C187.172 19.162 187.863 19.434 188.407 19.978C188.951 20.4993 189.223 21.1567 189.223 21.95C189.223 22.7433 188.951 23.412 188.407 23.956C187.863 24.4773 187.172 24.738 186.333 24.738ZM206.453 24.5L197.817 13.926V24.5H193.057V0.768H197.817V11.41L206.453 0.768H212.199L202.407 12.532L212.471 24.5H206.453ZM220.464 20.488H231.14V24.5H214.956V20.828L225.564 4.78H214.956V0.768H231.14V4.44L220.464 20.488Z" fill="black"/>
</svg>
