<svg width="320" height="195" viewBox="0 0 320 195" fill="none" xmlns="http://www.w3.org/2000/svg">
<path d="M30.0724 66.4508H20.888V23.9352L25.4801 19.2399H30.9124V28.6307H30.0724V66.4508Z" fill="#40FFB5"/>
<path d="M70.2555 66.4508H61.0433V23.9352H61.8272V19.2399H65.6636L70.2555 23.9352V66.4508Z" fill="#40FFB5"/>
<path d="M50.4296 40.054H40.7133L33.3772 28.6307H30.913V19.2399H38.3332L45.5575 30.4914L52.7818 19.2399H61.8265V28.6307H57.738L50.4296 40.054Z" fill="#40FFB5"/>
<path d="M65.5224 175.761H20.2447V166.37H60.9304V157.237H25.5929L21.0007 152.541V134.018L25.5929 129.323H70.8983V138.713H30.185V147.846H65.5224L70.1144 152.541V171.065L65.5224 175.761Z" fill="#40FFB5"/>
<path d="M70.8983 74.2664H20.2447V83.6566H70.8983V74.2664Z" fill="#40FFB5"/>
<path d="M50.15 78.962H40.9658V121.478H50.15V78.962Z" fill="#40FFB5"/>
<path d="M86.4397 195H4.59217L0 190.304V4.69535L4.59217 0H86.4397L91.0036 4.69535V190.304L86.4397 195ZM9.18434 185.609H81.987V9.39068H9.18434V185.609Z" fill="#40FFB5"/>
<path d="M140.456 47.0179H143.517V64.8314H140.655V52.1328L135.354 61.0906H135.005L129.704 52.1073V64.8314H126.842V47.0179H129.928L135.18 55.9245L140.456 47.0179Z" fill="white"/>
<path d="M158.838 59.6403H148.932C149.131 60.5904 149.579 61.3282 150.276 61.8542C150.989 62.3801 151.869 62.643 152.914 62.643C154.325 62.643 155.395 62.1173 156.125 61.0654L158.34 62.3885C157.129 64.2379 155.312 65.1625 152.889 65.1625C150.882 65.1625 149.247 64.5346 147.986 63.2792C146.742 62.007 146.12 60.4036 146.12 58.4697C146.12 56.5865 146.734 55.0002 147.961 53.7109C149.173 52.4216 150.749 51.777 152.69 51.777C154.499 51.777 155.992 52.43 157.17 53.7364C158.348 55.0427 158.937 56.629 158.937 58.4952C158.937 58.8344 158.904 59.216 158.838 59.6403ZM148.907 57.4007H156.225C156.042 56.3998 155.627 55.628 154.98 55.085C154.349 54.5422 153.578 54.2707 152.665 54.2707C151.67 54.2707 150.84 54.5506 150.176 55.1105C149.513 55.6703 149.09 56.4339 148.907 57.4007Z" fill="white"/>
<path d="M171.724 58.3425L176.577 64.8317H173.516L169.285 58.9532V64.8317H166.647V59.0042L162.416 64.8317H159.354L164.208 58.3425L159.603 52.1077H162.665L166.647 57.6808V52.1077H169.285V57.7062L173.267 52.1077H176.328L171.724 58.3425Z" fill="white"/>
<path d="M189.461 52.1077V62.2361H191.129V68.2416H188.491V64.8317H179.954V68.2416H177.316V62.2361H178.834C179.597 61.1503 179.979 59.615 179.979 57.6298V52.1077H189.461ZM181.795 62.2361H186.823V54.6272H182.617V57.6298C182.617 59.4621 182.343 60.9975 181.795 62.2361Z" fill="white"/>
<path d="M198.028 61.3709L201.214 52.1077H204.076L199.298 65.2387C198.717 66.8505 197.904 68.0549 196.858 68.8524C195.813 69.6499 194.602 70.0059 193.225 69.9211V67.3509C194.818 67.4528 195.921 66.6386 196.535 64.9081L196.61 64.7298L191.383 52.1077H194.245L198.028 61.3709Z" fill="white"/>
<path d="M214.145 57.1719V52.1077H216.834V64.8317H214.145V59.7675H208.446V64.8317H205.758V52.1077H208.446V57.1719H214.145Z" fill="white"/>
<path d="M229.808 53.9144V52.1076H232.495V64.8316H229.808V62.9993C228.795 64.4414 227.343 65.1625 225.452 65.1625C223.743 65.1625 222.283 64.5178 221.072 63.2283C219.86 61.939 219.255 60.3527 219.255 58.4697C219.255 56.5865 219.86 55.0002 221.072 53.7109C222.283 52.4216 223.743 51.777 225.452 51.777C227.343 51.777 228.795 52.4894 229.808 53.9144ZM223.063 61.3962C223.809 62.1595 224.747 62.5413 225.875 62.5413C227.003 62.5413 227.941 62.1595 228.687 61.3962C229.434 60.6158 229.808 59.6403 229.808 58.4697C229.808 57.2991 229.434 56.332 228.687 55.5687C227.941 54.7883 227.003 54.3981 225.875 54.3981C224.747 54.3981 223.809 54.7883 223.063 55.5687C222.316 56.332 221.943 57.2991 221.943 58.4697C221.943 59.6232 222.316 60.5987 223.063 61.3962Z" fill="white"/>
<path d="M242.671 51.777C244.364 51.777 245.824 52.43 247.052 53.7364C248.263 55.0257 248.869 56.6035 248.869 58.4697C248.869 60.3527 248.263 61.939 247.052 63.2283C245.841 64.5178 244.381 65.1625 242.671 65.1625C240.796 65.1625 239.345 64.4498 238.316 63.0248V69.9213H235.628V52.1076H238.316V53.9399C239.328 52.4978 240.78 51.777 242.671 51.777ZM239.436 61.3962C240.182 62.1595 241.12 62.5413 242.248 62.5413C243.377 62.5413 244.314 62.1595 245.061 61.3962C245.807 60.6158 246.181 59.6403 246.181 58.4697C246.181 57.2991 245.807 56.332 245.061 55.5687C244.314 54.7883 243.377 54.3981 242.248 54.3981C241.12 54.3981 240.182 54.7883 239.436 55.5687C238.689 56.332 238.316 57.2991 238.316 58.4697C238.316 59.6232 238.689 60.5987 239.436 61.3962Z" fill="white"/>
<path d="M261.835 63.2283C260.573 64.5178 259.022 65.1625 257.18 65.1625C255.338 65.1625 253.787 64.5178 252.526 63.2283C251.248 61.9222 250.61 60.3359 250.61 58.4697C250.61 56.6035 251.248 55.0173 252.526 53.7109C253.787 52.4216 255.338 51.777 257.18 51.777C259.022 51.777 260.573 52.4216 261.835 53.7109C263.112 55.0173 263.751 56.6035 263.751 58.4697C263.751 60.3359 263.112 61.9222 261.835 63.2283ZM253.298 58.4697C253.298 59.6232 253.671 60.5817 254.418 61.3453C255.164 62.1086 256.085 62.4904 257.18 62.4904C258.275 62.4904 259.196 62.1086 259.943 61.3453C260.69 60.5817 261.063 59.6232 261.063 58.4697C261.063 57.3159 260.69 56.3575 259.943 55.5942C259.196 54.8306 258.275 54.4488 257.18 54.4488C256.085 54.4488 255.164 54.8306 254.418 55.5942C253.671 56.3575 253.298 57.3159 253.298 58.4697Z" fill="white"/>
<path d="M276.645 52.1077V62.2361H278.312V68.2416H275.675V64.8317H267.138V68.2416H264.499V62.2361H266.017C266.781 61.1503 267.162 59.615 267.162 57.6298V52.1077H276.645ZM268.979 62.2361H274.007V54.6272H269.799V57.6298C269.799 59.4621 269.527 60.9975 268.979 62.2361Z" fill="white"/>
<path d="M288.884 57.1719V52.1077H291.573V64.8317H288.884V59.7675H283.183V64.8317H280.497V52.1077H283.183V57.1719H288.884Z" fill="white"/>
<path d="M304.547 53.9144V52.1076H307.233V64.8316H304.547V62.9993C303.534 64.4414 302.082 65.1625 300.191 65.1625C298.48 65.1625 297.02 64.5178 295.81 63.2283C294.598 61.939 293.992 60.3527 293.992 58.4697C293.992 56.5865 294.598 55.0002 295.81 53.7109C297.02 52.4216 298.48 51.777 300.191 51.777C302.082 51.777 303.534 52.4894 304.547 53.9144ZM297.801 61.3962C298.547 62.1595 299.485 62.5413 300.614 62.5413C301.743 62.5413 302.68 62.1595 303.426 61.3962C304.173 60.6158 304.547 59.6403 304.547 58.4697C304.547 57.2991 304.173 56.332 303.426 55.5687C302.68 54.7883 301.743 54.3981 300.614 54.3981C299.485 54.3981 298.547 54.7883 297.801 55.5687C297.055 56.332 296.681 57.2991 296.681 58.4697C296.681 59.6232 297.055 60.5987 297.801 61.3962Z" fill="white"/>
<path d="M314.45 52.1077H320V64.8317H317.363V60.5563H315.867L312.707 64.8317H309.547L312.907 60.3019C312.045 60.0136 311.347 59.5047 310.816 58.7749C310.301 58.0455 310.046 57.2312 310.046 56.3321C310.046 55.1615 310.452 54.169 311.263 53.3547C312.077 52.5233 313.138 52.1077 314.45 52.1077ZM314.598 58.1896H317.363V54.6017H314.598C314.035 54.6017 313.569 54.7713 313.206 55.1106C312.858 55.433 312.683 55.8655 312.683 56.4085C312.683 56.9513 312.858 57.384 313.206 57.7062C313.569 58.0287 314.035 58.1896 314.598 58.1896Z" fill="white"/>
<path d="M132.839 96.3976L136.647 87.0073H139.534L134.134 100.24C132.806 103.481 130.657 105.007 127.687 104.821V102.098C128.666 102.2 129.455 102.055 130.052 101.665C130.666 101.258 131.155 100.571 131.52 99.604L125.721 87.0073H128.608L132.839 96.3976Z" fill="white"/>
<path d="M148.982 97.1612V92.097H151.67V104.821H148.982V99.7569H143.283V104.821H140.595V92.097H143.283V97.1612H148.982Z" fill="white"/>
<path d="M157.427 100.164L163.798 92.097H165.864V104.821H163.226V96.7285L156.854 104.821H154.789V92.097H157.427V100.164Z" fill="white"/>
<path d="M177.594 98.2809C178.822 98.8746 179.436 99.8501 179.436 101.207C179.436 102.293 179.071 103.167 178.34 103.829C177.627 104.49 176.631 104.821 175.354 104.821H168.982V92.097H174.856C176.117 92.097 177.104 92.4192 177.818 93.0639C178.531 93.7088 178.888 94.5569 178.888 95.6088C178.888 96.8133 178.457 97.704 177.594 98.2809ZM174.657 94.4383H171.546V97.2629H174.657C175.752 97.2629 176.299 96.7878 176.299 95.8378C176.299 94.9049 175.752 94.4383 174.657 94.4383ZM171.546 102.429H175.105C176.233 102.429 176.797 101.928 176.797 100.927C176.797 100.486 176.648 100.147 176.349 99.9095C176.051 99.655 175.636 99.5277 175.105 99.5277H171.546V102.429Z" fill="white"/>
<path d="M193.643 99.6292H183.738C183.937 100.579 184.385 101.317 185.081 101.843C185.795 102.369 186.674 102.632 187.72 102.632C189.13 102.632 190.2 102.106 190.93 101.054L193.146 102.378C191.934 104.227 190.117 105.151 187.695 105.151C185.687 105.151 184.053 104.524 182.792 103.268C181.547 101.996 180.925 100.393 180.925 98.4586C180.925 96.5756 181.539 94.9894 182.767 93.6998C183.978 92.4105 185.555 91.7659 187.496 91.7659C189.304 91.7659 190.798 92.4192 191.976 93.7253C193.154 95.0316 193.743 96.6179 193.743 98.4841C193.743 98.8233 193.71 99.2051 193.643 99.6292ZM183.713 97.3899H191.03C190.848 96.3889 190.433 95.6169 189.786 95.0742C189.155 94.5311 188.384 94.2599 187.471 94.2599C186.475 94.2599 185.646 94.5398 184.982 95.0996C184.318 95.6595 183.895 96.4228 183.713 97.3899Z" fill="white"/>
<path d="M203.15 91.7659C204.843 91.7659 206.303 92.4192 207.531 93.7253C208.742 95.0148 209.347 96.5924 209.347 98.4586C209.347 100.342 208.742 101.928 207.531 103.217C206.319 104.507 204.859 105.151 203.15 105.151C201.275 105.151 199.823 104.439 198.795 103.014V109.91H196.107V92.0967H198.795V93.929C199.807 92.4869 201.259 91.7659 203.15 91.7659ZM199.914 101.385C200.661 102.149 201.599 102.53 202.727 102.53C203.855 102.53 204.793 102.149 205.539 101.385C206.286 100.605 206.66 99.6292 206.66 98.4586C206.66 97.288 206.286 96.3212 205.539 95.5576C204.793 94.7772 203.855 94.387 202.727 94.387C201.599 94.387 200.661 94.7772 199.914 95.5576C199.168 96.3212 198.795 97.288 198.795 98.4586C198.795 99.6124 199.168 100.588 199.914 101.385Z" fill="white"/>
<path d="M217.659 105.151C215.784 105.151 214.216 104.507 212.955 103.217C211.711 101.911 211.088 100.325 211.088 98.4586C211.088 96.5585 211.711 94.9723 212.955 93.6998C214.216 92.4105 215.784 91.7659 217.659 91.7659C218.87 91.7659 219.974 92.0628 220.969 92.6565C221.965 93.2502 222.711 94.0477 223.209 95.0487L220.894 96.4228C220.612 95.812 220.181 95.337 219.6 94.9978C219.036 94.6414 218.381 94.4634 217.634 94.4634C216.539 94.4634 215.618 94.8452 214.871 95.6085C214.141 96.3889 213.776 97.3389 213.776 98.4586C213.776 99.5783 214.141 100.528 214.871 101.309C215.618 102.072 216.539 102.454 217.634 102.454C218.364 102.454 219.02 102.284 219.6 101.945C220.198 101.589 220.646 101.105 220.944 100.494L223.259 101.843C222.728 102.861 221.956 103.667 220.944 104.261C219.949 104.855 218.854 105.151 217.659 105.151Z" fill="white"/>
<path d="M234.863 93.9036V92.0967H237.551V104.821H234.863V102.988C233.851 104.431 232.399 105.151 230.507 105.151C228.798 105.151 227.338 104.507 226.127 103.217C224.915 101.928 224.31 100.342 224.31 98.4586C224.31 96.5756 224.915 94.9894 226.127 93.6998C227.338 92.4105 228.798 91.7659 230.507 91.7659C232.399 91.7659 233.851 92.4785 234.863 93.9036ZM228.118 101.385C228.865 102.149 229.802 102.53 230.93 102.53C232.059 102.53 232.996 102.149 233.743 101.385C234.489 100.605 234.863 99.6292 234.863 98.4586C234.863 97.288 234.489 96.3212 233.743 95.5576C232.996 94.7772 232.059 94.387 230.93 94.387C229.802 94.387 228.865 94.7772 228.118 95.5576C227.371 96.3212 226.998 97.288 226.998 98.4586C226.998 99.6124 227.371 100.588 228.118 101.385Z" fill="white"/>
<path d="M241.653 92.097H251.186V104.821H248.498V94.7436H244.342V99.477C244.342 101.462 243.918 102.887 243.072 103.752C242.226 104.617 240.99 104.974 239.364 104.821V102.251C240.127 102.386 240.7 102.225 241.081 101.767C241.463 101.292 241.653 100.486 241.653 99.3496V92.097Z" fill="white"/>
<path d="M257.007 96.4231H259.745C261.089 96.4231 262.176 96.8133 263.005 97.5937C263.851 98.3571 264.275 99.3667 264.275 100.622C264.275 101.86 263.851 102.87 263.005 103.65C262.176 104.431 261.089 104.821 259.745 104.821H254.319V92.097H257.007V96.4231ZM257.007 102.353H259.77C260.301 102.353 260.74 102.191 261.089 101.869C261.454 101.547 261.636 101.131 261.636 100.622C261.636 100.113 261.462 99.6973 261.114 99.3751C260.765 99.0526 260.317 98.8917 259.77 98.8917H257.007V102.353Z" fill="white"/>
<path d="M274.859 97.1612V92.097H277.547V104.821H274.859V99.7569H269.161V104.821H266.473V92.097H269.161V97.1612H274.859Z" fill="white"/>
<path d="M290.522 93.9036V92.0967H293.211V104.821H290.522V102.988C289.509 104.431 288.057 105.151 286.166 105.151C284.458 105.151 282.997 104.507 281.785 103.217C280.576 101.928 279.969 100.342 279.969 98.4586C279.969 96.5756 280.576 94.9894 281.785 93.6998C282.997 92.4105 284.458 91.7659 286.166 91.7659C288.057 91.7659 289.509 92.4785 290.522 93.9036ZM283.776 101.385C284.525 102.149 285.46 102.53 286.589 102.53C287.717 102.53 288.655 102.149 289.401 101.385C290.147 100.605 290.522 99.6292 290.522 98.4586C290.522 97.288 290.147 96.3212 289.401 95.5576C288.655 94.7772 287.717 94.387 286.589 94.387C285.46 94.387 284.525 94.7772 283.776 95.5576C283.03 96.3212 282.658 97.288 282.658 98.4586C282.658 99.6124 283.03 100.588 283.776 101.385Z" fill="white"/>
<path d="M300.425 92.097H305.975V104.821H303.337V100.546H301.845L298.685 104.821H295.522L298.884 100.291C298.019 100.003 297.324 99.4938 296.791 98.7643C296.279 98.0349 296.02 97.2206 296.02 96.3212C296.02 95.1506 296.427 94.1583 297.241 93.3441C298.054 92.5127 299.116 92.097 300.425 92.097ZM300.576 98.179H303.337V94.5908H300.576C300.01 94.5908 299.547 94.7604 299.181 95.1C298.833 95.4221 298.658 95.8549 298.658 96.3976C298.658 96.9407 298.833 97.3731 299.181 97.6956C299.547 98.0178 300.01 98.179 300.576 98.179Z" fill="white"/>
<path d="M125.474 126.997H138.167V129.796H133.264V144.81H130.402V129.796H125.474V126.997Z" fill="white"/>
<path d="M148.401 143.207C147.14 144.497 145.588 145.141 143.747 145.141C141.905 145.141 140.354 144.497 139.092 143.207C137.815 141.901 137.176 140.315 137.176 138.448C137.176 136.582 137.815 134.996 139.092 133.69C140.354 132.4 141.905 131.756 143.747 131.756C145.588 131.756 147.14 132.4 148.401 133.69C149.678 134.996 150.317 136.582 150.317 138.448C150.317 140.315 149.678 141.901 148.401 143.207ZM139.864 138.448C139.864 139.602 140.237 140.561 140.984 141.324C141.731 142.088 142.652 142.469 143.747 142.469C144.842 142.469 145.763 142.088 146.509 141.324C147.256 140.561 147.629 139.602 147.629 138.448C147.629 137.295 147.256 136.336 146.509 135.573C145.763 134.809 144.842 134.428 143.747 134.428C142.652 134.428 141.731 134.809 140.984 135.573C140.237 136.336 139.864 137.295 139.864 138.448Z" fill="white"/>
<path d="M161.359 138.27C162.586 138.864 163.2 139.839 163.2 141.197C163.2 142.282 162.835 143.156 162.105 143.818C161.392 144.479 160.396 144.81 159.118 144.81H152.747V132.086H158.621C159.882 132.086 160.869 132.409 161.582 133.053C162.296 133.698 162.653 134.546 162.653 135.598C162.653 136.803 162.221 137.693 161.359 138.27ZM158.422 134.427H155.31V137.252H158.422C159.517 137.252 160.064 136.777 160.064 135.827C160.064 134.894 159.517 134.427 158.422 134.427ZM155.31 142.418H158.87C159.998 142.418 160.562 141.918 160.562 140.917C160.562 140.476 160.413 140.136 160.114 139.899C159.815 139.644 159.401 139.517 158.87 139.517H155.31V142.418Z" fill="white"/>
<path d="M175.242 133.893V132.087H177.929V144.81H175.242V142.978C174.229 144.42 172.777 145.141 170.886 145.141C169.177 145.141 167.717 144.497 166.506 143.207C165.294 141.918 164.689 140.332 164.689 138.448C164.689 136.565 165.294 134.979 166.506 133.69C167.717 132.4 169.177 131.756 170.886 131.756C172.777 131.756 174.229 132.468 175.242 133.893ZM168.496 141.375C169.243 142.138 170.181 142.52 171.309 142.52C172.437 142.52 173.375 142.138 174.121 141.375C174.868 140.595 175.242 139.619 175.242 138.448C175.242 137.278 174.868 136.311 174.121 135.547C173.375 134.767 172.437 134.377 171.309 134.377C170.181 134.377 169.243 134.767 168.496 135.547C167.75 136.311 167.377 137.278 167.377 138.448C167.377 139.602 167.75 140.578 168.496 141.375Z" fill="white"/>
<path d="M188.107 131.756C189.799 131.756 191.259 132.409 192.487 133.715C193.699 135.004 194.304 136.582 194.304 138.448C194.304 140.331 193.699 141.918 192.487 143.207C191.276 144.497 189.816 145.141 188.107 145.141C186.232 145.141 184.78 144.429 183.751 143.004V149.9H181.063V132.087H183.751V133.919C184.763 132.477 186.215 131.756 188.107 131.756ZM184.871 141.375C185.618 142.138 186.555 142.52 187.684 142.52C188.812 142.52 189.749 142.138 190.496 141.375C191.243 140.595 191.616 139.619 191.616 138.448C191.616 137.278 191.243 136.311 190.496 135.547C189.749 134.767 188.812 134.377 187.684 134.377C186.555 134.377 185.618 134.767 184.871 135.547C184.124 136.311 183.751 137.278 183.751 138.448C183.751 139.602 184.124 140.578 184.871 141.375Z" fill="white"/>
<path d="M205.127 137.151V132.086H207.815V144.81H205.127V139.746H199.428V144.81H196.739V132.086H199.428V137.151H205.127Z" fill="white"/>
<path d="M220.79 133.893V132.087H223.478V144.81H220.79V142.978C219.778 144.42 218.326 145.141 216.435 145.141C214.725 145.141 213.265 144.497 212.054 143.207C210.843 141.918 210.237 140.332 210.237 138.448C210.237 136.565 210.843 134.979 212.054 133.69C213.265 132.4 214.725 131.756 216.435 131.756C218.326 131.756 219.778 132.468 220.79 133.893ZM214.045 141.375C214.792 142.138 215.729 142.52 216.858 142.52C217.986 142.52 218.923 142.138 219.67 141.375C220.417 140.595 220.79 139.619 220.79 138.448C220.79 137.278 220.417 136.311 219.67 135.547C218.923 134.767 217.986 134.377 216.858 134.377C215.729 134.377 214.792 134.767 214.045 135.547C213.298 136.311 212.925 137.278 212.925 138.448C212.925 139.602 213.298 140.578 214.045 141.375Z" fill="white"/>
<path d="M230.693 132.086H236.243V144.81H233.605V140.535H232.111L228.951 144.81H225.79L229.15 140.28C228.287 139.992 227.59 139.483 227.059 138.754C226.545 138.024 226.287 137.21 226.287 136.311C226.287 135.14 226.694 134.148 227.507 133.333C228.32 132.502 229.382 132.086 230.693 132.086ZM230.842 138.169H233.605V134.58H230.842C230.278 134.58 229.813 134.75 229.448 135.089C229.1 135.412 228.926 135.844 228.926 136.387C228.926 136.93 229.1 137.363 229.448 137.685C229.813 138.007 230.278 138.169 230.842 138.169Z" fill="white"/>
<path d="M248.63 133.867H252.363C253.973 133.867 255.308 134.385 256.37 135.42C257.432 136.455 257.963 137.761 257.963 139.339C257.963 140.917 257.432 142.223 256.37 143.258C255.308 144.293 253.973 144.81 252.363 144.81H245.768V126.997H256.47V129.796H248.63V133.867ZM248.63 142.062H252.363C253.159 142.062 253.815 141.816 254.329 141.324C254.844 140.815 255.101 140.153 255.101 139.339C255.101 138.524 254.844 137.871 254.329 137.379C253.815 136.87 253.159 136.616 252.363 136.616H248.63V142.062Z" fill="white"/>
<path d="M262.791 140.153L269.163 132.086H271.23V144.81H268.59V136.718L262.219 144.81H260.153V132.086H262.791V140.153Z" fill="white"/>
<path d="M281.389 131.756C283.084 131.756 284.544 132.409 285.77 133.715C286.982 135.004 287.588 136.582 287.588 138.448C287.588 140.331 286.982 141.918 285.77 143.207C284.56 144.497 283.1 145.141 281.389 145.141C279.514 145.141 278.065 144.429 277.036 143.004V149.9H274.347V132.087H277.036V133.919C278.046 132.477 279.498 131.756 281.389 131.756ZM278.154 141.375C278.903 142.138 279.84 142.52 280.966 142.52C282.095 142.52 283.033 142.138 283.779 141.375C284.525 140.595 284.9 139.619 284.9 138.448C284.9 137.278 284.525 136.311 283.779 135.547C283.033 134.767 282.095 134.377 280.966 134.377C279.84 134.377 278.903 134.767 278.154 135.547C277.407 136.311 277.036 137.278 277.036 138.448C277.036 139.602 277.407 140.578 278.154 141.375Z" fill="white"/>
<path d="M300.201 138.321L305.053 144.81H301.993L297.761 138.932V144.81H295.123V138.983L290.894 144.81H287.83L292.685 138.321L288.081 132.086H291.141L295.123 137.659V132.086H297.761V137.685L301.745 132.086H304.806L300.201 138.321Z" fill="white"/>
<path d="M315.848 133.893V132.087H318.537V144.81H315.848V142.978C314.836 144.42 313.383 145.141 311.492 145.141C309.784 145.141 308.324 144.497 307.112 143.207C305.902 141.918 305.296 140.332 305.296 138.448C305.296 136.565 305.902 134.979 307.112 133.69C308.324 132.4 309.784 131.756 311.492 131.756C313.383 131.756 314.836 132.468 315.848 133.893ZM309.103 141.375C309.849 142.138 310.786 142.52 311.915 142.52C313.044 142.52 313.982 142.138 314.728 141.375C315.474 140.595 315.848 139.619 315.848 138.448C315.848 137.278 315.474 136.311 314.728 135.547C313.982 134.767 313.044 134.377 311.915 134.377C310.786 134.377 309.849 134.767 309.103 135.547C308.356 136.311 307.985 137.278 307.985 138.448C307.985 139.602 308.356 140.578 309.103 141.375Z" fill="white"/>
</svg>
