<svg width="16" height="16" viewBox="0 0 16 16" fill="none" xmlns="http://www.w3.org/2000/svg">
<g clip-path="url(#clip0_157_535)">
<path d="M2.34375 16H7.5625V10.3125H5.6875V8.4375H7.5625V6.09375C7.5625 4.80139 8.61389 3.75 9.90625 3.75H12.25V5.625H10.375C9.85803 5.625 9.4375 6.04553 9.4375 6.5625V8.4375H12.1654L11.8529 10.3125H9.4375V16H13.6562C14.9486 16 16 14.9486 16 13.6562V2.34375C16 1.05139 14.9486 0 13.6562 0H2.34375C1.05139 0 0 1.05139 0 2.34375V13.6562C0 14.9486 1.05139 16 2.34375 16ZM0.9375 2.34375C0.9375 1.56836 1.56836 0.9375 2.34375 0.9375H13.6562C14.4316 0.9375 15.0625 1.56836 15.0625 2.34375V13.6562C15.0625 14.4316 14.4316 15.0625 13.6562 15.0625H10.375V11.25H12.6471L13.2721 7.5H10.375V6.5625H13.1875V2.8125H9.90625C8.09692 2.8125 6.625 4.28442 6.625 6.09375V7.5H4.75V11.25H6.625V15.0625H2.34375C1.56836 15.0625 0.9375 14.4316 0.9375 13.6562V2.34375Z" fill="white"/>
</g>
<defs>
<clipPath id="clip0_157_535">
<rect width="16" height="16" fill="white"/>
</clipPath>
</defs>
</svg>
