<svg width="24" height="24" viewBox="0 0 24 24" fill="none" xmlns="http://www.w3.org/2000/svg">
<path d="M19.0331 16.6065C18.714 14.6152 18.5579 12.6039 18.5661 10.5902C18.8214 10.4498 19.0377 10.2546 19.1973 10.0208C19.3569 9.78687 19.4552 9.52087 19.4842 9.24451C19.5133 8.96814 19.4722 8.68925 19.3643 8.43063C19.2565 8.17201 19.085 7.941 18.8638 7.75649V6.44C18.8638 4.73201 18.1406 3.09397 16.8535 1.88623C15.5663 0.678498 13.8205 0 12.0001 0C10.1797 0 8.43393 0.678498 7.14674 1.88623C5.85955 3.09397 5.13641 4.73201 5.13641 6.44V7.7564C4.91521 7.94091 4.74368 8.17192 4.63584 8.43054C4.52801 8.68916 4.48693 8.96805 4.51597 9.24442C4.545 9.52079 4.64333 9.78679 4.8029 10.0207C4.96248 10.2546 5.17878 10.4497 5.43412 10.5901C5.4423 12.6038 5.28614 14.6151 4.96702 16.6064C4.35312 17.0636 3.85732 17.6451 3.51669 18.3074C3.17607 18.9697 2.99943 19.6957 3 20.4311V23.5556C3 23.6734 3.04991 23.7865 3.13874 23.8698C3.22757 23.9532 3.34806 24 3.47369 24H20.5263C20.6519 24 20.7724 23.9532 20.8613 23.8698C20.9501 23.7865 21 23.6734 21 23.5556V20.4311C21.0006 19.6957 20.8239 18.9698 20.4834 18.3075C20.1428 17.6452 19.647 17.0637 19.0331 16.6065ZM12.9332 17.7778H11.0668L10.1053 15.7149V14.6131C11.334 15.0045 12.666 15.0045 13.8947 14.6131V15.7149L12.9332 17.7778ZM12.5188 18.6667L12 19.7797L11.4812 18.6667H12.5188ZM5.45425 9.07009C5.45476 8.86036 5.53434 8.65756 5.67892 8.49761C5.82349 8.33765 6.02373 8.23086 6.24417 8.19613C6.25516 8.36102 6.27415 8.52453 6.30215 8.68467L6.50867 9.95898H6.40162C6.15044 9.95875 5.90961 9.86503 5.73199 9.69838C5.55438 9.53173 5.45449 9.30577 5.45425 9.07009ZM7.23796 8.546C7.21503 8.41471 7.19891 8.28212 7.1896 8.14822C8.94947 8.04549 10.6312 7.42964 12 6.38667C13.3687 7.42966 15.0503 8.04557 16.8102 8.1484C16.8009 8.28292 16.7846 8.41717 16.7611 8.55116L16.458 10.4225C16.3984 10.7467 16.2976 11.063 16.158 11.3647H13.8118C13.7168 11.1023 13.5367 10.8742 13.2968 10.7124C13.0569 10.5506 12.7691 10.4631 12.4737 10.4622H11.5263C11.1494 10.4622 10.788 10.6027 10.5215 10.8527C10.255 11.1028 10.1053 11.4419 10.1053 11.7956C10.1053 12.1492 10.255 12.4883 10.5215 12.7384C10.788 12.9884 11.1494 13.1289 11.5263 13.1289H12.4737C12.7641 13.1281 13.0473 13.0438 13.2851 12.8872C13.5228 12.7306 13.7036 12.5094 13.8031 12.2533H15.6373C15.2391 12.8116 14.6967 13.2662 14.0607 13.5747C13.4247 13.8833 12.7157 14.0357 12 14.0178C8.82021 14.0178 7.70368 11.4222 7.54211 10.4222L7.23796 8.546ZM18.5457 9.07009C18.5455 9.30577 18.4456 9.53173 18.268 9.69838C18.0904 9.86503 17.8496 9.95875 17.5984 9.95898H17.4913L17.697 8.68969C17.7254 8.52676 17.7446 8.36182 17.7557 8.19613C17.9762 8.23084 18.1765 8.33763 18.321 8.49758C18.4656 8.65754 18.5452 8.86035 18.5457 9.07009ZM17.3318 10.8479H17.5984C17.6034 10.8479 17.6081 10.8465 17.6132 10.8464V10.92C17.6125 11.0321 17.5664 11.1398 17.4842 11.2212C17.402 11.3027 17.2899 11.3517 17.1706 11.3585C17.2338 11.191 17.2876 11.0206 17.3318 10.8479ZM12.4737 12.24H11.5263C11.4007 12.24 11.2802 12.1932 11.1914 12.1098C11.1025 12.0265 11.0526 11.9134 11.0526 11.7956C11.0526 11.6777 11.1025 11.5646 11.1914 11.4813C11.2802 11.3979 11.4007 11.3511 11.5263 11.3511H12.4737C12.5993 11.3511 12.7198 11.3979 12.8086 11.4813C12.8975 11.5646 12.9474 11.6777 12.9474 11.7956C12.9474 11.9134 12.8975 12.0265 12.8086 12.1098C12.7198 12.1932 12.5993 12.24 12.4737 12.24ZM14.8421 14.1812C15.6411 13.7021 16.2952 13.0382 16.7416 12.2532H17.1395C17.3149 12.2524 17.4885 12.2208 17.6516 12.1601C17.6926 13.3095 17.7816 14.7132 17.9709 15.9968C17.4674 15.7776 16.9297 15.6356 16.3783 15.5762L14.8421 15.4121V14.1812ZM6.08368 6.44C6.08368 4.96775 6.70701 3.55581 7.81653 2.51477C8.92606 1.47374 10.4309 0.888889 12 0.888889C13.5691 0.888889 15.0739 1.47374 16.1835 2.51477C17.293 3.55581 17.9163 4.96775 17.9163 6.44V7.3224C17.8124 7.30578 17.3195 7.28973 17.3134 7.28942C16.5321 7.24729 14.1539 7.11907 12.3288 5.46671C12.2405 5.38679 12.1226 5.34213 11.9999 5.34213C11.8772 5.34213 11.7593 5.38679 11.671 5.46671C9.84587 7.11907 7.46845 7.26049 6.68645 7.28942C6.57144 7.29387 6.18742 7.30578 6.0835 7.3224L6.08368 6.44ZM6.37936 10.8457C6.38698 10.8457 6.39404 10.8478 6.40172 10.8478H6.66831C7.01931 12.2142 7.90888 13.4052 9.15799 14.1811V15.412L7.62221 15.576C7.07064 15.6355 6.5328 15.7775 6.02916 15.9968C6.25428 14.2878 6.37118 12.5678 6.37926 10.8458L6.37936 10.8457ZM3.94737 20.4311C3.94658 19.4485 4.33187 18.5002 5.02954 17.7674C5.72721 17.0347 6.6883 16.5689 7.72898 16.4593L8.06975 16.4229L6.95053 17.2736C6.89732 17.3141 6.8541 17.3649 6.82384 17.4225C6.79358 17.4802 6.777 17.5433 6.77524 17.6075C6.77349 17.6718 6.78659 17.7356 6.81367 17.7946C6.84074 17.8536 6.88113 17.9065 6.93205 17.9494L8.15255 18.9789L7.38745 19.503C7.33465 19.5392 7.29039 19.5852 7.25747 19.6382C7.22455 19.6912 7.20368 19.75 7.19616 19.8109C7.18865 19.8719 7.19465 19.9336 7.21381 19.9922C7.23296 20.0509 7.26484 20.1052 7.30745 20.1517L10.0204 23.1111H3.94737V20.4311ZM11.2701 23.1111L8.3604 19.9373L9.18309 19.3739C9.24004 19.3349 9.28699 19.2845 9.32052 19.2263C9.35405 19.1681 9.37331 19.1036 9.3769 19.0376C9.38049 18.9715 9.36832 18.9055 9.34127 18.8444C9.31423 18.7833 9.27299 18.7287 9.22056 18.6844L7.97809 17.6365L9.44684 16.52L11.5661 21.0671C11.603 21.1462 11.6637 21.2135 11.7408 21.2608C11.8179 21.308 11.9079 21.3332 12 21.3332C12.0921 21.3332 12.1821 21.308 12.2592 21.2608C12.3363 21.2135 12.397 21.1462 12.4339 21.0671L14.5532 16.52L16.0219 17.6363L14.7797 18.6844C14.7272 18.7287 14.686 18.7833 14.659 18.8444C14.6319 18.9055 14.6197 18.9715 14.6233 19.0376C14.6269 19.1036 14.6462 19.1681 14.6797 19.2263C14.7132 19.2845 14.7602 19.3349 14.8171 19.3739L15.6396 19.9373L12.7299 23.1111H11.2701ZM20.0526 23.1111H13.98L16.6928 20.1519C16.7354 20.1054 16.7673 20.0511 16.7865 19.9924C16.8056 19.9337 16.8116 19.872 16.8041 19.811C16.7966 19.7501 16.7757 19.6913 16.7428 19.6383C16.7099 19.5853 16.6656 19.5392 16.6128 19.503L15.8477 18.9789L17.0682 17.9494C17.1192 17.9065 17.1595 17.8536 17.1866 17.7946C17.2137 17.7356 17.2268 17.6718 17.225 17.6075C17.2233 17.5433 17.2067 17.4802 17.1764 17.4225C17.1462 17.3649 17.103 17.3141 17.0498 17.2736L15.9305 16.423L16.2716 16.4594C17.3121 16.5692 18.2731 17.0349 18.9706 17.7676C19.6682 18.5004 20.0534 19.4486 20.0526 20.4311V23.1111Z" fill="#40FFB5"/>
</svg>
