<svg width="16" height="16" viewBox="0 0 16 16" fill="none" xmlns="http://www.w3.org/2000/svg">
<path d="M7.99998 3.75015C8.25885 3.75015 8.46872 3.54028 8.46872 3.28142V1.62523C8.46872 1.36636 8.25885 1.15649 7.99998 1.15649C7.74112 1.15649 7.53125 1.36636 7.53125 1.62523V3.28142C7.53125 3.54031 7.74112 3.75015 7.99998 3.75015Z" fill="white"/>
<path d="M5.41461 4.54644C5.59763 4.72949 5.89443 4.72952 6.07749 4.54644C6.26054 4.36338 6.26054 4.06661 6.07749 3.88355L4.90637 2.71244C4.72335 2.52939 4.42655 2.52939 4.24349 2.71244C4.06044 2.8955 4.06044 3.19227 4.24349 3.37532L5.41461 4.54644Z" fill="white"/>
<path d="M10.2537 4.68371C10.3737 4.68371 10.4936 4.63796 10.5851 4.54641L11.7562 3.37529C11.9393 3.19224 11.9393 2.89547 11.7562 2.71241C11.5732 2.52936 11.2764 2.52936 11.0933 2.71241L9.92223 3.88352C9.62609 4.17967 9.83986 4.68371 10.2537 4.68371Z" fill="white"/>
<path d="M15.9783 14.2349L14.7284 10.2351C14.6672 10.0394 14.486 9.90616 14.281 9.90616H12.0944L10.9473 6.23524C10.8861 6.03956 10.7049 5.90631 10.4999 5.90631H5.50007C5.29504 5.90631 5.11383 6.03956 5.05268 6.23524L3.9055 9.90616H1.71896C1.51393 9.90616 1.33272 10.0394 1.27157 10.2351L0.0216132 14.2349C-0.0725084 14.5361 0.152515 14.8435 0.469003 14.8435H15.5309C15.8464 14.8435 16.0727 14.5371 15.9783 14.2349ZM5.84468 6.84378H10.1553L11.1123 9.90616C10.371 9.90616 5.629 9.90616 4.88768 9.90616L5.84468 6.84378ZM7.99997 12.8033L7.38759 10.8437H8.61236L7.99997 12.8033ZM1.10657 13.906L2.06357 10.8436H6.40541L7.3624 13.906H1.10657ZM8.63754 13.906L9.59454 10.8436H13.9363L14.8933 13.906H8.63754Z" fill="white"/>
</svg>
