<svg width="16" height="16" viewBox="0 0 16 16" fill="none" xmlns="http://www.w3.org/2000/svg">
<g clip-path="url(#clip0_312_985)">
<path d="M15.1667 15.8334H10.0667C9.70001 15.8334 9.40001 15.5334 9.40001 15.1667V12C9.40001 11.2 8.76667 10.5667 7.96667 10.5667C7.16667 10.5667 6.53334 11.2 6.53334 12V15.1667C6.53334 15.5334 6.23334 15.8334 5.86667 15.8334H0.833338C0.466672 15.8334 0.166672 15.5334 0.166672 15.1667V6.63338C0.166672 6.03338 0.466672 5.46672 0.933338 5.13338L7.63334 0.300049C7.86667 0.133382 8.16667 0.133382 8.40001 0.300049L15.1 5.13338C15.5667 5.46672 15.8667 6.03338 15.8667 6.63338V15.2C15.8333 15.5334 15.5333 15.8334 15.1667 15.8334V15.8334ZM10.7333 14.5334H14.5333V6.63338C14.5333 6.46672 14.4333 6.30005 14.3 6.20005L8.00001 1.63338L1.70001 6.16672C1.56667 6.26672 1.46667 6.43338 1.46667 6.60005V14.5H5.26667V12C5.26667 10.5 6.50001 9.26672 8.00001 9.26672C9.50001 9.26672 10.7333 10.5 10.7333 12V14.5334Z" fill="white"/>
</g>
<defs>
<clipPath id="clip0_312_985">
<rect width="16" height="16" fill="white"/>
</clipPath>
</defs>
</svg>
