<svg width="16" height="16" viewBox="0 0 16 16" fill="none" xmlns="http://www.w3.org/2000/svg">
<g clip-path="url(#clip0_125_281)">
<path d="M7.99743 11.9709C7.65762 11.9709 7.38184 11.6951 7.38184 11.3553V6.4936C7.38184 6.1538 7.65762 5.87801 7.99743 5.87801C8.33724 5.87801 8.61303 6.1538 8.61303 6.4936V11.3553C8.61303 11.6954 8.33755 11.9709 7.99743 11.9709Z" fill="white"/>
<path d="M7.99743 5.26272C7.8343 5.26272 7.67732 5.19808 7.56344 5.08112C7.44647 4.96723 7.38184 4.81026 7.38184 4.64712C7.38184 4.48399 7.44647 4.32701 7.56344 4.21313C7.79121 3.98228 8.20366 3.98228 8.43143 4.21005C8.54839 4.32701 8.61303 4.48399 8.61303 4.64712C8.61303 4.80718 8.54839 4.96723 8.43143 5.08112C8.31754 5.19808 8.16057 5.26272 7.99743 5.26272Z" fill="white"/>
<path d="M7.97673 16.0009C7.27649 16.0009 6.58241 15.9098 5.91356 15.7297C3.03134 14.9544 0.774561 12.5668 0.164196 9.64669C-0.457864 6.67182 0.690224 3.54459 3.08951 1.67964C4.47645 0.601421 6.22567 0.00737 8.01521 0.00737C9.2541 0.00737 10.4844 0.295469 11.5734 0.839965C14.2626 2.18535 16.0001 4.99617 16.0001 8.0012C16.0001 10.4531 14.8431 12.8164 12.9052 14.3228C11.5133 15.405 9.76289 16.0009 7.97673 16.0009ZM8.01552 1.23856C6.49838 1.23856 5.01725 1.74027 3.84546 2.65167C1.81492 4.23006 0.842892 6.87681 1.36953 9.3946C1.88602 11.8647 3.79529 13.8848 6.23367 14.5407C6.79817 14.6924 7.38484 14.7697 7.97673 14.7697H7.97704C9.49079 14.7697 10.9725 14.2658 12.1499 13.3507C13.7901 12.0758 14.7692 10.0761 14.7692 8.0012C14.7692 5.45848 13.2989 3.07981 11.023 1.94127C10.1039 1.48172 9.06419 1.23856 8.01552 1.23856Z" fill="white"/>
</g>
<defs>
<clipPath id="clip0_125_281">
<rect width="16" height="16" fill="white"/>
</clipPath>
</defs>
</svg>
