<svg width="24" height="24" viewBox="0 0 24 24" fill="none" xmlns="http://www.w3.org/2000/svg">
<g clip-path="url(#clip0_136_398)">
<path d="M24.0008 5.68758C24.0053 5.39438 23.8907 5.11173 23.6857 4.9022C23.4814 4.69342 23.1988 4.57584 22.9056 4.57584H18.0848C17.9484 4.57584 17.8255 4.65799 17.7735 4.78386C17.723 4.90973 17.7524 5.05445 17.8481 5.15093L18.7775 6.07951C18.9244 6.22573 19.0081 6.42396 19.0081 6.63123C19.0081 6.83775 18.9267 7.03674 18.7782 7.18296L14.0599 11.899C13.6559 12.3037 13.0009 12.3037 12.5985 11.899L9.55417 8.85471C9.37403 8.67457 9.13058 8.57358 8.87582 8.57358C8.62107 8.57358 8.37686 8.67457 8.19672 8.85471L0.280384 16.7665C-0.0934615 17.1419 -0.0934615 17.7501 0.280384 18.1255L1.30092 19.1445C1.48106 19.3247 1.72451 19.4249 1.97927 19.4249C2.23403 19.4249 2.47748 19.3247 2.65762 19.146L8.14245 13.6619C8.54645 13.2587 9.20143 13.2587 9.60467 13.6619L12.5954 16.6535C12.7899 16.8464 13.0514 16.9542 13.3273 16.9542C13.6032 16.9542 13.8662 16.8442 14.0607 16.6535L21.1577 9.55567C21.3032 9.40945 21.5022 9.3273 21.7079 9.3273C21.9145 9.3273 22.1142 9.40945 22.2589 9.55643L23.3541 10.6546C23.4498 10.7503 23.5922 10.7797 23.7189 10.7292C23.844 10.6787 23.9246 10.5574 23.9292 10.4225L24.0008 5.68758Z" fill="#40FFB5"/>
</g>
<defs>
<clipPath id="clip0_136_398">
<rect width="24.0008" height="24" fill="white"/>
</clipPath>
</defs>
</svg>
