<svg width="24" height="24" viewBox="0 0 24 24" fill="none" xmlns="http://www.w3.org/2000/svg">
<g clip-path="url(#clip0_125_351)">
<path d="M24.0008 18.3124C24.0053 18.6056 23.8907 18.8883 23.6857 19.0978C23.4814 19.3066 23.1988 19.4242 22.9056 19.4242H18.0848C17.9484 19.4242 17.8255 19.342 17.7735 19.2161C17.723 19.0903 17.7524 18.9456 17.8481 18.8491L18.7775 17.9205C18.9244 17.7743 19.0081 17.576 19.0081 17.3688C19.0081 17.1622 18.9267 16.9633 18.7782 16.817L14.0599 12.101C13.6559 11.6963 13.0009 11.6963 12.5985 12.101L9.55417 15.1453C9.37403 15.3254 9.13058 15.4264 8.87582 15.4264C8.62107 15.4264 8.37686 15.3254 8.19672 15.1453L0.280384 7.23347C-0.0934615 6.85812 -0.0934615 6.24986 0.280384 5.87451L1.30092 4.85548C1.48106 4.67534 1.72451 4.5751 1.97927 4.5751C2.23403 4.5751 2.47748 4.67534 2.65762 4.85397L8.14245 10.3381C8.54645 10.7413 9.20143 10.7413 9.60467 10.3381L12.5954 7.34653C12.7899 7.15358 13.0514 7.04579 13.3273 7.04579C13.6032 7.04579 13.8662 7.15584 14.0607 7.34653L21.1577 14.4443C21.3032 14.5905 21.5022 14.6727 21.7079 14.6727C21.9145 14.6727 22.1142 14.5905 22.2589 14.4436L23.3541 13.3454C23.4498 13.2497 23.5922 13.2203 23.7189 13.2708C23.844 13.3213 23.9246 13.4426 23.9292 13.5775L24.0008 18.3124Z" fill="#FF4040"/>
</g>
<defs>
<clipPath id="clip0_125_351">
<rect width="24.0008" height="24" fill="white" transform="matrix(1 0 0 -1 0 24)"/>
</clipPath>
</defs>
</svg>
