<svg width="21" height="21" viewBox="0 0 21 21" fill="none" xmlns="http://www.w3.org/2000/svg">
<path d="M16.7796 2.60146C15.102 0.923879 12.8716 0 10.4991 0C8.12671 0 5.89619 0.923879 4.21865 2.60146C2.54107 4.27909 1.61719 6.50952 1.61719 8.88191C1.61719 13.6812 6.15508 17.6731 8.59302 19.8176C8.9318 20.1157 9.22437 20.373 9.45746 20.5907C9.74949 20.8635 10.1243 21 10.4991 21C10.8739 21 11.2487 20.8635 11.5408 20.5907C11.7739 20.373 12.0664 20.1157 12.4052 19.8176C14.8432 17.6731 19.381 13.6812 19.381 8.88191C19.381 6.50952 18.4572 4.27909 16.7796 2.60146ZM11.5927 18.894C11.2465 19.1986 10.9475 19.4616 10.701 19.6918C10.5878 19.7975 10.4104 19.7976 10.2971 19.6918C10.0507 19.4615 9.75167 19.1985 9.40545 18.894C7.1135 16.8779 2.84725 13.125 2.84725 8.88195C2.84725 4.66275 6.27981 1.23018 10.4991 1.23018C14.7183 1.23018 18.1508 4.66275 18.1508 8.88195C18.1509 13.125 13.8847 16.8779 11.5927 18.894Z" fill="white"/>
<path d="M10.5001 4.63223C8.34182 4.63223 6.58594 6.38807 6.58594 8.54636C6.58594 10.7046 8.34182 12.4605 10.5001 12.4605C12.6584 12.4605 14.4142 10.7046 14.4142 8.54636C14.4142 6.38807 12.6584 4.63223 10.5001 4.63223ZM10.5001 11.2303C9.02014 11.2303 7.81608 10.0262 7.81608 8.54632C7.81608 7.06639 9.02014 5.86233 10.5001 5.86233C11.9801 5.86233 13.1841 7.06639 13.1841 8.54632C13.1841 10.0262 11.9801 11.2303 10.5001 11.2303Z" fill="white"/>
</svg>
