<svg width="90" height="55" viewBox="0 0 90 55" fill="none" xmlns="http://www.w3.org/2000/svg">
<path d="M8.45788 18.7425H5.87476V6.75097L7.1663 5.42664H8.69413V8.07532H8.45788V18.7425Z" fill="#40FFB5"/>
<path d="M19.7594 18.7425H17.1684V6.75097H17.3889V5.42664H18.4679L19.7594 6.75097V18.7425Z" fill="#40FFB5"/>
<path d="M14.1833 11.2973H11.4506L9.38734 8.07532H8.69427V5.42664H10.7812L12.813 8.60015L14.8449 5.42664H17.3887V8.07532H16.2388L14.1833 11.2973Z" fill="#40FFB5"/>
<path d="M18.4282 49.5735H5.69382V46.9248H17.1367V44.3489H7.198L5.90645 43.0245V37.7999L7.198 36.4756H19.9401V39.1241H8.48953V41.7002H18.4282L19.7197 43.0245V48.249L18.4282 49.5735Z" fill="#40FFB5"/>
<path d="M19.9401 20.9469H5.69382V23.5954H19.9401V20.9469Z" fill="#40FFB5"/>
<path d="M14.1047 22.2714H11.5216V34.2629H14.1047V22.2714Z" fill="#40FFB5"/>
<path d="M24.3112 55H1.29155L0 53.6756V1.32433L1.29155 0H24.3112L25.5948 1.32433V53.6756L24.3112 55ZM2.5831 52.3513H23.0588V2.64865H2.5831V52.3513Z" fill="#40FFB5"/>
<path d="M39.5033 13.2615H40.3643V18.2858H39.5593V14.7041L38.0683 17.2307H37.9703L36.4793 14.6969V18.2858H35.6743V13.2615H36.5423L38.0193 15.7736L39.5033 13.2615Z" fill="white"/>
<path d="M44.6731 16.8216H41.8872C41.9431 17.0896 42.0692 17.2977 42.2652 17.446C42.4658 17.5944 42.7132 17.6685 43.0072 17.6685C43.4038 17.6685 43.7048 17.5203 43.9101 17.2236L44.5331 17.5968C44.1924 18.1184 43.6815 18.3792 43.0001 18.3792C42.4355 18.3792 41.9758 18.2021 41.6212 17.848C41.2711 17.4891 41.0962 17.0369 41.0962 16.4915C41.0962 15.9603 41.2689 15.5129 41.6142 15.1492C41.9548 14.7856 42.3981 14.6038 42.9441 14.6038C43.4528 14.6038 43.8728 14.788 44.2041 15.1564C44.5355 15.5249 44.7012 15.9723 44.7012 16.4986C44.7012 16.5943 44.6918 16.7019 44.6731 16.8216ZM41.8802 16.1899H43.9382C43.8868 15.9076 43.7702 15.69 43.5882 15.5368C43.4108 15.3837 43.1938 15.3071 42.9372 15.3071C42.6571 15.3071 42.4238 15.3861 42.2371 15.544C42.0505 15.7019 41.9315 15.9173 41.8802 16.1899Z" fill="white"/>
<path d="M48.2974 16.4556L49.6624 18.2859H48.8014L47.6114 16.6278V18.2859H46.8694V16.6422L45.6794 18.2859H44.8185L46.1834 16.4556L44.8885 14.697H45.7494L46.8694 16.2689V14.697H47.6114V16.2761L48.7314 14.697H49.5924L48.2974 16.4556Z" fill="white"/>
<path d="M53.286 14.697V17.5538H53.755V19.2476H53.013V18.2859H50.612V19.2476H49.87V17.5538H50.297C50.5116 17.2475 50.619 16.8145 50.619 16.2545V14.697H53.286ZM51.13 17.5538H52.544V15.4076H51.361V16.2545C51.361 16.7714 51.284 17.2044 51.13 17.5538Z" fill="white"/>
<path d="M55.6954 17.3097L56.5914 14.697H57.3965L56.0525 18.4007C55.8891 18.8552 55.6604 19.195 55.3665 19.4199C55.0725 19.6448 54.7318 19.7452 54.3445 19.7213V18.9964C54.7925 19.0251 55.1028 18.7955 55.2755 18.3074L55.2964 18.2571L53.8265 14.697H54.6315L55.6954 17.3097Z" fill="white"/>
<path d="M60.2284 16.1254V14.697H60.9844V18.2859H60.2284V16.8575H58.6254V18.2859H57.8695V14.697H58.6254V16.1254H60.2284Z" fill="white"/>
<path d="M64.6334 15.2066V14.697H65.3893V18.2858H64.6334V17.769C64.3487 18.1758 63.9403 18.3792 63.4083 18.3792C62.9277 18.3792 62.5171 18.1973 62.1764 17.8336C61.8357 17.47 61.6654 17.0226 61.6654 16.4915C61.6654 15.9603 61.8357 15.5129 62.1764 15.1492C62.5171 14.7856 62.9277 14.6038 63.4083 14.6038C63.9403 14.6038 64.3487 14.8047 64.6334 15.2066ZM62.7363 17.3169C62.9464 17.5322 63.21 17.6399 63.5274 17.6399C63.8447 17.6399 64.1084 17.5322 64.3183 17.3169C64.5284 17.0968 64.6334 16.8216 64.6334 16.4915C64.6334 16.1613 64.5284 15.8885 64.3183 15.6732C64.1084 15.4531 63.8447 15.343 63.5274 15.343C63.21 15.343 62.9464 15.4531 62.7363 15.6732C62.5264 15.8885 62.4214 16.1613 62.4214 16.4915C62.4214 16.8168 62.5264 17.092 62.7363 17.3169Z" fill="white"/>
<path d="M68.2514 14.6038C68.7273 14.6038 69.138 14.788 69.4834 15.1564C69.824 15.5201 69.9944 15.9651 69.9944 16.4915C69.9944 17.0226 69.824 17.47 69.4834 17.8336C69.1427 18.1973 68.732 18.3792 68.2514 18.3792C67.724 18.3792 67.3157 18.1781 67.0263 17.7762V19.7214H66.2704V14.697H67.0263V15.2138C67.311 14.8071 67.7194 14.6038 68.2514 14.6038ZM67.3414 17.3169C67.5513 17.5322 67.815 17.6399 68.1323 17.6399C68.4497 17.6399 68.7133 17.5322 68.9234 17.3169C69.1333 17.0968 69.2383 16.8216 69.2383 16.4915C69.2383 16.1613 69.1333 15.8885 68.9234 15.6732C68.7133 15.4531 68.4497 15.343 68.1323 15.343C67.815 15.343 67.5513 15.4531 67.3414 15.6732C67.1313 15.8885 67.0263 16.1613 67.0263 16.4915C67.0263 16.8168 67.1313 17.092 67.3414 17.3169Z" fill="white"/>
<path d="M73.641 17.8336C73.2863 18.1973 72.8499 18.3792 72.332 18.3792C71.8139 18.3792 71.3776 18.1973 71.023 17.8336C70.6636 17.4652 70.4839 17.0178 70.4839 16.4915C70.4839 15.9651 70.6636 15.5177 71.023 15.1492C71.3776 14.7856 71.8139 14.6038 72.332 14.6038C72.8499 14.6038 73.2863 14.7856 73.641 15.1492C74.0003 15.5177 74.1799 15.9651 74.1799 16.4915C74.1799 17.0178 74.0003 17.4652 73.641 17.8336ZM71.24 16.4915C71.24 16.8168 71.345 17.0871 71.555 17.3025C71.765 17.5178 72.024 17.6255 72.332 17.6255C72.64 17.6255 72.899 17.5178 73.1089 17.3025C73.3189 17.0871 73.424 16.8168 73.424 16.4915C73.424 16.166 73.3189 15.8957 73.1089 15.6804C72.899 15.465 72.64 15.3573 72.332 15.3573C72.024 15.3573 71.765 15.465 71.555 15.6804C71.345 15.8957 71.24 16.166 71.24 16.4915Z" fill="white"/>
<path d="M77.8064 14.697V17.5538H78.2754V19.2476H77.5336V18.2859H75.1324V19.2476H74.3904V17.5538H74.8174C75.0321 17.2475 75.1394 16.8145 75.1394 16.2545V14.697H77.8064ZM75.6504 17.5538H77.0646V15.4076H75.8811V16.2545C75.8811 16.7714 75.8045 17.2044 75.6504 17.5538Z" fill="white"/>
<path d="M81.2486 16.1254V14.697H82.0048V18.2859H81.2486V16.8575H79.6453V18.2859H78.8899V14.697H79.6453V16.1254H81.2486Z" fill="white"/>
<path d="M85.6539 15.2066V14.697H86.4093V18.2858H85.6539V17.769C85.369 18.1758 84.9606 18.3792 84.4287 18.3792C83.9475 18.3792 83.5369 18.1973 83.1967 17.8336C82.8557 17.47 82.6852 17.0226 82.6852 16.4915C82.6852 15.9603 82.8557 15.5129 83.1967 15.1492C83.5369 14.7856 83.9475 14.6038 84.4287 14.6038C84.9606 14.6038 85.369 14.8047 85.6539 15.2066ZM83.7566 17.3169C83.9665 17.5322 84.2302 17.6399 84.5476 17.6399C84.8651 17.6399 85.1288 17.5322 85.3387 17.3169C85.5485 17.0968 85.6539 16.8216 85.6539 16.4915C85.6539 16.1613 85.5485 15.8885 85.3387 15.6732C85.1288 15.4531 84.8651 15.343 84.5476 15.343C84.2302 15.343 83.9665 15.4531 83.7566 15.6732C83.5467 15.8885 83.4414 16.1613 83.4414 16.4915C83.4414 16.8168 83.5467 17.092 83.7566 17.3169Z" fill="white"/>
<path d="M88.4391 14.697H90V18.2859H89.2582V17.08H88.8377L87.9489 18.2859H87.0601L88.005 17.0082C87.7625 16.9269 87.5663 16.7834 87.417 16.5775C87.2723 16.3718 87.2003 16.1421 87.2003 15.8885C87.2003 15.5584 87.3147 15.2784 87.5428 15.0487C87.7716 14.8143 88.0701 14.697 88.4391 14.697ZM88.4808 16.4125H89.2582V15.4005H88.4808C88.3225 15.4005 88.1914 15.4483 88.0891 15.544C87.9913 15.6349 87.9421 15.7569 87.9421 15.9101C87.9421 16.0632 87.9913 16.1852 88.0891 16.2761C88.1914 16.3671 88.3225 16.4125 88.4808 16.4125Z" fill="white"/>
<path d="M37.3611 27.1891L38.4321 24.5405H39.244L37.7251 28.2729C37.3517 29.1868 36.7474 29.6175 35.912 29.5649V28.7969C36.1874 28.8255 36.4091 28.7849 36.5771 28.6748C36.7497 28.56 36.8874 28.3662 36.9901 28.0934L35.3591 24.5405H36.1711L37.3611 27.1891Z" fill="white"/>
<path d="M41.9013 27.4044V25.9761H42.6573V29.5648H41.9013V28.1365H40.2983V29.5648H39.5423V25.9761H40.2983V27.4044H41.9013Z" fill="white"/>
<path d="M44.2763 28.2513L46.0683 25.9761H46.6493V29.5648H45.9073V27.2824L44.1153 29.5648H43.5343V25.9761H44.2763V28.2513Z" fill="white"/>
<path d="M49.9482 27.7202C50.2936 27.8877 50.4663 28.1628 50.4663 28.5457C50.4663 28.8519 50.3636 29.0983 50.1583 29.285C49.9575 29.4715 49.6776 29.5648 49.3182 29.5648H47.5262V25.9761H49.1783C49.5329 25.9761 49.8106 26.0669 50.0113 26.2488C50.2119 26.4307 50.3122 26.6699 50.3122 26.9666C50.3122 27.3063 50.1909 27.5575 49.9482 27.7202ZM49.1223 26.6364H48.2473V27.4331H49.1223C49.4303 27.4331 49.5842 27.2991 49.5842 27.0312C49.5842 26.768 49.4303 26.6364 49.1223 26.6364ZM48.2473 28.8902H49.2483C49.5656 28.8902 49.7242 28.749 49.7242 28.4667C49.7242 28.3423 49.6822 28.2466 49.5982 28.1796C49.5142 28.1078 49.3976 28.0719 49.2483 28.0719H48.2473V28.8902Z" fill="white"/>
<path d="M54.4621 28.1006H51.6762C51.7322 28.3685 51.8582 28.5767 52.0542 28.725C52.2549 28.8734 52.5022 28.9475 52.7962 28.9475C53.1928 28.9475 53.4939 28.7992 53.6992 28.5025L54.3222 28.8758C53.9815 29.3973 53.4705 29.6581 52.7892 29.6581C52.2245 29.6581 51.7649 29.4811 51.4102 29.127C51.0602 28.7681 50.8852 28.3159 50.8852 27.7704C50.8852 27.2393 51.0579 26.7919 51.4032 26.4282C51.7439 26.0645 52.1872 25.8827 52.7332 25.8827C53.2419 25.8827 53.6618 26.067 53.9932 26.4353C54.3245 26.8038 54.4902 27.2512 54.4902 27.7776C54.4902 27.8733 54.4808 27.9809 54.4621 28.1006ZM51.6692 27.469H53.7272C53.6759 27.1866 53.5592 26.9689 53.3772 26.8158C53.1999 26.6626 52.9829 26.5861 52.7262 26.5861C52.4462 26.5861 52.2128 26.6651 52.0262 26.823C51.8395 26.9809 51.7206 27.1962 51.6692 27.469Z" fill="white"/>
<path d="M57.136 25.8827C57.612 25.8827 58.0227 26.067 58.3679 26.4353C58.7086 26.7991 58.8789 27.244 58.8789 27.7704C58.8789 28.3016 58.7086 28.749 58.3679 29.1126C58.0273 29.4763 57.6166 29.6581 57.136 29.6581C56.6086 29.6581 56.2003 29.4572 55.911 29.0552V31.0003H55.155V25.976H55.911V26.4928C56.1956 26.0861 56.6039 25.8827 57.136 25.8827ZM56.2259 28.5958C56.436 28.8112 56.6996 28.9188 57.017 28.9188C57.3343 28.9188 57.598 28.8112 57.8079 28.5958C58.018 28.3757 58.123 28.1006 58.123 27.7704C58.123 27.4402 58.018 27.1675 57.8079 26.9521C57.598 26.732 57.3343 26.622 57.017 26.622C56.6996 26.622 56.436 26.732 56.2259 26.9521C56.016 27.1675 55.911 27.4402 55.911 27.7704C55.911 28.0958 56.016 28.371 56.2259 28.5958Z" fill="white"/>
<path d="M61.2166 29.6581C60.6893 29.6581 60.2483 29.4763 59.8936 29.1126C59.5436 28.7442 59.3686 28.2967 59.3686 27.7704C59.3686 27.2345 59.5436 26.7871 59.8936 26.4282C60.2483 26.0645 60.6893 25.8827 61.2166 25.8827C61.5573 25.8827 61.8676 25.9665 62.1476 26.1339C62.4276 26.3014 62.6376 26.5263 62.7776 26.8086L62.1265 27.1962C62.0472 27.0239 61.9259 26.8899 61.7626 26.7942C61.6039 26.6937 61.4196 26.6435 61.2096 26.6435C60.9016 26.6435 60.6426 26.7512 60.4326 26.9665C60.2273 27.1866 60.1246 27.4546 60.1246 27.7704C60.1246 28.0862 60.2273 28.3541 60.4326 28.5743C60.6426 28.7896 60.9016 28.8973 61.2096 28.8973C61.4149 28.8973 61.5993 28.8495 61.7626 28.7537C61.9306 28.6533 62.0566 28.5169 62.1406 28.3446L62.7916 28.725C62.6422 29.0121 62.4252 29.2394 62.1406 29.4069C61.8606 29.5744 61.5526 29.6581 61.2166 29.6581Z" fill="white"/>
<path d="M66.0551 26.4856V25.976H66.8112V29.5648H66.0551V29.048C65.7705 29.4548 65.3621 29.6581 64.8302 29.6581C64.3495 29.6581 63.9388 29.4763 63.5981 29.1126C63.2575 28.749 63.0872 28.3016 63.0872 27.7704C63.0872 27.2393 63.2575 26.7919 63.5981 26.4282C63.9388 26.0645 64.3495 25.8827 64.8302 25.8827C65.3621 25.8827 65.7705 26.0837 66.0551 26.4856ZM64.1582 28.5958C64.3682 28.8112 64.6318 28.9188 64.9491 28.9188C65.2665 28.9188 65.5301 28.8112 65.7402 28.5958C65.9501 28.3757 66.0551 28.1006 66.0551 27.7704C66.0551 27.4402 65.9501 27.1675 65.7402 26.9521C65.5301 26.732 65.2665 26.622 64.9491 26.622C64.6318 26.622 64.3682 26.732 64.1582 26.9521C63.9481 27.1675 63.8432 27.4402 63.8432 27.7704C63.8432 28.0958 63.9481 28.371 64.1582 28.5958Z" fill="white"/>
<path d="M67.965 25.9761H70.6461V29.5648H69.89V26.7225H68.7211V28.0576C68.7211 28.6174 68.602 29.0194 68.364 29.2634C68.126 29.5074 67.7784 29.6079 67.3211 29.5648V28.8399C67.5357 28.8782 67.6967 28.8327 67.8041 28.7036C67.9114 28.5696 67.965 28.3423 67.965 28.0217V25.9761Z" fill="white"/>
<path d="M72.2832 27.1962H73.0533C73.4312 27.1962 73.7369 27.3063 73.9702 27.5264C74.2082 27.7417 74.3272 28.0265 74.3272 28.3806C74.3272 28.7299 74.2082 29.0146 73.9702 29.2347C73.7369 29.4548 73.4312 29.5648 73.0533 29.5648H71.5273V25.9761H72.2832V27.1962ZM72.2832 28.8686H73.0602C73.2096 28.8686 73.3332 28.8232 73.4312 28.7322C73.5339 28.6414 73.5852 28.5241 73.5852 28.3806C73.5852 28.237 73.5362 28.1197 73.4382 28.0289C73.3402 27.9379 73.2142 27.8925 73.0602 27.8925H72.2832V28.8686Z" fill="white"/>
<path d="M77.304 27.4044V25.9761H78.0602V29.5648H77.304V28.1365H75.7014V29.5648H74.9454V25.9761H75.7014V27.4044H77.304Z" fill="white"/>
<path d="M81.7093 26.4856V25.976H82.4655V29.5648H81.7093V29.048C81.4244 29.4548 81.016 29.6581 80.4841 29.6581C80.0037 29.6581 79.593 29.4763 79.2521 29.1126C78.9119 28.749 78.7414 28.3016 78.7414 27.7704C78.7414 27.2393 78.9119 26.7919 79.2521 26.4282C79.593 26.0645 80.0037 25.8827 80.4841 25.8827C81.016 25.8827 81.4244 26.0837 81.7093 26.4856ZM79.812 28.5958C80.0226 28.8112 80.2856 28.9188 80.603 28.9188C80.9205 28.9188 81.1842 28.8112 81.3941 28.5958C81.604 28.3757 81.7093 28.1006 81.7093 27.7704C81.7093 27.4402 81.604 27.1675 81.3941 26.9521C81.1842 26.732 80.9205 26.622 80.603 26.622C80.2856 26.622 80.0226 26.732 79.812 26.9521C79.6021 27.1675 79.4976 27.4402 79.4976 27.7704C79.4976 28.0958 79.6021 28.371 79.812 28.5958Z" fill="white"/>
<path d="M84.4946 25.9761H86.0554V29.5648H85.3136V28.359H84.8939L84.0051 29.5648H83.1156L84.0612 28.2873C83.818 28.2059 83.6225 28.0623 83.4724 27.8566C83.3285 27.6508 83.2557 27.4212 83.2557 27.1675C83.2557 26.8373 83.3702 26.5575 83.599 26.3278C83.8278 26.0933 84.1263 25.9761 84.4946 25.9761ZM84.537 27.6915H85.3136V26.6794H84.537C84.3779 26.6794 84.2476 26.7273 84.1445 26.8231C84.0468 26.9139 83.9975 27.036 83.9975 27.1891C83.9975 27.3422 84.0468 27.4642 84.1445 27.5552C84.2476 27.646 84.3779 27.6915 84.537 27.6915Z" fill="white"/>
<path d="M35.2895 35.8196H38.8595V36.6091H37.4805V40.8439H36.6755V36.6091H35.2895V35.8196Z" fill="white"/>
<path d="M41.7378 40.3918C41.3831 40.7554 40.9467 40.9373 40.4288 40.9373C39.9108 40.9373 39.4744 40.7554 39.1198 40.3918C38.7605 40.0233 38.5808 39.5759 38.5808 39.0496C38.5808 38.5232 38.7605 38.0758 39.1198 37.7073C39.4744 37.3437 39.9108 37.1619 40.4288 37.1619C40.9467 37.1619 41.3831 37.3437 41.7378 37.7073C42.0971 38.0758 42.2767 38.5232 42.2767 39.0496C42.2767 39.5759 42.0971 40.0233 41.7378 40.3918ZM39.3368 39.0496C39.3368 39.3749 39.4418 39.6453 39.6517 39.8606C39.8618 40.076 40.1208 40.1836 40.4288 40.1836C40.7368 40.1836 40.9957 40.076 41.2058 39.8606C41.4157 39.6453 41.5208 39.3749 41.5208 39.0496C41.5208 38.7242 41.4157 38.4538 41.2058 38.2385C40.9957 38.0231 40.7368 37.9155 40.4288 37.9155C40.1208 37.9155 39.8618 38.0231 39.6517 38.2385C39.4418 38.4538 39.3368 38.7242 39.3368 39.0496Z" fill="white"/>
<path d="M45.3821 38.9993C45.7274 39.1667 45.9 39.4419 45.9 39.8247C45.9 40.131 45.7974 40.3774 45.592 40.564C45.3914 40.7506 45.1114 40.844 44.7521 40.844H42.96V37.2551H44.612C44.9667 37.2551 45.2444 37.3461 45.445 37.5279C45.6458 37.7097 45.7461 37.949 45.7461 38.2456C45.7461 38.5854 45.6247 38.8366 45.3821 38.9993ZM44.556 37.9155H43.681V38.7122H44.556C44.864 38.7122 45.0181 38.5782 45.0181 38.3103C45.0181 38.0471 44.864 37.9155 44.556 37.9155ZM43.681 40.1693H44.682C44.9994 40.1693 45.158 40.0281 45.158 39.7458C45.158 39.6213 45.116 39.5257 45.0321 39.4587C44.9481 39.3869 44.8314 39.351 44.682 39.351H43.681V40.1693Z" fill="white"/>
<path d="M49.2867 37.7648V37.2552H50.0427V40.8439H49.2867V40.3271C49.002 40.7339 48.5936 40.9373 48.0617 40.9373C47.581 40.9373 47.1704 40.7554 46.8297 40.3918C46.4891 40.0281 46.3187 39.5807 46.3187 39.0496C46.3187 38.5184 46.4891 38.0711 46.8297 37.7073C47.1704 37.3437 47.581 37.1619 48.0617 37.1619C48.5936 37.1619 49.002 37.3628 49.2867 37.7648ZM47.3897 39.875C47.5997 40.0903 47.8634 40.198 48.1807 40.198C48.498 40.198 48.7617 40.0903 48.9717 39.875C49.1817 39.6549 49.2867 39.3797 49.2867 39.0496C49.2867 38.7194 49.1817 38.4466 48.9717 38.2313C48.7617 38.0112 48.498 37.9012 48.1807 37.9012C47.8634 37.9012 47.5997 38.0112 47.3897 38.2313C47.1797 38.4466 47.0747 38.7194 47.0747 39.0496C47.0747 39.3749 47.1797 39.6501 47.3897 39.875Z" fill="white"/>
<path d="M52.905 37.1619C53.381 37.1619 53.7917 37.3461 54.1371 37.7145C54.4777 38.0782 54.648 38.5232 54.648 39.0496C54.648 39.5807 54.4777 40.0281 54.1371 40.3918C53.7964 40.7554 53.3857 40.9373 52.905 40.9373C52.3777 40.9373 51.9694 40.7363 51.68 40.3343V42.2795H50.924V37.2552H51.68V37.772C51.9647 37.3652 52.3731 37.1619 52.905 37.1619ZM51.995 39.875C52.205 40.0903 52.4687 40.198 52.786 40.198C53.1033 40.198 53.367 40.0903 53.577 39.875C53.787 39.6549 53.892 39.3797 53.892 39.0496C53.892 38.7194 53.787 38.4466 53.577 38.2313C53.367 38.0112 53.1033 37.9012 52.786 37.9012C52.4687 37.9012 52.205 38.0112 51.995 38.2313C51.785 38.4466 51.68 38.7194 51.68 39.0496C51.68 39.3749 51.785 39.6501 51.995 39.875Z" fill="white"/>
<path d="M57.692 38.6835V37.2551H58.4479V40.844H57.692V39.4156H56.089V40.844H55.333V37.2551H56.089V38.6835H57.692Z" fill="white"/>
<path d="M62.0972 37.7648V37.2552H62.8531V40.8439H62.0972V40.3271C61.8125 40.7339 61.4042 40.9373 60.8722 40.9373C60.3915 40.9373 59.9809 40.7554 59.6402 40.3918C59.2995 40.0281 59.1292 39.5807 59.1292 39.0496C59.1292 38.5184 59.2995 38.0711 59.6402 37.7073C59.9809 37.3437 60.3915 37.1619 60.8722 37.1619C61.4042 37.1619 61.8125 37.3628 62.0972 37.7648ZM60.2002 39.875C60.4102 40.0903 60.6739 40.198 60.9912 40.198C61.3085 40.198 61.5722 40.0903 61.7822 39.875C61.9922 39.6549 62.0972 39.3797 62.0972 39.0496C62.0972 38.7194 61.9922 38.4466 61.7822 38.2313C61.5722 38.0112 61.3085 37.9012 60.9912 37.9012C60.6739 37.9012 60.4102 38.0112 60.2002 38.2313C59.9902 38.4466 59.8852 38.7194 59.8852 39.0496C59.8852 39.3749 59.9902 39.6501 60.2002 39.875Z" fill="white"/>
<path d="M64.8823 37.2551H66.4433V40.844H65.7013V39.6381H65.2813L64.3923 40.844H63.5033L64.4483 39.5663C64.2056 39.485 64.0097 39.3415 63.8604 39.1357C63.7157 38.9299 63.6433 38.7002 63.6433 38.4466C63.6433 38.1165 63.7577 37.8365 63.9864 37.6068C64.215 37.3724 64.5136 37.2551 64.8823 37.2551ZM64.9243 38.9706H65.7013V37.9586H64.9243C64.7657 37.9586 64.635 38.0064 64.5324 38.1021C64.4343 38.1931 64.3854 38.315 64.3854 38.4682C64.3854 38.6213 64.4343 38.7433 64.5324 38.8342C64.635 38.9252 64.7657 38.9706 64.9243 38.9706Z" fill="white"/>
<path d="M69.9271 37.7575H70.977C71.4298 37.7575 71.8054 37.9035 72.104 38.1953C72.4027 38.4872 72.5521 38.8557 72.5521 39.3007C72.5521 39.7457 72.4027 40.1141 72.104 40.406C71.8054 40.6979 71.4298 40.8439 70.977 40.8439H69.1221V35.8196H72.1321V36.6091H69.9271V37.7575ZM69.9271 40.0687H70.977C71.2011 40.0687 71.3854 39.9994 71.5301 39.8606C71.6747 39.717 71.7471 39.5304 71.7471 39.3007C71.7471 39.071 71.6747 38.8868 71.5301 38.748C71.3854 38.6045 71.2011 38.5327 70.977 38.5327H69.9271V40.0687Z" fill="white"/>
<path d="M73.9101 39.5305L75.702 37.2551H76.2834V40.844H75.541V38.5614L73.7491 40.844H73.1681V37.2551H73.9101V39.5305Z" fill="white"/>
<path d="M79.1407 37.1619C79.6173 37.1619 80.028 37.3461 80.3727 37.7145C80.7137 38.0782 80.8842 38.5232 80.8842 39.0496C80.8842 39.5807 80.7137 40.0281 80.3727 40.3918C80.0325 40.7554 79.6219 40.9373 79.1407 40.9373C78.6134 40.9373 78.2057 40.7363 77.9163 40.3343V42.2795H77.1601V37.2552H77.9163V37.772C78.2004 37.3652 78.6088 37.1619 79.1407 37.1619ZM78.2307 39.875C78.4414 40.0903 78.705 40.198 79.0218 40.198C79.3392 40.198 79.6029 40.0903 79.8128 39.875C80.0227 39.6549 80.128 39.3797 80.128 39.0496C80.128 38.7194 80.0227 38.4466 79.8128 38.2313C79.6029 38.0112 79.3392 37.9012 79.0218 37.9012C78.705 37.9012 78.4414 38.0112 78.2307 38.2313C78.0208 38.4466 77.9163 38.7194 77.9163 39.0496C77.9163 39.3749 78.0208 39.6501 78.2307 39.875Z" fill="white"/>
<path d="M84.4317 39.0137L85.7963 40.844H84.9355L83.7452 39.1859V40.844H83.0034V39.2003L81.8138 40.844H80.9523L82.3177 39.0137L81.0228 37.2551H81.8835L83.0034 38.827V37.2551H83.7452V38.8342L84.8658 37.2551H85.7266L84.4317 39.0137Z" fill="white"/>
<path d="M88.8324 37.7648V37.2552H89.5886V40.8439H88.8324V40.3271C88.5475 40.7339 88.1391 40.9373 87.6072 40.9373C87.1268 40.9373 86.7161 40.7554 86.3752 40.3918C86.035 40.0281 85.8645 39.5807 85.8645 39.0496C85.8645 38.5184 86.035 38.0711 86.3752 37.7073C86.7161 37.3437 87.1268 37.1619 87.6072 37.1619C88.1391 37.1619 88.5475 37.3628 88.8324 37.7648ZM86.9351 39.875C87.145 40.0903 87.4087 40.198 87.7261 40.198C88.0436 40.198 88.3073 40.0903 88.5172 39.875C88.7271 39.6549 88.8324 39.3797 88.8324 39.0496C88.8324 38.7194 88.7271 38.4466 88.5172 38.2313C88.3073 38.0112 88.0436 37.9012 87.7261 37.9012C87.4087 37.9012 87.145 38.0112 86.9351 38.2313C86.7252 38.4466 86.6207 38.7194 86.6207 39.0496C86.6207 39.3749 86.7252 39.6501 86.9351 39.875Z" fill="white"/>
</svg>
