<svg width="16" height="16" viewBox="0 0 16 16" fill="none" xmlns="http://www.w3.org/2000/svg">
<path d="M7.99992 9.90625C7.74145 9.90625 7.53117 9.69597 7.53117 9.4375C7.53117 9.24869 7.64351 9.07912 7.81739 9.00547C8.02729 8.91659 8.27848 8.99244 8.50673 9.21356C8.69267 9.39369 8.98942 9.389 9.16954 9.20309C9.3497 9.01716 9.34498 8.72041 9.15907 8.54028C8.94745 8.33525 8.7122 8.19034 8.46867 8.10856V7.5625C8.46867 7.30362 8.25879 7.09375 7.99992 7.09375C7.74104 7.09375 7.53117 7.30362 7.53117 7.5625V8.11159C7.50457 8.12106 7.47807 8.13106 7.45179 8.14219C6.93051 8.36297 6.59367 8.87141 6.59367 9.4375C6.59367 10.2129 7.22451 10.8438 7.99992 10.8438C8.25839 10.8438 8.46867 11.054 8.46867 11.3125C8.46867 11.5089 8.34476 11.6861 8.16036 11.7532C7.91957 11.8409 7.63929 11.722 7.39142 11.4268C7.22492 11.2286 6.92926 11.2028 6.73101 11.3693C6.53276 11.5358 6.50704 11.8315 6.67354 12.0297C6.92695 12.3315 7.22192 12.5384 7.5312 12.6425V13.1875C7.5312 13.4464 7.74107 13.6562 7.99995 13.6562C8.25882 13.6562 8.4687 13.4464 8.4687 13.1875V12.6383C8.47289 12.6369 8.47707 12.6356 8.48123 12.6341C9.03445 12.4326 9.40617 11.9015 9.40617 11.3125C9.40617 10.5371 8.77532 9.90625 7.99992 9.90625Z" fill="white"/>
<path d="M12.3412 7.03934C11.7841 6.35394 11.1472 5.80787 10.4481 5.41519C10.5626 5.27972 10.6529 5.12087 10.7113 4.94384C10.9402 4.24669 10.6058 3.41856 9.75228 3.14878L10.9488 1.06237C11.0998 0.799062 10.9642 0.463688 10.6731 0.379063C9.80794 0.127531 8.90863 0 8 0C7.09137 0 6.19206 0.127531 5.32694 0.379063C5.0355 0.463781 4.90041 0.799375 5.05119 1.06237L6.24772 3.14881C5.39756 3.41722 5.05894 4.24412 5.28884 4.94422C5.347 5.12078 5.43731 5.27953 5.55216 5.41506C4.85294 5.80775 4.216 6.35388 3.65881 7.03934C2.54503 8.40956 1.90625 10.1379 1.90625 11.7812C1.90625 15.1903 4.62647 16 8 16C11.3759 16 14.0938 15.189 14.0938 11.7812C14.0938 10.1379 13.455 8.40956 12.3412 7.03934ZM6.17175 1.13181C6.76978 1.00272 7.38244 0.9375 8 0.9375C8.61756 0.9375 9.23022 1.00272 9.82825 1.13181L8.79597 2.93187C8.26725 2.85806 7.73291 2.85809 7.20406 2.93191L6.17175 1.13181ZM6.478 4.05925C7.28472 3.79462 8.12872 3.74447 8.94925 3.9085C8.95022 3.90869 8.95122 3.90887 8.95219 3.90906C9.14344 3.94744 9.33341 3.99738 9.52134 4.05903C9.767 4.14 9.90125 4.40572 9.82072 4.65094C9.76219 4.82853 9.60766 4.95084 9.42587 4.97066C8.9585 4.82431 8.48178 4.75 8 4.75C7.51919 4.75 7.04341 4.824 6.57694 4.96975C6.39234 4.95075 6.23744 4.82756 6.17941 4.65137C6.09875 4.40572 6.233 4.13997 6.478 4.05925ZM8 15.0688C4.33763 15.0688 2.84375 14.1119 2.84375 11.7812C2.84375 10.3706 3.42041 8.81897 4.38625 7.63069C5.40484 6.37759 6.68822 5.6875 8 5.6875C9.44394 5.6875 10.7069 6.51506 11.6138 7.63069C12.5796 8.81897 13.1562 10.3706 13.1562 11.7812C13.1562 14.1119 11.6624 15.0688 8 15.0688Z" fill="white"/>
</svg>
