<svg width="484" height="463" viewBox="0 0 484 463" fill="none" xmlns="http://www.w3.org/2000/svg">
<path fill-rule="evenodd" clip-rule="evenodd" d="M16.4459 463H46.7818C41.1169 452.918 41.6157 440.806 57.4117 427.725L57.3648 427.822C62.3365 423.717 82.0043 417.702 82.4395 433.905C82.5899 439.129 77.2204 452.147 61.9981 438.229C61.9981 438.229 55.7275 455.924 73.0684 463H93.3729C106.551 456.098 110.867 435.359 104.341 425.491C104.341 425.491 129.396 448.097 157.603 419.059C134.31 386.011 105.958 404.526 105.958 404.526C116.384 393.074 111.369 360.32 86.6365 361.8C61.9042 363.28 66.264 385.265 66.264 385.265C83.4373 373.857 86.7315 387.542 85.7825 392.686C82.8327 408.517 64.3289 399.548 60.0568 394.736C28.518 359.095 77.5556 341.285 92.2752 336.901C94.2014 339.805 96.2357 342.671 98.4131 345.427C125.994 380.33 176.883 412.109 226.571 429.772C238.425 433.96 250.625 437.098 263.028 439.149C249.4 437.821 235.676 437.771 222.038 439.001C189.048 442.094 154.232 450.476 124.147 463H205.252C229.171 459.065 241.712 460.774 255.69 462.679C256.472 462.786 257.26 462.893 258.054 463H287.778C284.584 456.66 281.988 449.335 280.229 440.874C314.377 380.309 377.07 403.397 377.07 403.397C399.654 412.474 405.054 439.453 406.305 452.095C398.52 456.134 398.541 448.626 398.541 448.626C399.64 430.107 369.319 429.136 353.166 431.272L352.86 431.312C348.112 431.92 344.866 432.335 342.579 431.117C341.047 430.379 336.554 426.958 340.689 417.688C342 415.273 343.738 413.117 345.819 411.323C347.597 409.82 349.466 408.429 351.418 407.16C352.533 409.883 353.345 414.976 346.716 417.984C351.361 418.723 351.956 421.345 351.387 424.516C350.257 428.045 345.246 429.496 344.231 426.192C346.116 426.321 347.939 424.712 346.18 422.518C342.518 420.605 340.075 423.502 341.461 426.595C342.847 429.689 344.466 429.809 348.838 429.189C348.911 429.178 348.988 429.168 349.071 429.157C350.379 428.986 352.847 428.664 354.814 422.003C356.123 417.542 356.557 413.468 352.16 403.504C350.357 404.989 348.563 406.314 346.877 407.559L346.874 407.561C344.892 409.024 343.06 410.376 341.541 411.749C339.481 413.576 337.872 415.856 336.84 418.409C335.808 420.963 335.382 423.72 335.594 426.466C335.689 429.39 336.533 432.241 338.047 434.745C341.408 440.855 351.574 440.494 362.955 440.091C370.396 439.827 378.355 439.545 385.272 441.04C387.62 441.504 389.739 442.755 391.28 444.586C392.822 446.417 393.693 448.719 393.75 451.112C385.526 441.881 372.919 443.867 365.995 446.554C363.621 447.39 361.04 447.436 358.638 446.685C356.236 445.933 354.142 444.424 352.668 442.384C352.848 444.328 353.419 446.216 354.347 447.934C355.275 449.652 356.541 451.164 358.068 452.381C356.31 453.238 354.743 454.442 353.46 455.919C352.178 457.396 351.207 459.116 350.605 460.977C352.489 459.313 354.861 458.304 357.367 458.101C359.873 457.898 362.377 458.513 364.504 459.852C366.135 460.937 368.154 462.062 370.427 463H390.218C391.001 462.592 391.777 462.121 392.543 461.582C392.406 462.069 392.234 462.542 392.03 463H397.633C398.673 461.417 400.764 459.968 404.638 463H434.3C434.817 455.84 437.386 448.976 441.707 443.233C446.149 437.331 452.24 432.878 459.212 430.438C466.184 427.997 473.723 427.679 480.876 429.524C481.934 429.796 482.976 430.115 484 430.477V393.309C479.248 397.119 474.381 400.06 470.348 402.185C464.701 396.62 471.386 394.119 471.386 394.119C489.022 388.593 479.408 359.915 471.735 345.558L471.655 345.406C469.364 341.072 467.827 338.164 468.158 335.57C468.374 333.877 469.935 328.459 480.058 329.08C481.399 329.27 482.718 329.578 484 329.998V326.917C482.069 326.161 480.016 325.745 477.933 325.694C475.18 325.626 472.45 326.196 469.954 327.36C467.249 328.462 464.878 330.253 463.08 332.556C458.531 337.835 462.418 347.208 466.769 357.701C469.624 364.586 472.679 371.952 473.682 378.961C474.059 381.335 473.618 383.765 472.432 385.855C471.246 387.945 469.386 389.57 467.156 390.465C472.942 379.504 466.645 368.385 461.685 362.762C460.066 360.841 459.117 358.446 458.979 355.938C458.841 353.429 459.523 350.944 460.922 348.858C459.162 349.706 457.593 350.902 456.308 352.373C455.023 353.844 454.049 355.56 453.446 357.418C452.031 356.068 450.357 355.018 448.526 354.332C446.695 353.646 444.743 353.337 442.789 353.425C445.006 354.605 446.78 356.471 447.846 358.745C448.911 361.018 449.21 363.576 448.699 366.034C447.021 373.313 446.729 386.051 456.933 392.91C454.61 393.113 452.285 392.532 450.33 391.259C448.375 389.987 446.903 388.097 446.147 385.89C443.724 379.241 442.921 371.316 442.17 363.908C441.023 352.581 439.998 342.463 433.488 339.962C430.81 338.798 427.874 338.355 424.972 338.677C422.224 338.831 419.551 339.622 417.162 340.988C414.773 342.354 412.735 344.257 411.21 346.547C410.031 348.248 408.93 350.271 407.732 352.47L407.729 352.476L407.725 352.483C406.727 354.315 405.663 356.268 404.432 358.259C414.966 361.264 418.886 360.276 423.165 358.293C429.478 355.457 429.48 352.96 429.481 351.636C429.481 351.549 429.481 351.468 429.483 351.391C429.489 346.962 428.751 345.259 425.89 344.421C422.641 343.455 420.077 346.294 422.493 349.673C424.831 351.038 426.274 349.098 425.884 347.233C429.272 347.786 428.528 352.938 425.209 354.545C424.505 354.93 423.717 355.135 422.914 355.141C422.112 355.147 421.32 354.955 420.611 354.58C419.901 354.206 419.295 353.662 418.847 352.996C418.399 352.33 418.123 351.564 418.044 350.766C417.861 351.876 417.441 352.933 416.812 353.865C416.183 354.798 415.359 355.583 414.398 356.167C413.437 356.751 412.361 357.121 411.243 357.25C410.126 357.379 408.994 357.265 407.925 356.915C408.938 354.812 410.063 352.764 411.297 350.782C412.816 348.487 414.726 346.477 416.941 344.844C425.515 339.478 429.546 343.545 430.484 344.895C432.025 347.044 432.062 350.387 432.077 355.396C432.138 371.568 437.192 401.256 455.163 398.018C455.163 398.018 463.185 396.909 459.281 406.26C451.362 406.161 416.693 404.145 405.289 377.63C405.304 377.786 380.442 314.902 438.985 278.905L439.046 278.965C460.208 282.937 474.436 292.455 484 303.612V283.777C476.814 277.636 468.631 272.75 459.794 269.337C459.469 267.773 459.156 266.245 458.978 264.811C458.385 261.526 457.759 258.446 457.146 255.433C452.577 232.965 448.777 214.277 465.473 142.958C470.451 121.652 477.038 105.907 484 94.0053V47.3448C443.644 -9.68759 385.168 1.8949 385.168 1.8949C385.168 1.8949 322.555 12.6307 307.589 86.1399C273.112 71.1578 232.931 69.3925 196.838 72.2611C169.464 74.4341 148.328 78.0925 128.718 81.4871L128.716 81.4872C110.759 84.5955 94.0809 87.4825 75.0628 88.8051C74.6186 107.902 72.4933 124.735 70.2023 142.88L70.202 142.883C67.7176 162.561 65.0383 183.784 64.0965 211.112C62.9597 246.504 66.429 285.642 82.1461 318.936C5.33697 339.998 1.02093 406.565 1.02093 406.565C1.02093 406.565 -1.52375 434.47 16.4459 463ZM484 152.013C475.376 195.698 479.98 242.635 484 269.012V152.013ZM484 343.502V336.665C483.225 336.193 482.537 335.59 481.967 334.881C482.267 335.614 482.381 336.409 482.301 337.196C482.221 337.984 481.948 338.739 481.508 339.397C481.067 340.054 480.471 340.593 479.773 340.967C479.075 341.34 478.296 341.536 477.504 341.537C473.802 341.701 470.686 337.536 473.406 335.431C473.965 337.257 476.128 338.299 477.554 335.961C478.072 331.837 474.48 330.587 472.078 332.965C469.675 335.342 470.17 336.928 472.231 340.795C472.265 340.858 472.3 340.927 472.336 340.999C472.935 342.175 474.09 344.444 481.052 343.874C482.052 343.802 483.02 343.697 484 343.502ZM351.271 463H337.381C340.827 461.383 345.69 461.815 351.271 463ZM280.229 440.874L280.217 440.895L280.229 440.871L280.229 440.874ZM424.122 28.9158C424.122 28.9158 417.45 20.1927 388.54 20.7694L388.562 20.6605C361.396 30.4926 358.344 41.123 358.38 41.0501C378.83 36.5203 394.149 50.4247 394.149 50.4247C394.149 50.4247 403.421 32.0372 424.122 28.9158ZM380.004 87.6409C395.432 83.0292 384.539 65.5947 379.305 61.8469L379.352 61.7496C343.484 36.0948 330.057 77.7298 326.009 95.9668C328.141 97.3229 330.25 98.7277 332.3 100.194C368.498 126.157 402.678 175.409 422.575 224.283C427.214 235.681 430.862 247.458 433.48 259.483C431.766 247.48 431.052 235.356 431.346 223.234C432.851 170.529 447.394 112.33 472.079 75.3063C473.129 73.7457 474.229 72.2086 475.341 70.7074C466.353 56.4066 437.535 17.1046 411.945 55.6987C408.369 61.0748 404.458 81.265 420.54 80.023C425.736 79.6195 438.128 72.9169 422.692 59.2556C422.692 59.2556 442.897 49.6361 450.72 73.1391C458.542 96.6422 428.18 109.938 414.448 102.817C414.448 102.817 439.671 125.323 413.727 156.379C378.407 136.679 393.816 106.54 393.816 106.54C383.503 118.257 350.372 116.652 349.243 91.9385C348.113 67.2252 370.541 69.0384 370.541 69.0384C361.026 87.3089 374.994 89.152 380.004 87.6409ZM94.0204 107.157C94.0204 107.157 91.8021 133.972 86.4565 185.758L86.5034 185.66C81.0228 238.908 88.7128 281.036 94.7437 295.321C95.4172 296.916 96.0953 298.717 96.8427 300.702L96.8442 300.706C102.793 316.503 113.146 343.998 160.543 372.644C223.113 410.468 242.025 412.627 264.821 415.231C267.921 415.585 271.093 415.947 274.456 416.408C275.944 416.615 277.515 416.773 279.111 416.942C286.242 408.525 294.88 401.511 304.582 396.261C279.557 393.496 106.242 370.221 106.578 256.992C106.849 170.897 110.669 124.457 110.794 123.08C112.214 122.805 158.483 116.839 244.414 112.538C366.274 106.578 393.165 306.951 393.165 306.951C393.165 306.951 353.525 296.971 352.559 237.145C352.559 237.145 326.716 246.716 338.077 277.613C338.077 277.613 257.529 273.843 272.996 234.628C288.462 195.413 321.02 224.146 307.017 249.81C307.017 249.81 376.363 230.875 323.795 176.394C323.795 176.394 298.663 143.869 270.173 183.822C270.173 183.822 284.093 144.521 225.821 121.047C225.821 121.047 253.073 170.258 241.315 229.887C241.315 229.887 175.306 189.391 224.869 162.339C224.869 162.339 198.764 130.093 180.147 171.745C180.147 171.745 164.126 128.571 123.062 134.797C118.755 176.09 162.644 190.123 162.644 190.123C121.927 210.682 155.352 235.251 155.352 235.251C180.156 184.418 223.598 248.522 223.598 248.522C164.578 263.054 114.166 238.123 114.166 238.123C140.305 295.244 178.921 279.483 178.921 279.483C140.354 309.823 173.945 333.363 173.945 333.363C230.742 383.351 246.531 313.233 246.531 313.233C221.46 328.357 191.352 297.209 229.788 279.955C268.225 262.7 275.737 342.959 275.737 342.959C244.353 333.06 236.007 359.291 236.007 359.291C288.521 357.709 304.043 387.615 307.002 395.03C318.126 389.446 330.061 385.651 342.367 383.784C342.367 383.784 411.893 373.681 418.273 441.295L418.718 440.371C423.008 431.424 429.511 423.721 437.611 417.99C377.569 409.388 384.728 343.261 384.728 343.261C388.656 312.088 400.979 292.713 412.596 281.025C412.216 278.207 411.802 275.521 411.342 272.994C410.73 269.683 410.225 266.553 409.731 263.492C406.086 240.903 403.039 222.022 362.336 161.227C331.349 114.96 303.361 106.002 287.303 100.863C285.365 100.243 283.601 99.678 282.027 99.1102C267.404 93.837 225.122 87.9753 172.207 95.923C120.702 103.681 94.0204 107.157 94.0204 107.157ZM20.0441 408.296C22.5506 437.117 32.0132 442.781 32.0132 442.781L32.06 442.684C32.9908 421.778 50.2894 410.669 50.2894 410.669C50.2894 410.669 34.8762 396.898 37.1963 376.092C37.1963 376.092 26.9632 380.24 20.0441 408.296ZM310.813 303.391C316.475 312.182 318.973 320.867 321.259 328.811C326.32 346.405 330.336 360.366 365.352 363.792C365.517 328.605 352.042 323.193 335.047 316.366C327.376 313.285 318.988 309.916 310.813 303.391ZM441.422 324.494C446.793 327.08 453.244 324.822 455.83 319.451C458.416 314.08 456.158 307.629 450.787 305.043C445.415 302.457 438.965 304.715 436.379 310.086C433.793 315.457 436.05 321.908 441.422 324.494ZM323.7 448.144C321.114 453.515 314.663 455.773 309.292 453.187C303.921 450.601 301.663 444.15 304.249 438.779C306.835 433.407 313.286 431.149 318.657 433.735C324.028 436.322 326.286 442.772 323.7 448.144Z" fill="white"/>
</svg>
