<svg width="16" height="16" viewBox="0 0 16 16" fill="none" xmlns="http://www.w3.org/2000/svg">
<g clip-path="url(#clip0_125_315)">
<path d="M15.2124 11.5275C15.17 11.3673 15.0945 11.2178 14.9907 11.0886C14.8869 10.9594 14.7572 10.8534 14.6099 10.7775L11.5174 9.17497C11.2679 9.04267 10.9791 9.00448 10.7038 9.06735C10.4284 9.13022 10.1848 9.28998 10.0174 9.51747L9.51744 10.2025C9.49175 10.2381 9.45394 10.2631 9.41112 10.2727C9.3683 10.2824 9.32343 10.2761 9.28494 10.255C8.54963 9.83655 7.87644 9.31735 7.28494 8.71247C6.68008 8.12094 6.16089 7.44776 5.74244 6.71247C5.72133 6.67398 5.71502 6.62911 5.72469 6.58629C5.73436 6.54347 5.75934 6.50566 5.79494 6.47997L6.47744 5.97997C6.70494 5.81259 6.86469 5.56901 6.92756 5.29365C6.99044 5.0183 6.95224 4.72951 6.81994 4.47997L5.22744 1.38997C5.15096 1.24249 5.04426 1.11278 4.9143 1.00929C4.78434 0.905799 4.63403 0.830856 4.47317 0.789343C4.3123 0.74783 4.1445 0.740679 3.98069 0.768356C3.81687 0.796033 3.66073 0.857917 3.52244 0.949974L1.57994 2.24997C1.30718 2.43159 1.08693 2.68169 0.941263 2.97522C0.795594 3.26876 0.729615 3.59541 0.749938 3.92247C0.775647 4.47545 0.850103 5.02508 0.972438 5.56497C1.49994 7.59997 2.77244 9.69247 4.53994 11.4625C6.30744 13.2325 8.40244 14.5 10.4374 15.0225C10.9773 15.1448 11.527 15.2192 12.0799 15.245H12.2049C12.51 15.2443 12.8103 15.169 13.0796 15.0256C13.3489 14.8823 13.579 14.6752 13.7499 14.4225L15.0449 12.48C15.1384 12.342 15.2016 12.1858 15.2305 12.0216C15.2594 11.8575 15.2532 11.6891 15.2124 11.5275ZM14.2124 11.9225L12.9249 13.8675C12.8395 13.9936 12.7226 14.0953 12.5858 14.1624C12.449 14.2295 12.297 14.2597 12.1449 14.25C11.6545 14.2273 11.1669 14.1629 10.6874 14.0575C8.82244 13.5725 6.89244 12.4 5.24994 10.75C3.60744 9.09997 2.42994 7.17747 1.94494 5.31247C1.83861 4.83307 1.77338 4.34547 1.74994 3.85497C1.73995 3.70322 1.77003 3.55151 1.83716 3.41505C1.9043 3.27859 2.00612 3.16217 2.13244 3.07747L4.07494 1.78247C4.10451 1.76268 4.13935 1.75222 4.17494 1.75247H4.22244C4.24705 1.75889 4.27003 1.77045 4.28985 1.7864C4.30968 1.80234 4.32589 1.82231 4.33744 1.84497L5.93744 4.93747C5.95732 4.97582 5.96296 5.01998 5.95335 5.0621C5.94373 5.10421 5.91949 5.14155 5.88494 5.16747L5.20244 5.66747C4.971 5.83965 4.81065 6.09065 4.75169 6.37301C4.69273 6.65538 4.73924 6.94957 4.88244 7.19997C5.34516 8.0088 5.91721 8.74995 6.58244 9.40247C7.23492 10.0677 7.97608 10.6398 8.78494 11.1025C9.03535 11.2457 9.32953 11.2922 9.6119 11.2332C9.89427 11.1743 10.1453 11.0139 10.3174 10.7825L10.8174 10.0975C10.8434 10.0629 10.8807 10.0387 10.9228 10.0291C10.9649 10.0195 11.0091 10.0251 11.0474 10.045L14.1399 11.645C14.1626 11.6568 14.1825 11.6733 14.1983 11.6933C14.2142 11.7133 14.2257 11.7365 14.2321 11.7612C14.2384 11.786 14.2395 11.8118 14.2353 11.837C14.231 11.8622 14.2216 11.8862 14.2074 11.9075L14.2124 11.9225Z" fill="white"/>
</g>
<defs>
<clipPath id="clip0_125_315">
<rect width="16" height="16" fill="white"/>
</clipPath>
</defs>
</svg>
