<svg width="12" height="12" viewBox="0 0 12 12" fill="none" xmlns="http://www.w3.org/2000/svg">
<g clip-path="url(#clip0_325_259)">
<path d="M10.7069 0H7.93021C7.32065 0 6.50546 0.337646 6.07452 0.768677L0.377563 6.46555C0.134033 6.70898 0 7.03363 0 7.37979C0 7.72595 0.134125 8.0506 0.377563 8.29404L3.70587 11.6224C3.94931 11.8659 4.27396 12 4.62012 12C4.96619 12 5.29092 11.8659 5.53445 11.6224L11.2313 5.92548C11.6624 5.49454 12 4.67935 12 4.06979V1.29291C11.9999 0.579987 11.4198 0 10.7069 0ZM11.2969 4.06979C11.2969 4.49377 11.0339 5.1286 10.7342 5.42834L5.03723 11.1252C4.92654 11.2359 4.77841 11.2969 4.62012 11.2969C4.46182 11.2969 4.31378 11.2359 4.20309 11.1253L0.874786 7.79681C0.764099 7.68613 0.703125 7.53799 0.703125 7.37979C0.703125 7.2215 0.764008 7.07336 0.874695 6.96277L6.57166 1.26581C6.8714 0.966064 7.50623 0.703125 7.93021 0.703125H10.7069C11.0322 0.703125 11.2968 0.967712 11.2969 1.29291V4.06979Z" fill="#FFE040"/>
<path d="M3.26504 7.76934C3.13723 7.64163 3.16919 7.45523 3.36081 7.26342C3.58456 7.03976 3.74697 7.07968 3.82956 6.99719C3.92541 6.90133 3.84549 6.73617 3.78424 6.67501C3.60846 6.49923 3.22238 6.81079 3.06527 6.96789C2.75903 7.27414 2.55404 7.75076 2.95074 8.14755C3.58181 8.77862 4.31414 7.80139 4.71359 8.20083C4.87335 8.36059 4.80679 8.57089 4.64703 8.73074C4.37539 9.00229 4.09845 8.86917 3.98932 8.9783C3.90673 9.06088 3.9494 9.24197 4.02392 9.31659C4.17837 9.47104 4.62039 9.38049 4.9692 9.03158C5.3367 8.66418 5.40591 8.20074 5.02514 7.81997C4.33548 7.1304 3.59518 8.09967 3.26504 7.76934Z" fill="#FFE040"/>
<path d="M6.98764 6.62446L4.79871 5.46348C4.69489 5.40755 4.55902 5.46879 4.45786 5.57005C4.35935 5.66847 4.2981 5.80434 4.35404 5.90825L5.51502 8.09709C5.52298 8.11037 5.53104 8.12364 5.53635 8.12904C5.62158 8.21419 5.80533 8.14763 5.89844 8.05443C5.95703 7.99592 5.98377 7.93193 5.94641 7.86803L5.69345 7.41273L6.30329 6.8029L6.75858 7.05595C6.82257 7.09312 6.88638 7.06657 6.94498 7.00798C7.03818 6.91478 7.10208 6.72829 7.0195 6.6458C7.01163 6.63783 7.00092 6.63243 6.98764 6.62446ZM5.49378 7.06923L4.90793 6.01994L5.95712 6.60588L5.49378 7.06923Z" fill="#FFE040"/>
<path d="M8.0392 5.30647L7.38945 5.95621L5.85301 4.41969C5.7784 4.34516 5.65865 4.4011 5.57341 4.48624C5.48561 4.57413 5.43224 4.69132 5.50685 4.76594L7.23766 6.49683C7.30962 6.5687 7.4214 6.53144 7.49868 6.45417L8.34279 5.61005C8.41201 5.54084 8.36943 5.42896 8.29482 5.35444C8.21764 5.27717 8.10851 5.23716 8.0392 5.30647Z" fill="#FFE040"/>
<path d="M9.43178 3.91387L8.67821 4.66744L8.143 4.13222L8.54775 3.72746C8.62227 3.65294 8.58501 3.54637 8.52376 3.48512C8.45189 3.41326 8.34533 3.38671 8.27611 3.45592L7.87136 3.86058L7.3388 3.32802L8.09237 2.57454C8.16158 2.50524 8.12963 2.39345 8.04714 2.31087C7.97518 2.239 7.86339 2.19634 7.78878 2.27086L6.84084 3.21889C6.76366 3.29607 6.72631 3.40795 6.79827 3.47981L8.52651 5.20796C8.59838 5.27992 8.71017 5.24266 8.78744 5.16539L9.73537 4.21746C9.80999 4.14293 9.76732 4.03105 9.69546 3.95918C9.61287 3.8766 9.501 3.84465 9.43178 3.91387Z" fill="#FFE040"/>
<path d="M9.78442 1.88428C9.69186 1.88428 9.60114 1.92181 9.53577 1.98718C9.4704 2.05255 9.43286 2.14328 9.43286 2.23584C9.43286 2.32849 9.4704 2.41895 9.53577 2.48431C9.60114 2.54996 9.69186 2.5874 9.78442 2.5874C9.87698 2.5874 9.96744 2.54996 10.0329 2.48431C10.0984 2.41895 10.136 2.32822 10.136 2.23584C10.136 2.14328 10.0984 2.05255 10.0329 1.98718C9.96744 1.92181 9.87698 1.88428 9.78442 1.88428Z" fill="#FFE040"/>
</g>
<defs>
<clipPath id="clip0_325_259">
<rect width="12" height="12" fill="white"/>
</clipPath>
</defs>
</svg>
