<svg width="16" height="16" viewBox="0 0 16 16" fill="none" xmlns="http://www.w3.org/2000/svg">
<g clip-path="url(#clip0_125_265)">
<path d="M16 7.93732V10.7185C15.967 11.5477 14.7828 11.5471 14.75 10.7185V9.48385L12.761 11.4729C12.6438 11.5901 12.4848 11.656 12.3191 11.656H9.1653L5.00471 15.8166C4.76065 16.0607 4.36491 16.0607 4.12085 15.8166C3.87676 15.5725 3.87676 15.1768 4.12085 14.9327L8.4645 10.5891C8.58169 10.4719 8.74068 10.406 8.90643 10.406H12.0602L13.9039 8.56231H12.5626C11.7334 8.52931 11.734 7.34505 12.5626 7.31234H15.375C15.7202 7.31234 16 7.59214 16 7.93732ZM15.375 12.5935C15.0298 12.5935 14.75 12.8733 14.75 13.2184V15.3746C14.783 16.2039 15.9673 16.2033 16 15.3746V13.2184C16 12.8733 15.7202 12.5935 15.375 12.5935ZM12.8751 12.5935C12.5299 12.5935 12.2501 12.8733 12.2501 13.2184V15.3746C12.2831 16.2039 13.4674 16.2033 13.5001 15.3746V13.2184C13.5001 12.8733 13.2203 12.5935 12.8751 12.5935ZM10.3751 12.5935C10.03 12.5935 9.75016 12.8733 9.75016 13.2184V15.3746C9.78316 16.2039 10.9674 16.2033 11.0001 15.3746V13.2184C11.0001 12.8733 10.7203 12.5935 10.3751 12.5935ZM7.8752 14.4997C7.53002 14.4997 7.25022 14.7795 7.25022 15.1247V15.3746C7.28322 16.2039 8.46747 16.2033 8.50019 15.3746V15.1247C8.50019 14.7795 8.22038 14.4997 7.8752 14.4997ZM6.59398 10.5935C6.93916 10.5935 7.21897 10.3137 7.21897 9.96852V9.58466C9.17817 8.85943 8.70506 5.97734 6.59395 5.93737C5.76297 5.90346 5.767 4.72618 6.59398 4.69187C6.84491 4.69187 7.04525 4.8248 7.14366 5.05664C7.27853 5.37435 7.64546 5.52254 7.9632 5.38769C8.28091 5.25282 8.42913 4.88589 8.29426 4.56815C8.08504 4.07532 7.69633 3.71492 7.21897 3.54708V3.1249C7.18597 2.29567 6.00171 2.2963 5.969 3.1249V3.54896C4.01261 4.27416 4.47919 7.14722 6.59401 7.18731C7.42034 7.22153 7.42559 8.40734 6.59398 8.44175C6.35092 8.44175 6.10987 8.28316 6.00781 8.05607C5.86631 7.74123 5.49635 7.60074 5.18155 7.74223C4.86671 7.88373 4.72618 8.25366 4.86771 8.5685C5.08102 9.04308 5.48982 9.40766 5.969 9.58082V9.96849C5.969 10.3137 6.2488 10.5935 6.59398 10.5935ZM4.43766 12.7333C4.68896 12.7333 4.92599 12.5806 5.02133 12.3319C5.14492 12.0096 4.9838 11.6481 4.6615 11.5246C-0.780032 9.32729 0.681402 1.34782 6.56283 1.24998C9.14933 1.24998 11.3499 3.09581 11.7953 5.63894C11.8548 5.9789 12.1787 6.20627 12.5187 6.14674C12.8587 6.08721 13.086 5.76331 13.0265 5.42332C12.7634 3.92117 11.9748 2.54776 10.8058 1.55613C6.59267 -2.04491 -0.0184562 1.01364 0.000418316 6.56242C-0.0310809 9.23001 1.71941 11.765 4.21404 12.6917C4.28766 12.7199 4.36325 12.7333 4.43766 12.7333Z" fill="white"/>
</g>
<defs>
<clipPath id="clip0_125_265">
<rect width="16" height="16" fill="white"/>
</clipPath>
</defs>
</svg>
