<svg width="16" height="16" viewBox="0 0 16 16" fill="none" xmlns="http://www.w3.org/2000/svg">
<path d="M7.99756 11.2261C7.72156 11.2261 7.49756 11.0021 7.49756 10.7261V6.77734C7.49756 6.50134 7.72156 6.27734 7.99756 6.27734C8.27356 6.27734 8.49756 6.50134 8.49756 6.77734V10.7261C8.49756 11.0023 8.27381 11.2261 7.99756 11.2261Z" fill="white" fill-opacity="0.5"/>
<path d="M7.99756 5.7775C7.86506 5.7775 7.73756 5.725 7.64506 5.63C7.55006 5.5375 7.49756 5.41 7.49756 5.2775C7.49756 5.145 7.55006 5.0175 7.64506 4.925C7.83006 4.7375 8.16506 4.7375 8.35006 4.9225C8.44506 5.0175 8.49756 5.145 8.49756 5.2775C8.49756 5.4075 8.44506 5.5375 8.35006 5.63C8.25756 5.725 8.13006 5.7775 7.99756 5.7775Z" fill="white" fill-opacity="0.5"/>
<path d="M7.9808 14.4993C7.41205 14.4993 6.8483 14.4253 6.30505 14.279C3.96405 13.6493 2.13105 11.71 1.6353 9.33828C1.13005 6.92203 2.06255 4.38203 4.0113 2.86728C5.1378 1.99153 6.55855 1.50903 8.01205 1.50903C9.0183 1.50903 10.0176 1.74303 10.9021 2.18528C13.0863 3.27803 14.4976 5.56103 14.4976 8.00178C14.4976 9.99328 13.5578 11.9128 11.9838 13.1363C10.8533 14.0153 9.43155 14.4993 7.9808 14.4993ZM8.0123 2.50903C6.78005 2.50903 5.57705 2.91653 4.6253 3.65678C2.97605 4.93878 2.18655 7.08853 2.6143 9.13353C3.0338 11.1398 4.58455 12.7805 6.56505 13.3133C7.02355 13.4365 7.50005 13.4993 7.9808 13.4993H7.98105C9.21055 13.4993 10.4141 13.09 11.3703 12.3468C12.7025 11.3113 13.4978 9.68703 13.4978 8.00178C13.4978 5.93653 12.3036 4.00453 10.4551 3.07978C9.70855 2.70653 8.86405 2.50903 8.0123 2.50903Z" fill="white" fill-opacity="0.5"/>
</svg>
