<svg width="16" height="16" viewBox="0 0 16 16" fill="none" xmlns="http://www.w3.org/2000/svg">
<g clip-path="url(#clip0_157_533)">
<path d="M15.8846 3.14355C15.7393 2.97689 15.4972 2.93442 15.3038 3.04174C15.2871 3.05099 15.2703 3.06008 15.2535 3.06896C15.4202 2.79626 15.5499 2.49982 15.6376 2.18625C15.6885 2.00427 15.6252 1.80952 15.4769 1.6923C15.3287 1.5751 15.1246 1.55839 14.9592 1.64983C14.4521 1.93043 13.9146 2.15209 13.3581 2.31044C12.7021 1.71442 11.8384 1.37738 10.9473 1.37738C8.9722 1.37738 7.36538 2.98421 7.36538 4.95923C7.36538 5.02854 7.36738 5.09783 7.37135 5.16692C5.15551 5.0136 3.14526 3.92514 1.79313 2.12803C1.71166 2.01674 1.58406 1.94571 1.44356 1.93711C1.27493 1.92677 1.11368 2.00805 1.0217 2.14984C0.653539 2.71726 0.458908 3.37612 0.458908 4.0552C0.458908 4.67891 0.625444 5.27961 0.926484 5.80269C0.868857 5.80297 0.810762 5.81388 0.755198 5.836C0.581193 5.90535 0.46519 6.07163 0.460158 6.25886C0.459314 6.29026 0.458877 6.3217 0.458877 6.3533C0.458877 7.45886 0.972579 8.45976 1.79163 9.10644C1.74038 9.20931 1.72794 9.32907 1.75998 9.44276C1.96251 10.1612 2.40124 10.8091 2.99529 11.2671C3.23617 11.4527 3.49577 11.6043 3.76919 11.7202C2.8136 12.135 1.77894 12.3508 0.722165 12.3508C0.641788 12.3508 0.561349 12.3496 0.483096 12.3472C0.271434 12.3415 0.0819605 12.4768 0.0203338 12.6793C-0.0412617 12.8818 0.0404593 13.1004 0.219745 13.2128C1.69032 14.1352 3.38946 14.6227 5.13347 14.6227C7.60682 14.6227 9.93217 13.6595 11.6811 11.9106C13.4301 10.1616 14.3933 7.83628 14.3933 5.3629C14.3933 5.34011 14.3932 5.3173 14.393 5.29443C14.9612 4.83982 15.4694 4.3154 15.9063 3.73282C16.039 3.55588 16.0299 3.31025 15.8846 3.14355ZM13.6371 4.69475C13.5109 4.79004 13.4442 4.93963 13.4514 5.09101C13.4543 5.18145 13.4558 5.27289 13.4558 5.36293C13.4558 9.95183 9.72241 13.6852 5.1335 13.6852C4.12957 13.6852 3.14223 13.5055 2.21505 13.1587C3.33746 12.9618 4.4107 12.5431 5.37632 11.9198C5.5507 11.8072 5.6303 11.5934 5.57199 11.3942C5.5137 11.1951 5.33138 11.0579 5.12385 11.0571C4.23342 11.0538 3.42105 10.5844 2.96066 9.85699C3.14295 9.85274 3.32536 9.83436 3.50409 9.8022C3.72731 9.76201 3.88975 9.56776 3.88978 9.34094C3.88981 9.11412 3.72747 8.91981 3.50424 8.87955C2.51106 8.70039 1.73935 7.9644 1.48566 7.027C1.80707 7.12351 2.14258 7.17382 2.48193 7.1751H2.48374C2.69666 7.1751 2.88297 7.0315 2.9371 6.82544C2.99138 6.61877 2.89904 6.40155 2.71253 6.29723C1.9007 5.84316 1.3964 4.98404 1.3964 4.05517C1.3964 3.78582 1.43812 3.52091 1.51916 3.26868C2.22421 4.05261 3.07382 4.70825 4.00957 5.18645C5.22498 5.80753 6.53789 6.12267 7.91189 6.12314H7.91205C8.05468 6.12314 8.18953 6.0582 8.2785 5.94669C8.3675 5.83516 8.40084 5.68915 8.36906 5.55006C8.32515 5.35758 8.30287 5.1588 8.30287 4.95917C8.30287 3.50106 9.48912 2.31484 10.9472 2.31484C11.6867 2.31484 12.3724 2.61232 12.8781 3.15246C12.9942 3.2764 13.1682 3.32793 13.3331 3.28709C13.5793 3.22602 13.8227 3.15402 14.0622 3.0714C13.9265 3.20459 13.7751 3.32346 13.6101 3.4255C13.4367 3.53275 13.3525 3.73976 13.4018 3.93758C13.4512 4.13542 13.6227 4.27868 13.8261 4.29196C13.9292 4.29868 14.0237 4.30099 14.1187 4.29943C13.9637 4.43746 13.8031 4.56934 13.6371 4.69475Z" fill="white"/>
</g>
<defs>
<clipPath id="clip0_157_533">
<rect width="16" height="16" fill="white"/>
</clipPath>
</defs>
</svg>
