<svg width="16" height="9" viewBox="0 0 16 9" fill="none" xmlns="http://www.w3.org/2000/svg">
<path fill-rule="evenodd" clip-rule="evenodd" d="M0.180771 0.188815C0.237928 0.128963 0.305829 0.0814771 0.380583 0.0490771C0.455338 0.0166771 0.535478 0 0.616412 0C0.697347 0 0.777487 0.0166771 0.852242 0.0490771C0.926996 0.0814771 0.994897 0.128963 1.05205 0.188815L8.00016 7.44739L14.9483 0.188815C15.0055 0.12906 15.0734 0.0816596 15.1481 0.0493204C15.2229 0.0169813 15.303 0.000336493 15.3839 0.000336493C15.4648 0.000336493 15.5449 0.0169813 15.6197 0.0493204C15.6944 0.0816596 15.7623 0.12906 15.8196 0.188815C15.8768 0.24857 15.9221 0.319509 15.9531 0.397583C15.9841 0.475656 16 0.559335 16 0.643842C16 0.728348 15.9841 0.812027 15.9531 0.890101C15.9221 0.968174 15.8768 1.03911 15.8196 1.09887L8.4358 8.81119C8.37865 8.87104 8.31074 8.91852 8.23599 8.95092C8.16124 8.98332 8.0811 9 8.00016 9C7.91923 9 7.83909 8.98332 7.76433 8.95092C7.68958 8.91852 7.62168 8.87104 7.56452 8.81119L0.180771 1.09887C0.123469 1.03917 0.0780066 0.968246 0.0469869 0.890165C0.0159672 0.812084 0 0.728378 0 0.643842C0 0.559305 0.0159672 0.475599 0.0469869 0.397518C0.0780066 0.319437 0.123469 0.248516 0.180771 0.188815Z" fill="#333333"/>
</svg>
