<svg width="1920" height="882" viewBox="0 0 1920 882" fill="none" xmlns="http://www.w3.org/2000/svg">
<g clip-path="url(#clip0_525_5432)">
<path d="M-89.1207 262.549C1.24561 251.99 47.7145 151.437 59.6532 102.481C64.4564 84.0225 81.8491 39.5651 112.994 9.40056C117.369 5.16269 122.631 0.305648 128.58 -4.99992M-126.126 410.401C-77.946 396.291 50.2437 377.923 70.5 244C78.8559 202.437 66.9006 129.294 136.5 73.0001C165.211 49.7777 200.999 35.3715 244.157 -0.761545C245.868 -2.19431 247.536 -3.60685 249.164 -4.99992M-70.6935 500.39C64.6728 500.576 90.1516 381.191 115.109 312.547C140.067 243.903 176.516 139.679 230.089 107.065C272.374 81.3231 327.809 53.4539 386.268 -5.49992M-177.923 679.477C-163.354 672.122 -101.548 656.126 29.1307 650.982C192.48 644.553 298.122 422.005 376.183 188.252C409.097 89.6906 459.794 29.5163 508.5 -5.50741M-83.0346 904.278C-68.0451 875.543 10.4331 798.127 204.43 718.343C398.427 638.559 472.503 501.207 479 416.5C482.451 371.508 486.711 277.976 534.5 196C582.289 114.024 606.932 27.2877 613 -5.49994M351.579 870.605C413.594 835.855 553.258 706.082 615.79 464.993C678.322 223.904 784.818 65.6156 845.5 -5.49995" stroke="white" stroke-opacity="0.32"/>
</g>
<defs>
<clipPath id="clip0_525_5432">
<rect width="1920" height="882" fill="white"/>
</clipPath>
</defs>
</svg>
