<svg width="70" height="70" viewBox="0 0 70 70" fill="none" xmlns="http://www.w3.org/2000/svg">
<g clip-path="url(#clip0_25_342)">
<path d="M69.9332 68.6104L59.6793 41.5989C59.5941 41.3746 59.4329 41.1873 59.224 41.0695L48.3021 34.9164L51.4908 29.8605C53.4478 26.7551 54.4823 23.1664 54.4823 19.4824C54.4823 8.73973 45.7426 0 35 0C24.2573 0 15.5176 8.73973 15.5176 19.4824C15.5176 23.1674 16.5525 26.7562 18.5106 29.8608C18.563 29.9441 21.6985 34.9167 21.6985 34.9167L10.7762 41.0695C10.5671 41.1873 10.4059 41.3746 10.3208 41.5989L0.0668769 68.6104C-0.0863846 69.014 0.0296894 69.4704 0.356857 69.7519C0.684434 70.0335 1.1527 70.0798 1.52881 69.8678L18.0127 60.5811L34.4966 69.8678C34.809 70.0437 35.1908 70.0437 35.5032 69.8678L51.9871 60.5811L68.471 69.8678C68.6282 69.9564 68.8017 69.9999 68.9742 69.9999C69.2143 69.9999 69.4525 69.9158 69.6431 69.752C69.9705 69.4704 70.0864 69.014 69.9332 68.6104ZM36.0255 53.144C36.667 52.9176 37.2231 52.4814 37.6006 51.8838C37.6527 51.8018 46.3819 37.9613 46.3819 37.9613L50.8279 58.8803L36.0255 67.2196V53.144ZM20.2453 28.7667C18.4941 25.9899 17.5685 22.7795 17.5685 19.4822C17.5685 9.87039 25.3882 2.05064 35.0001 2.05064C44.6119 2.05064 52.4317 9.87039 52.4317 19.4822C52.4317 22.7788 51.5064 25.9895 49.7563 28.7667C49.6194 28.9836 36.1086 50.4091 35.8729 50.7792C35.8707 50.7823 35.8688 50.7856 35.8667 50.7887C35.6766 51.0895 35.3527 51.2693 35.0001 51.2693C34.6472 51.2693 34.3218 51.0887 34.1314 50.7893C33.9944 50.572 20.4567 29.1042 20.2499 28.7742C20.2484 28.7717 20.2468 28.7693 20.2453 28.7667ZM12.1062 42.6739L21.665 37.289L19.9997 45.1235C19.882 45.6775 20.2356 46.2219 20.7894 46.3398C20.8613 46.3551 20.9331 46.3625 21.0037 46.3625C21.4774 46.3625 21.9031 46.032 22.0055 45.5501L23.6184 37.9619L32.3986 51.8866C32.7775 52.4825 33.334 52.9177 33.9744 53.1438V67.2198L19.1723 58.8804L21.153 49.5618C21.2707 49.0078 20.9171 48.4634 20.3633 48.3456C19.8088 48.2272 19.2647 48.5815 19.147 49.1353L17.106 58.7378L2.98896 66.6913L12.1062 42.6739ZM52.8941 58.7379L48.3355 37.2889L57.8939 42.6739L67.0112 66.6913L52.8941 58.7379Z" fill="#CC8916"/>
<path d="M46.2794 19.4824C46.2794 13.2631 41.2195 8.20312 35.0001 8.20312C28.7808 8.20312 23.7208 13.2631 23.7208 19.4824C23.7208 25.7018 28.7808 30.7617 35.0001 30.7617C41.2195 30.7617 46.2794 25.7018 46.2794 19.4824ZM25.7716 19.4824C25.7716 14.3937 29.9114 10.2539 35.0001 10.2539C40.0888 10.2539 44.2286 14.3937 44.2286 19.4824C44.2286 24.5711 40.0888 28.7109 35.0001 28.7109C29.9114 28.7109 25.7716 24.5711 25.7716 19.4824Z" fill="#CC8916"/>
<path d="M42.1779 19.4824C42.1779 15.5247 38.9579 12.3047 35.0001 12.3047C31.0424 12.3047 27.8224 15.5247 27.8224 19.4824C27.8224 23.4402 31.0424 26.6602 35.0001 26.6602C38.9579 26.6602 42.1779 23.4402 42.1779 19.4824ZM29.8732 19.4824C29.8732 16.6554 32.1731 14.3555 35.0001 14.3555C37.8272 14.3555 40.1271 16.6554 40.1271 19.4824C40.1271 22.3095 37.8272 24.6094 35.0001 24.6094C32.1731 24.6094 29.8732 22.3095 29.8732 19.4824Z" fill="#CC8916"/>
</g>
<defs>
<clipPath id="clip0_25_342">
<rect width="70" height="70" fill="white"/>
</clipPath>
</defs>
</svg>
