<svg width="30" height="30" viewBox="0 0 30 30" fill="none" xmlns="http://www.w3.org/2000/svg">
<g clip-path="url(#clip0_341_2077)">
<path d="M13.1719 17.0859C13.1719 17.4096 12.9096 17.6719 12.5859 17.6719C12.2623 17.6719 12 17.4096 12 17.0859C12 16.7625 12.2623 16.5 12.5859 16.5C12.9096 16.5 13.1719 16.7625 13.1719 17.0859Z" fill="white"/>
<path d="M18.7072 29.1786C21.8158 30.7007 25.5555 30.0674 28.0136 27.6114L29.4251 26.2012C30.1915 25.4363 30.1917 24.1971 29.4253 23.4317L23.9715 17.9832C23.2064 17.2178 21.9659 17.2167 21.2 17.983L18.8827 20.2985C18.4288 20.752 17.7283 20.8444 17.2174 20.5186C16.3843 19.9865 15.5739 19.3998 14.8088 18.7748C14.5168 18.5363 14.087 18.5795 13.8483 18.871C13.6096 19.1627 13.6528 19.5925 13.9446 19.8306C14.7507 20.4893 15.6043 21.1074 16.4824 21.6679C17.5291 22.3359 18.9446 22.1656 19.848 21.263L22.1659 18.9472C22.3976 18.7154 22.7731 18.7148 23.0059 18.9474L28.46 24.3962C28.6923 24.6285 28.6928 25.0042 28.46 25.2362L27.0483 26.647C25.0005 28.6929 21.8902 29.218 19.308 27.9538C9.84858 23.3193 4.70193 15.9706 2.0502 10.6218C0.781674 8.06383 1.30834 4.96793 3.36087 2.91776L4.74166 1.53846C4.97313 1.30667 5.34886 1.30587 5.58139 1.53873L11.036 6.98825C11.267 7.21872 11.2694 7.59438 11.0355 7.8275L8.71819 10.143C7.81472 11.0457 7.64432 12.4599 8.31285 13.5059C8.70672 14.1216 9.13125 14.7291 9.57499 15.3112C9.80325 15.6109 10.2315 15.6688 10.5315 15.4407C10.8315 15.2126 10.8896 14.7848 10.6611 14.4848C10.2403 13.9324 9.83712 13.3559 9.46325 12.7716C9.13712 12.2609 9.22965 11.561 9.68352 11.1075L12.0006 8.79251C12.7667 8.02813 12.7675 6.78843 12.0011 6.02352L6.54699 0.57452C5.78219 -0.190929 4.5414 -0.191995 3.7758 0.574254L2.39554 1.95329C-0.0716574 4.41749 -0.702056 8.14456 0.82674 11.2274C3.5726 16.7657 8.90325 24.3754 18.7072 29.1786V29.1786Z" fill="white"/>
</g>
<defs>
<clipPath id="clip0_341_2077">
<rect width="30" height="30" fill="white"/>
</clipPath>
</defs>
</svg>
