<svg width="16" height="9" viewBox="0 0 16 9" fill="none" xmlns="http://www.w3.org/2000/svg">
<path fill-rule="evenodd" clip-rule="evenodd" d="M15.8192 8.81119C15.7621 8.87104 15.6942 8.91852 15.6194 8.95092C15.5447 8.98332 15.4645 9 15.3836 9C15.3027 9 15.2225 8.98332 15.1478 8.95092C15.073 8.91852 15.0051 8.87104 14.9479 8.81119L7.99984 1.55261L1.05173 8.81119C0.994521 8.87094 0.926604 8.91834 0.851857 8.95068C0.77711 8.98302 0.696995 8.99966 0.616089 8.99966C0.535183 8.99966 0.45507 8.98302 0.380322 8.95068C0.305574 8.91834 0.237657 8.87094 0.180448 8.81119C0.123238 8.75143 0.077857 8.68049 0.046896 8.60242C0.0159349 8.52434 0 8.44066 0 8.35616C0 8.27165 0.0159349 8.18797 0.046896 8.1099C0.077857 8.03183 0.123238 7.96089 0.180448 7.90113L7.5642 0.188814C7.62135 0.128963 7.68926 0.0814772 7.76401 0.049077C7.83876 0.0166779 7.9189 0 7.99984 0C8.08077 0 8.16091 0.0166779 8.23567 0.049077C8.31042 0.0814772 8.37832 0.128963 8.43548 0.188814L15.8192 7.90113C15.8765 7.96083 15.922 8.03175 15.953 8.10984C15.984 8.18792 16 8.27162 16 8.35616C16 8.44069 15.984 8.5244 15.953 8.60248C15.922 8.68056 15.8765 8.75148 15.8192 8.81119Z" fill="#333333"/>
</svg>
