<svg width="23" height="26" viewBox="0 0 23 26" fill="none" xmlns="http://www.w3.org/2000/svg">
<path d="M0.807612 22.1924C2.31931 23.7041 4.18049 24.8196 6.2263 25.4402C8.27211 26.0608 10.4394 26.1673 12.5362 25.7502C14.633 25.3331 16.5945 24.4054 18.2471 23.0491C19.8997 21.6929 21.1923 19.95 22.0104 17.9749C22.8286 15.9998 23.1469 13.8533 22.9374 11.7258C22.7279 9.59821 21.9968 7.55515 20.8091 5.77759C19.6214 4.00002 18.0136 2.5428 16.1282 1.53502C14.2427 0.527243 12.1379 0 10 0V1.99444C11.8099 1.99444 13.5918 2.4408 15.188 3.29397C16.7841 4.14713 18.1453 5.38078 19.1508 6.88564C20.1563 8.3905 20.7752 10.1201 20.9526 11.9213C21.13 13.7224 20.8604 15.5395 20.1678 17.2116C19.4752 18.8837 18.3809 20.3592 16.9819 21.5074C15.5828 22.6556 13.9222 23.441 12.1471 23.7941C10.372 24.1472 8.5372 24.057 6.80526 23.5317C5.07331 23.0063 3.49767 22.0619 2.2179 20.7821L0.807612 22.1924Z" fill="white"/>
</svg>
