<svg width="70" height="70" viewBox="0 0 70 70" fill="none" xmlns="http://www.w3.org/2000/svg">
<g clip-path="url(#clip0_25_313)">
<path d="M39.8455 0C39.0903 0 38.4783 0.61203 38.4783 1.36719C38.4783 2.12234 39.0903 2.73438 39.8455 2.73438C54.9652 2.73438 67.2656 15.0353 67.2656 30.1545C67.2656 30.9097 67.8781 31.5217 68.6328 31.5217C69.3879 31.5217 70 30.9097 70 30.1545C70 13.5277 56.4728 0 39.8455 0Z" fill="#CC8916"/>
<path d="M60.4083 31.5223C61.1634 31.5223 61.7755 30.9098 61.7755 30.1552C61.7755 18.0625 51.9376 8.22461 39.8455 8.22461C39.0903 8.22461 38.4783 8.83717 38.4783 9.5918C38.4783 10.347 39.0903 10.959 39.8455 10.959C50.4299 10.959 59.0411 19.5701 59.0411 30.1552C59.0411 30.9098 59.6531 31.5223 60.4083 31.5223Z" fill="#CC8916"/>
<path d="M50.815 30.1551C50.815 30.9097 51.427 31.5223 52.1822 31.5223C52.9373 31.5223 53.5494 30.9097 53.5494 30.1551C53.5494 22.5987 47.4018 16.4512 39.8455 16.4512C39.0903 16.4512 38.4783 17.0632 38.4783 17.8178C38.4783 18.573 39.0903 19.185 39.8455 19.185C45.8942 19.185 50.815 24.1058 50.815 30.1551Z" fill="#CC8916"/>
<path d="M38.4783 26.043C38.4783 26.7976 39.0903 27.4096 39.8455 27.4096C41.359 27.4096 42.5905 28.6412 42.5905 30.1552C42.5905 30.9098 43.2025 31.5224 43.9577 31.5224C44.7123 31.5224 45.3249 30.9098 45.3249 30.1552C45.3249 27.1335 42.8666 24.6758 39.8455 24.6758C39.0903 24.6758 38.4783 25.2878 38.4783 26.043Z" fill="#CC8916"/>
<path d="M25.6257 44.3896C25.6257 45.1448 25.0137 45.7568 24.2585 45.7568C23.5033 45.7568 22.8913 45.1448 22.8913 44.3896C22.8913 43.635 23.5033 43.0225 24.2585 43.0225C25.0137 43.0225 25.6257 43.635 25.6257 44.3896Z" fill="#CC8916"/>
<path d="M37.4652 68.3401C43.6907 71.3912 51.1803 70.1218 56.1033 65.1988L58.93 62.3721C60.4649 60.8388 60.4655 58.3549 58.9306 56.8205L48.008 45.899C46.4758 44.3647 43.9914 44.3626 42.4576 45.8985L37.8166 50.54C36.9076 51.449 35.5047 51.6343 34.4814 50.9811C32.813 49.9146 31.19 48.7386 29.6578 47.4857C29.073 47.0078 28.2121 47.0943 27.7341 47.6785C27.2562 48.2633 27.3427 49.1248 27.9269 49.6022C29.5414 50.9224 31.2509 52.1614 33.0096 53.2851C35.1057 54.6239 37.9405 54.2827 39.7499 52.4733L44.3919 47.8313C44.856 47.3666 45.608 47.3656 46.0742 47.8318L56.9973 58.7538C57.4625 59.2195 57.4635 59.9725 56.9973 60.4377L54.17 63.2655C50.069 67.3666 43.8397 68.4192 38.6684 65.8851C19.7238 56.5952 9.4165 41.8648 4.10583 31.143C1.56532 26.0156 2.62009 19.8098 6.73073 15.7002L9.49608 12.9354C9.95964 12.4708 10.7121 12.4692 11.1778 12.9359L22.102 23.8596C22.5645 24.3215 22.5693 25.0745 22.1009 25.5418L17.4599 30.1833C15.6506 31.9927 15.3093 34.8275 16.6482 36.9242C17.437 38.1584 18.2872 39.3761 19.1759 40.543C19.633 41.1438 20.4907 41.2597 21.0915 40.8025C21.6924 40.3454 21.8088 39.4877 21.3511 38.8863C20.5083 37.7792 19.7009 36.6235 18.9521 35.4523C18.299 34.4286 18.4843 33.0256 19.3932 32.1166L24.0337 27.4762C25.568 25.944 25.5696 23.459 24.0347 21.9257L13.1116 11.0032C11.58 9.46884 9.095 9.46671 7.56172 11.0027L4.79744 13.7669C-0.143662 18.7064 -1.40617 26.1774 1.65558 32.357C7.15477 43.4584 17.8306 58.7122 37.4652 68.3401Z" fill="#CC8916"/>
</g>
<defs>
<clipPath id="clip0_25_313">
<rect width="70" height="70" fill="white"/>
</clipPath>
</defs>
</svg>
