<svg width="121" height="24" viewBox="0 0 121 24" fill="none" xmlns="http://www.w3.org/2000/svg">
<path d="M2.73926 3.47363L0.102539 1.45215H7.03125C9.42383 1.45215 11.0449 1.5498 11.8945 1.74512C13.1738 2.03809 14.2139 2.66797 15.0146 3.63477C15.8154 4.5918 16.2158 5.77344 16.2158 7.17969C16.2158 8.35156 15.9375 9.38184 15.3809 10.2705C14.834 11.1592 14.0479 11.833 13.0225 12.292C11.9971 12.7412 10.5811 12.9707 8.77441 12.9805L15.0732 21.1104L18.5596 23.1025L11.2354 23L12.5977 21.3447L6.12305 12.9805H4.89258L4.98047 21.1982L7.20703 23H0.424805L2.65137 21.1982L2.73926 3.47363ZM4.89258 3.56152V10.8857L8.59863 10.915C10.0342 10.915 11.0938 10.7783 11.7773 10.5049C12.4707 10.2314 13.0078 9.79688 13.3887 9.20117C13.7793 8.5957 13.9746 7.92188 13.9746 7.17969C13.9746 6.45703 13.7793 5.80273 13.3887 5.2168C12.998 4.62109 12.4854 4.19629 11.8506 3.94238C11.2158 3.68848 10.1611 3.56152 8.68652 3.56152H4.89258Z" fill="white"/>
<path d="M35.9912 6.65234L38.8037 6.22754L36.3867 8.5127V21.374L37.7344 23.0879L32.915 23L34.3652 21.418V20.2607C33.5059 21.3057 32.5391 22.0918 31.4648 22.6191C30.4004 23.1465 29.2334 23.4102 27.9639 23.4102C25.708 23.4102 23.7793 22.5947 22.1777 20.9639C20.5859 19.3232 19.79 17.3311 19.79 14.9873C19.79 12.6924 20.5957 10.7295 22.207 9.09863C23.8184 7.46777 25.7568 6.65234 28.0225 6.65234C29.3311 6.65234 31.4893 6.92578 34.4971 7.47266L35.9912 6.65234ZM28.1836 8.62988C27.041 8.62988 25.9863 8.91309 25.0195 9.47949C24.0527 10.0361 23.2812 10.8223 22.7051 11.8379C22.1387 12.8535 21.8555 13.9277 21.8555 15.0605C21.8555 16.1836 22.1436 17.2578 22.7197 18.2832C23.2959 19.3086 24.0674 20.1094 25.0342 20.6855C26.0107 21.252 27.0557 21.5352 28.1689 21.5352C29.292 21.5352 30.3564 21.252 31.3623 20.6855C32.3682 20.1191 33.1396 19.3525 33.6768 18.3857C34.2236 17.4189 34.4678 14.4453 34.4092 9.46484L28.1836 8.62988Z" fill="white"/>
<path d="M49.2773 6.5498L49.1895 11.1787C48.0176 10.3291 47.3389 9.82617 47.1533 9.66992C46.2549 8.9375 45.3711 8.57129 44.502 8.57129C43.8379 8.57129 43.2666 8.79102 42.7881 9.23047C42.3193 9.66992 42.085 10.1826 42.085 10.7686C42.085 11.2861 42.2803 11.7793 42.6709 12.248C43.0615 12.7266 43.8818 13.2881 45.1318 13.9326C46.6553 14.7236 47.6904 15.4854 48.2373 16.2178C48.7744 16.96 49.043 17.7949 49.043 18.7227C49.043 20.0312 48.584 21.1396 47.666 22.0479C46.748 22.9561 45.6006 23.4102 44.2236 23.4102C43.3057 23.4102 42.4463 23.2637 41.6455 22.9707C40.8545 22.668 40.6445 22.5264 41.0156 22.5459C40.0391 22.4873 39.6387 22.6973 39.8145 23.1758V18.5469L40.6348 20.2754C41.7969 21.0664 42.9639 21.4619 44.1357 21.4619C44.9561 21.4619 45.6543 21.1982 46.2305 20.6709C46.8066 20.1436 47.0947 19.5234 47.0947 18.8105C47.0947 18.2246 46.9043 17.7021 46.5234 17.2432C46.1426 16.7939 45.2832 16.2275 43.9453 15.5439C42.5098 14.8018 41.5332 14.0693 41.0156 13.3467C40.498 12.624 40.2393 11.7988 40.2393 10.8711C40.2393 9.66016 40.6494 8.6543 41.4697 7.85352C42.2998 7.05273 43.3447 6.65234 44.6045 6.65234C46.167 6.65234 47.207 7.04297 47.7246 7.82422C48.5156 8.05859 49.0332 7.63379 49.2773 6.5498Z" fill="white"/>
<path d="M53.3936 0.5C53.8623 0.5 54.2627 0.666016 54.5947 0.998047C54.9268 1.33008 55.0928 1.73047 55.0928 2.19922C55.0928 2.6582 54.9268 3.05371 54.5947 3.38574C54.2627 3.71777 53.8623 3.88379 53.3936 3.88379C52.9346 3.88379 52.5391 3.71777 52.207 3.38574C51.875 3.05371 51.709 2.6582 51.709 2.19922C51.709 1.73047 51.875 1.33008 52.207 0.998047C52.5391 0.666016 52.9346 0.5 53.3936 0.5ZM52.3682 8.79102L51.0205 7.15039L55.6641 7.0625L54.3896 8.87891V21.3594L55.6641 23L51.0205 23.0879L52.3682 21.3594V8.79102Z" fill="white"/>
<path d="M58.667 9.64062H56.4844L60.7031 7.0625V9.81641C61.416 8.80078 62.1484 8.05859 62.9004 7.58984C63.9355 6.96484 65.0244 6.65234 66.167 6.65234C66.9385 6.65234 67.6709 6.80371 68.3643 7.10645C69.0576 7.40918 69.624 7.81445 70.0635 8.32227C70.5029 8.82031 70.8838 9.53809 71.2061 10.4756C71.8896 9.22559 72.7441 8.27832 73.7695 7.63379C74.7949 6.97949 75.8984 6.65234 77.0801 6.65234C78.1836 6.65234 79.1553 6.93066 79.9951 7.4873C80.8447 8.04395 81.4746 8.82031 81.8848 9.81641C82.2949 10.8125 82.5 12.3066 82.5 14.2988V21.2715L83.9355 23L78.7646 23.0293L80.4053 21.3008V14.2988C80.4053 12.5898 80.2832 11.418 80.0391 10.7832C79.7949 10.1387 79.375 9.62109 78.7793 9.23047C78.1934 8.83984 77.4902 8.64453 76.6699 8.64453C75.6738 8.64453 74.7607 8.9375 73.9307 9.52344C73.1104 10.1094 72.5098 10.8906 72.1289 11.8672C71.748 12.8438 71.5576 14.4746 71.5576 16.7598V21.374L72.9932 23L67.8809 23.0293L69.5215 21.3008V14.8408C69.5215 12.917 69.3994 11.6133 69.1553 10.9297C68.9209 10.2363 68.5059 9.68457 67.9102 9.27441C67.3145 8.85449 66.6064 8.64453 65.7861 8.64453C64.8389 8.64453 63.9502 8.93262 63.1201 9.50879C62.2998 10.0752 61.6895 10.8418 61.2891 11.8086C60.8984 12.7754 60.7031 14.2549 60.7031 16.2471V21.3594L62.1387 23L57.0264 23.0293L58.667 21.3008V9.64062Z" fill="white"/>
<path d="M89.0918 19.7773C89.5898 19.7773 90.0146 19.9531 90.3662 20.3047C90.7178 20.6562 90.8936 21.0859 90.8936 21.5938C90.8936 22.0918 90.7178 22.5215 90.3662 22.8828C90.0146 23.2344 89.5898 23.4102 89.0918 23.4102C88.5938 23.4102 88.1689 23.2344 87.8174 22.8828C87.4658 22.5215 87.29 22.0918 87.29 21.5938C87.29 21.0859 87.4658 20.6562 87.8174 20.3047C88.1689 19.9531 88.5938 19.7773 89.0918 19.7773Z" fill="white"/>
<path d="M95.332 3.63477L93.501 3.72266L97.1484 0.0898438L97.207 2.46289V13.4785L103.066 8.38086L102.554 7.0625H107.593L105.938 8.49805L98.8477 14.665L106.948 21.9307L108.149 23H103.228L104.136 22.0186L97.207 15.8369V21.8281L98.7158 23H94.0576L95.1416 21.7256L95.332 3.63477Z" fill="white"/>
<path d="M108.882 7.0625H120.615L111.592 21.1836H118.418L120.249 19.1768L120.337 22.8975L108.062 23L117.085 8.86426H110.625L108.691 10.2998L108.882 7.0625Z" fill="white"/>
</svg>
