<svg width="18" height="18" viewBox="0 0 24 24" fill="none" xmlns="http://www.w3.org/2000/svg">
<g clip-path="url(#clip0_130_2301)">
<path d="M1.17185 24C0.940043 24 0.713431 23.9313 0.520677 23.8026C0.327923 23.6738 0.177687 23.4908 0.0889723 23.2766C0.000257852 23.0625 -0.0229496 22.8268 0.0222856 22.5994C0.0675207 22.3721 0.179166 22.1633 0.3431 21.9994L21.9993 0.343127C22.2191 0.123329 22.5173 -0.000152588 22.8281 -0.000152588C23.1389 -0.000152588 23.4371 0.123329 23.6568 0.343127C23.8766 0.562925 24.0001 0.861035 24.0001 1.17188C24.0001 1.48272 23.8766 1.78083 23.6568 2.00063L2.0006 23.6569C1.89187 23.7658 1.76268 23.8522 1.62046 23.9111C1.47823 23.97 1.32578 24.0002 1.17185 24Z" fill="#BDBDBD"/>
<path d="M22.8282 24C22.6742 24.0002 22.5218 23.97 22.3796 23.9111C22.2373 23.8522 22.1081 23.7658 21.9994 23.6569L0.343157 2.00063C0.123359 1.78083 -0.00012207 1.48272 -0.00012207 1.17188C-0.00012207 0.861035 0.123359 0.562925 0.343157 0.343127C0.562956 0.123329 0.861066 -0.000152588 1.17191 -0.000152588C1.48275 -0.000152588 1.78086 0.123329 2.00066 0.343127L23.6569 21.9994C23.8208 22.1633 23.9325 22.3721 23.9777 22.5994C24.023 22.8268 23.9997 23.0625 23.911 23.2766C23.8223 23.4908 23.6721 23.6738 23.4793 23.8026C23.2866 23.9313 23.06 24 22.8282 24Z" fill="#BDBDBD"/>
</g>
<defs>
<clipPath id="clip0_130_2301">
<rect width="24" height="24" fill="white"/>
</clipPath>
</defs>
</svg>
