<svg width="16" height="16" viewBox="0 0 16 16" fill="none" xmlns="http://www.w3.org/2000/svg">
<g clip-path="url(#clip0_30_580)">
<path d="M0.5 2.82065H8.11266C8.34209 3.865 9.27472 4.64903 10.387 4.64903C11.4992 4.64903 12.4318 3.86503 12.6613 2.82065H15.5C15.7761 2.82065 16 2.59678 16 2.32065C16 2.04453 15.7761 1.82065 15.5 1.82065H12.661C12.4312 0.776841 11.4972 -0.00769043 10.387 -0.00769043C9.27609 -0.00769043 8.34262 0.776716 8.11284 1.82065H0.5C0.223875 1.82065 0 2.04453 0 2.32065C0 2.59678 0.223875 2.82065 0.5 2.82065ZM9.05866 2.32197C9.05866 2.32018 9.05869 2.31837 9.05869 2.31659C9.06087 1.58637 9.65672 0.992341 10.387 0.992341C11.1162 0.992341 11.7121 1.58556 11.7152 2.31543L11.7153 2.32278C11.7142 3.05425 11.1187 3.64906 10.387 3.64906C9.65553 3.64906 9.06028 3.05484 9.05863 2.32381L9.05866 2.32197ZM15.5 13.1794H12.661C12.4311 12.1357 11.4972 11.3511 10.387 11.3511C9.27609 11.3511 8.34262 12.1355 8.11284 13.1794H0.5C0.223875 13.1794 0 13.4033 0 13.6794C0 13.9556 0.223875 14.1794 0.5 14.1794H8.11266C8.34209 15.2238 9.27472 16.0078 10.387 16.0078C11.4992 16.0078 12.4318 15.2238 12.6613 14.1794H15.5C15.7761 14.1794 16 13.9556 16 13.6794C16 13.4033 15.7761 13.1794 15.5 13.1794ZM10.387 15.0078C9.65553 15.0078 9.06028 14.4136 9.05863 13.6826L9.05866 13.6807C9.05866 13.6789 9.05869 13.6772 9.05869 13.6754C9.06087 12.9452 9.65672 12.3511 10.387 12.3511C11.1162 12.3511 11.7121 12.9443 11.7152 13.6742L11.7153 13.6815C11.7143 14.4131 11.1188 15.0078 10.387 15.0078ZM15.5 7.50006H7.88734C7.65791 6.45572 6.72528 5.67172 5.61303 5.67172C4.50078 5.67172 3.56816 6.45572 3.33872 7.50006H0.5C0.223875 7.50006 0 7.72393 0 8.00006C0 8.27622 0.223875 8.50006 0.5 8.50006H3.33897C3.56888 9.54384 4.50275 10.3284 5.61303 10.3284C6.72391 10.3284 7.65738 9.54397 7.88716 8.50006H15.5C15.7761 8.50006 16 8.27622 16 8.00006C16 7.72393 15.7761 7.50006 15.5 7.50006ZM6.94134 7.99875C6.94134 8.00056 6.94131 8.00234 6.94131 8.00412C6.93912 8.73434 6.34328 9.32837 5.61303 9.32837C4.88381 9.32837 4.28794 8.73515 4.28478 8.00531L4.28469 7.998C4.28578 7.26643 4.88125 6.67172 5.61303 6.67172C6.34447 6.67172 6.93972 7.2659 6.94137 7.99697L6.94134 7.99875Z" fill="white"/>
</g>
<defs>
<clipPath id="clip0_30_580">
<rect width="16" height="16" fill="white"/>
</clipPath>
</defs>
</svg>
