<svg width="170" height="378" viewBox="0 0 170 378" fill="none" xmlns="http://www.w3.org/2000/svg">
<rect width="170" height="378" rx="85" fill="url(#paint0_linear_161_443)"/>
<g clip-path="url(#clip0_161_443)">
<path d="M107.721 239C107.021 239 106.304 238.912 105.596 238.725L41.1667 221.471C36.75 220.254 34.1167 215.679 35.275 211.262L43.4042 180.962C43.7042 179.85 44.8458 179.204 45.9542 179.487C47.0667 179.783 47.725 180.929 47.4292 182.037L39.3042 212.329C38.725 214.537 40.05 216.837 42.2625 217.45L106.667 234.696C108.879 235.279 111.163 233.962 111.738 231.762L114.992 219.704C115.292 218.592 116.433 217.929 117.546 218.233C118.658 218.533 119.313 219.679 119.017 220.787L115.767 232.829C114.788 236.537 111.413 239 107.721 239V239Z" fill="white"/>
<path d="M126.667 214H60C55.4042 214 51.6667 210.263 51.6667 205.667V155.667C51.6667 151.071 55.4042 147.333 60 147.333H126.667C131.262 147.333 135 151.071 135 155.667V205.667C135 210.263 131.262 214 126.667 214ZM60 151.5C57.7042 151.5 55.8333 153.371 55.8333 155.667V205.667C55.8333 207.963 57.7042 209.834 60 209.834H126.667C128.962 209.834 130.833 207.963 130.833 205.667V155.667C130.833 153.371 128.962 151.5 126.667 151.5H60Z" fill="white"/>
<path d="M72.5 176.5C67.9042 176.5 64.1667 172.763 64.1667 168.167C64.1667 163.571 67.9042 159.833 72.5 159.833C77.0958 159.833 80.8333 163.571 80.8333 168.167C80.8333 172.763 77.0958 176.5 72.5 176.5ZM72.5 164C70.2042 164 68.3333 165.871 68.3333 168.167C68.3333 170.463 70.2042 172.333 72.5 172.333C74.7958 172.333 76.6667 170.463 76.6667 168.167C76.6667 165.871 74.7958 164 72.5 164Z" fill="white"/>
<path d="M54.0417 209.542C53.5083 209.542 52.975 209.338 52.5667 208.933C51.7542 208.121 51.7542 206.8 52.5667 205.988L72.2458 186.308C74.6042 183.95 78.725 183.95 81.0834 186.308L86.9417 192.167L103.158 172.708C104.338 171.296 106.071 170.475 107.917 170.458H107.963C109.788 170.458 111.517 171.25 112.708 172.638L134.5 198.063C135.25 198.933 135.15 200.25 134.275 201C133.404 201.75 132.092 201.654 131.338 200.775L109.546 175.35C109.142 174.883 108.583 174.625 107.963 174.625C107.529 174.588 106.767 174.888 106.363 175.375L88.6834 196.588C88.3084 197.038 87.7625 197.308 87.175 197.333C86.5834 197.375 86.0209 197.142 85.6084 196.725L78.1375 189.254C77.35 188.471 75.9792 188.471 75.1917 189.254L55.5125 208.933C55.1083 209.338 54.575 209.542 54.0417 209.542V209.542Z" fill="white"/>
</g>
<defs>
<linearGradient id="paint0_linear_161_443" x1="-0.929684" y1="7.08736" x2="177.001" y2="10.4769" gradientUnits="userSpaceOnUse">
<stop stop-color="#0D182A"/>
<stop offset="1" stop-color="#192979"/>
</linearGradient>
<clipPath id="clip0_161_443">
<rect width="100" height="100" fill="white" transform="translate(35 139)"/>
</clipPath>
</defs>
</svg>
