<svg width="40" height="40" viewBox="0 0 40 40" fill="none" xmlns="http://www.w3.org/2000/svg">
<circle cx="20" cy="20" r="20" fill="white"/>
<path d="M18.5 17H15.5V12.875C15.5 12.05 16.175 11.375 17 11.375C17.825 11.375 18.5 12.05 18.5 12.875V17ZM31.25 28.625H29.75C28.25 28.625 26.825 27.875 26 26.6L20.3375 17.7875C20.075 17.375 19.7 17.1125 19.25 17.0375V14.75C20.6 14.8625 21.8375 15.6125 22.5875 16.775L28.175 25.5125C28.5125 26.0375 29.075 26.375 29.7125 26.375C30.5375 26.375 31.2125 27.05 31.2125 27.875V28.625H31.25Z" fill="#354FD5"/>
<path d="M14.75 17.375V16.25H14L13.775 17H11.375V18.5H13.2875L12.8 20H10.625V21.5H12.3125L11.825 23H9.875V24.5H11.3375L10.85 26H9.125V27.5H10.3625L9.875 29H11.375L15.0125 17.7125C14.8625 17.675 14.75 17.525 14.75 17.375Z" fill="#354FD5"/>
</svg>
