<svg width="40" height="40" viewBox="0 0 40 40" fill="none" xmlns="http://www.w3.org/2000/svg">
<circle cx="20" cy="20" r="20" fill="white"/>
<g clip-path="url(#clip0_217_269)">
<path d="M31.2969 20.3749H27.7809V18.6689H26.3746V20.3749H13.6254V18.6689H12.2191V20.3749H8.70312C8.31476 20.3749 8 20.6897 8 21.0781V22.4843C8 22.8727 8.31476 23.1874 8.70312 23.1874H31.2969C31.6852 23.1874 32 22.8727 32 22.4843V21.0781C32 20.6897 31.6852 20.3749 31.2969 20.3749Z" fill="#354FD5"/>
<path d="M10.1562 17.2812H29.8438C30.2321 17.2812 30.5469 16.9665 30.5469 16.5781V12.3594C30.5469 11.971 30.2321 11.6562 29.8438 11.6562H10.1562C9.76788 11.6562 9.45312 11.971 9.45312 12.3594V16.5781C9.45312 16.9665 9.76788 17.2812 10.1562 17.2812ZM27.0778 13.7656H27.0781C27.4665 13.7656 27.7812 14.0804 27.7812 14.4688C27.7812 14.8571 27.4665 15.1719 27.0781 15.1719C26.6899 15.1719 26.3748 14.8571 26.3748 14.4688C26.3748 14.0804 26.6894 13.7656 27.0778 13.7656ZM12.9222 13.7656H12.9228C13.3112 13.7656 13.6259 14.0804 13.6259 14.4688C13.6259 14.8571 13.3112 15.1719 12.9228 15.1719C12.5344 15.1719 12.2195 14.8571 12.2195 14.4688C12.2195 14.0804 12.5341 13.7656 12.9222 13.7656Z" fill="#354FD5"/>
<path d="M10.8127 27.6404C10.8127 28.0288 11.1277 28.3436 11.5159 28.3436C11.9042 28.3436 12.219 28.0288 12.219 27.6404V24.5938H10.8127V27.6404Z" fill="#354FD5"/>
<path d="M27.7808 27.6404C27.7808 28.0288 28.0955 28.3436 28.4839 28.3436C28.8721 28.3436 29.187 28.0288 29.187 27.6404V24.5938H27.7808V27.6404Z" fill="#354FD5"/>
</g>
<defs>
<clipPath id="clip0_217_269">
<rect width="24" height="24" fill="white" transform="translate(8 8)"/>
</clipPath>
</defs>
</svg>
