<svg width="100" height="100" viewBox="0 0 100 100" fill="none" xmlns="http://www.w3.org/2000/svg">
<path d="M82.1641 51.8417C81.9589 51.8417 81.7557 51.8821 81.5661 51.9606C81.3765 52.0391 81.2042 52.1542 81.0592 52.2993C80.914 52.4444 80.799 52.6166 80.7205 52.8062C80.642 52.9958 80.6016 53.199 80.6016 53.4042V89.5074C80.6011 89.8038 80.4831 90.0879 80.2734 90.2974C80.0637 90.507 79.7795 90.6248 79.4831 90.625H20.517C20.2206 90.6247 19.9364 90.5069 19.7267 90.2974C19.517 90.0879 19.399 89.8037 19.3986 89.5073V86.7333C19.3986 86.3189 19.2339 85.9214 18.9409 85.6284C18.6479 85.3354 18.2505 85.1708 17.8361 85.1708C17.4217 85.1708 17.0242 85.3354 16.7312 85.6284C16.4382 85.9214 16.2736 86.3189 16.2736 86.7333V89.5073C16.2751 90.6322 16.7227 91.7106 17.5182 92.5059C18.3137 93.3013 19.3921 93.7487 20.517 93.75H79.4831C80.608 93.7487 81.6865 93.3013 82.482 92.506C83.2775 91.7106 83.7251 90.6322 83.7266 89.5073V53.4042C83.7267 53.199 83.6863 52.9958 83.6078 52.8062C83.5293 52.6166 83.4142 52.4443 83.2691 52.2992C83.124 52.1541 82.9517 52.0391 82.7621 51.9606C82.5725 51.8821 82.3693 51.8417 82.1641 51.8417Z" fill="#354FD5"/>
<path d="M84.6206 40.625H15.3793C14.5508 40.6259 13.7565 40.9555 13.1706 41.5413C12.5848 42.1272 12.2552 42.9215 12.2543 43.75V45.0607C12.2705 45.5463 12.3934 46.0223 12.6141 46.4551C12.8349 46.8878 13.1482 47.2667 13.5317 47.5649C13.9152 47.8631 14.3596 48.0733 14.8335 48.1805C15.3073 48.2878 15.7989 48.2895 16.2735 48.1856V79.1344C16.2815 79.5435 16.4496 79.9332 16.7418 80.2197C17.0339 80.5062 17.4268 80.6667 17.836 80.6667C18.2452 80.6667 18.6381 80.5061 18.9303 80.2196C19.2224 79.9331 19.3905 79.5434 19.3985 79.1343V48.1857H84.6206C85.4491 48.1848 86.2434 47.8552 86.8293 47.2694C87.4151 46.6835 87.7447 45.8892 87.7456 45.0607V43.75C87.7447 42.9215 87.4151 42.1272 86.8293 41.5413C86.2434 40.9555 85.4491 40.6259 84.6206 40.625ZM84.6206 45.0607H15.3793V43.75H84.6206V45.0607Z" fill="#354FD5"/>
<path d="M73.6771 87.0491C74.9199 87.0477 76.1114 86.5534 76.9902 85.6747C77.869 84.7959 78.3633 83.6044 78.3646 82.3616V56.4484C78.3633 55.2056 77.869 54.0141 76.9902 53.1354C76.1114 52.2566 74.9199 51.7623 73.6771 51.7609H26.323C25.0802 51.7623 23.8887 52.2566 23.0099 53.1354C22.1312 54.0141 21.6369 55.2056 21.6355 56.4484V82.3616C21.6369 83.6044 22.1312 84.7959 23.0099 85.6747C23.8887 86.5534 25.0802 87.0477 26.323 87.0491H73.6771ZM51.5626 54.8859H73.6771C74.0914 54.8863 74.4886 55.0511 74.7815 55.344C75.0745 55.637 75.2392 56.0342 75.2396 56.4484V82.3616C75.2392 82.7759 75.0745 83.1731 74.7815 83.466C74.4886 83.7589 74.0914 83.9237 73.6771 83.9241H51.5626V54.8859ZM24.7605 82.3616V56.4484C24.7609 56.0342 24.9257 55.637 25.2186 55.344C25.5115 55.0511 25.9087 54.8863 26.323 54.8859H48.4376V83.9241H26.323C25.9087 83.9237 25.5115 83.7589 25.2186 83.466C24.9257 83.1731 24.7609 82.7759 24.7605 82.3616Z" fill="#354FD5"/>
<path d="M56.7002 65.1627C56.495 65.1626 56.2918 65.203 56.1022 65.2815C55.9126 65.36 55.7403 65.4751 55.5952 65.6202C55.4501 65.7653 55.335 65.9376 55.2565 66.1272C55.178 66.3167 55.1376 66.52 55.1377 66.7252V72.0856C55.1377 72.5 55.3023 72.8974 55.5953 73.1904C55.8884 73.4835 56.2858 73.6481 56.7002 73.6481C57.1146 73.6481 57.512 73.4835 57.8051 73.1904C58.0981 72.8974 58.2627 72.5 58.2627 72.0856V66.7252C58.2627 66.52 58.2224 66.3167 58.1439 66.1272C58.0654 65.9376 57.9503 65.7653 57.8052 65.6202C57.6601 65.4751 57.4878 65.36 57.2982 65.2815C57.1086 65.203 56.9054 65.1626 56.7002 65.1627Z" fill="#354FD5"/>
<path d="M43.2998 73.6481C43.505 73.6481 43.7082 73.6078 43.8978 73.5292C44.0874 73.4507 44.2597 73.3357 44.4048 73.1906C44.5499 73.0454 44.665 72.8732 44.7435 72.6836C44.822 72.494 44.8624 72.2908 44.8623 72.0856V66.7252C44.8623 66.3108 44.6977 65.9133 44.4047 65.6203C44.1116 65.3273 43.7142 65.1627 43.2998 65.1627C42.8854 65.1627 42.488 65.3273 42.1949 65.6203C41.9019 65.9133 41.7373 66.3108 41.7373 66.7252V72.0856C41.7373 72.2908 41.7776 72.494 41.8561 72.6836C41.9346 72.8732 42.0497 73.0454 42.1948 73.1906C42.3399 73.3357 42.5122 73.4507 42.7018 73.5292C42.8914 73.6078 43.0946 73.6481 43.2998 73.6481Z" fill="#354FD5"/>
<path d="M17.8359 30.4222H71.6247C72.0338 30.4142 72.4235 30.2461 72.71 29.9539C72.9965 29.6617 73.157 29.2689 73.157 28.8597C73.157 28.4505 72.9965 28.0576 72.7099 27.7654C72.4234 27.4733 72.0337 27.3052 71.6246 27.2972H51.5625V9.375H80.6016V27.2972H78.891C78.4817 27.305 78.0918 27.473 77.8052 27.7652C77.5185 28.0574 77.3579 28.4504 77.3579 28.8598C77.3579 29.2691 77.5185 29.6621 77.8052 29.9543C78.0919 30.2464 78.4818 30.4144 78.8911 30.4222H82.1641C82.3693 30.4223 82.5725 30.3819 82.7621 30.3034C82.9517 30.2249 83.1239 30.1098 83.269 29.9647C83.4141 29.8196 83.5292 29.6473 83.6077 29.4577C83.6862 29.2681 83.7266 29.0649 83.7266 28.8597V7.8125C83.7266 7.60729 83.6862 7.40409 83.6077 7.21449C83.5292 7.0249 83.4141 6.85262 83.269 6.70752C83.1239 6.56242 82.9517 6.44733 82.7621 6.36883C82.5725 6.29032 82.3693 6.24994 82.1641 6.25H17.8359C17.4269 6.25819 17.0375 6.42642 16.7511 6.71856C16.4648 7.01071 16.3044 7.40347 16.3044 7.81255C16.3044 8.22162 16.4648 8.61438 16.7512 8.9065C17.0376 9.19863 17.427 9.36683 17.836 9.375H48.4375V27.2972H19.3984V13.9374C19.3984 13.523 19.2338 13.1255 18.9408 12.8325C18.6478 12.5395 18.2503 12.3749 17.8359 12.3749C17.4215 12.3749 17.0241 12.5395 16.7311 12.8325C16.4381 13.1255 16.2734 13.523 16.2734 13.9374V28.8597C16.2734 29.0649 16.3138 29.2681 16.3923 29.4577C16.4708 29.6473 16.5859 29.8196 16.731 29.9647C16.8761 30.1098 17.0483 30.2249 17.2379 30.3034C17.4275 30.3819 17.6307 30.4223 17.8359 30.4222Z" fill="#354FD5"/>
<path d="M37.0438 25C37.4529 24.992 37.8426 24.8239 38.1291 24.5317C38.4156 24.2395 38.5761 23.8467 38.5761 23.4375C38.576 23.0282 38.4155 22.6354 38.129 22.3432C37.8425 22.0511 37.4528 21.883 37.0437 21.875H30.7938C30.3846 21.883 29.995 22.0511 29.7085 22.3433C29.4219 22.6355 29.2615 23.0283 29.2615 23.4375C29.2615 23.8468 29.422 24.2396 29.7085 24.5318C29.995 24.8239 30.3847 24.992 30.7939 25H37.0438Z" fill="#354FD5"/>
<path d="M62.9562 21.875C62.5471 21.883 62.1574 22.0511 61.8709 22.3433C61.5844 22.6355 61.4239 23.0283 61.424 23.4375C61.424 23.8468 61.5845 24.2396 61.871 24.5318C62.1575 24.8239 62.5472 24.992 62.9563 25H69.2062C69.6154 24.992 70.005 24.8239 70.2915 24.5317C70.5781 24.2395 70.7385 23.8467 70.7385 23.4375C70.7385 23.0282 70.578 22.6354 70.2915 22.3432C70.005 22.0511 69.6153 21.883 69.2061 21.875H62.9562Z" fill="#354FD5"/>
</svg>
