<svg width="100" height="100" viewBox="0 0 100 100" fill="none" xmlns="http://www.w3.org/2000/svg">
<path d="M86.6076 93.2341H13.3924C12.5506 93.2341 11.8734 92.5569 11.8734 91.7152V45.1329C11.8734 44.2911 12.5506 43.6139 13.3924 43.6139C14.2342 43.6139 14.9114 44.2911 14.9114 45.1329V90.1962H85.0886V45.1329C85.0886 44.2911 85.7658 43.6139 86.6076 43.6139C87.4494 43.6139 88.1266 44.2911 88.1266 45.1329V91.7152C88.1266 92.5569 87.443 93.2341 86.6076 93.2341Z" fill="#354FD5"/>
<path d="M93.9114 51.5506C92.8671 51.5506 91.8608 51.2025 91.0253 50.5443L50 18.2658L8.97469 50.5443C6.94305 52.1392 3.99368 51.7911 2.39874 49.7595C1.62659 48.7785 1.27849 47.5506 1.43039 46.3101C1.57596 45.0696 2.20254 43.9557 3.18355 43.1835L49.0633 7.08858C49.6139 6.65187 50.3924 6.65187 50.9431 7.08858L96.8228 43.1835C98.8544 44.7785 99.2025 47.7278 97.6076 49.7595C96.8355 50.7405 95.7215 51.3671 94.481 51.5126C94.2912 51.5379 94.1013 51.5506 93.9114 51.5506ZM50 14.8164C50.3291 14.8164 50.6646 14.924 50.9367 15.1392L92.9051 48.1519C93.2532 48.424 93.6836 48.5443 94.1203 48.4936C94.557 48.443 94.9494 48.2215 95.2215 47.8797C95.7848 47.1645 95.6582 46.1266 94.943 45.5696L50 10.2152L5.05697 45.5696C4.70887 45.8417 4.49368 46.2341 4.44305 46.6709C4.39241 47.1076 4.51267 47.5379 4.78482 47.886C5.34811 48.6012 6.37976 48.7215 7.09495 48.1645L49.0633 15.1519C49.3355 14.924 49.6709 14.8164 50 14.8164Z" fill="#354FD5"/>
<path d="M78.7659 32.4304C77.9241 32.4304 77.2469 31.7531 77.2469 30.9114V13.4494H69.7152V22.5949C69.7152 23.4367 69.038 24.1139 68.1962 24.1139C67.3545 24.1139 66.6772 23.4367 66.6772 22.5949V11.9304C66.6772 11.0886 67.3545 10.4114 68.1962 10.4114H78.7659C79.6076 10.4114 80.2848 11.0886 80.2848 11.9304V30.9114C80.2848 31.7531 79.6076 32.4304 78.7659 32.4304Z" fill="#354FD5"/>
<path d="M33.943 80.6329C33.5506 80.6329 33.1645 80.481 32.8671 80.1835C32.2721 79.5886 32.2784 78.6265 32.8671 78.0379L64.981 46.0126C65.5759 45.4177 66.5379 45.424 67.1265 46.0126C67.7215 46.6076 67.7152 47.5696 67.1265 48.1582L35.0126 80.1835C34.7215 80.4873 34.3291 80.6329 33.943 80.6329Z" fill="#354FD5"/>
<path d="M39.5633 61.6266C39.557 61.6266 39.557 61.6266 39.5506 61.6266C34.5759 61.6202 30.5316 57.5633 30.538 52.5886C30.538 50.1772 31.481 47.9114 33.1899 46.2088C34.8924 44.5063 37.1582 43.5759 39.5633 43.5759H39.5759C41.9873 43.5759 44.2532 44.519 45.9557 46.2278C47.6582 47.9367 48.5949 50.2025 48.5886 52.6139H47.0696H48.5886C48.5886 55.0253 47.6456 57.2911 45.9367 58.9936C44.2342 60.6962 41.9683 61.6266 39.5633 61.6266ZM39.5633 46.6139C37.9683 46.6139 36.4683 47.2342 35.3354 48.3607C34.2025 49.4873 33.5759 50.9936 33.5759 52.5949C33.5696 55.8987 36.2532 58.5886 39.557 58.5886H39.5633C41.1582 58.5886 42.6646 57.9683 43.7911 56.8417C44.924 55.7152 45.5506 54.2088 45.5506 52.6076C45.5506 51.0063 44.9304 49.5063 43.8038 48.3734C42.6772 47.2405 41.1709 46.6139 39.5696 46.6139H39.5633Z" fill="#354FD5"/>
<path d="M60.4367 82.6266C60.4304 82.6266 60.4304 82.6266 60.424 82.6266C55.4494 82.6202 51.4051 78.5633 51.4114 73.5886C51.4177 71.1772 52.3544 68.9114 54.0633 67.2088C55.7658 65.5063 58.0316 64.5759 60.4367 64.5759H60.4494C65.424 64.5823 69.4683 68.6392 69.462 73.6139H67.943H69.462C69.4557 76.0253 68.519 78.2911 66.8101 79.9936C65.1076 81.6899 62.8418 82.6266 60.4367 82.6266ZM60.4367 67.6139C58.8418 67.6139 57.3418 68.2342 56.2089 69.3607C55.0759 70.4873 54.4494 71.9937 54.4494 73.5949C54.443 76.8987 57.1266 79.5886 60.4304 79.5886H60.4367C62.0316 79.5886 63.5316 78.9683 64.6646 77.8418C65.7975 76.7152 66.424 75.2088 66.424 73.6076C66.4304 70.3038 63.7468 67.6139 60.443 67.6139H60.4367Z" fill="#354FD5"/>
</svg>
