<svg width="100" height="100" viewBox="0 0 100 100" fill="none" xmlns="http://www.w3.org/2000/svg">
<g clip-path="url(#clip0_13_748)">
<path d="M99.2516 32.3692L74.2714 7.38907C73.7892 6.90613 73.1468 6.64062 72.4648 6.64062C71.7819 6.64062 71.1403 6.90689 70.6573 7.38907L56.9199 21.1266C56.3545 21.6919 56.3545 22.6089 56.9199 23.175C57.486 23.7404 58.403 23.7411 58.9691 23.175L72.4648 9.67941L96.9612 34.1759L52.8259 78.3112L47.683 73.1689C47.892 72.9317 48.0972 72.6906 48.2941 72.4419L49.0837 71.4432C49.5842 71.5797 50.1312 71.5263 50.6172 71.2631C51.9798 70.5276 53.672 70.5276 55.0339 71.2631C55.3497 71.434 55.6908 71.5172 56.028 71.5172C56.5605 71.5172 57.0831 71.3097 57.4806 70.9122L60.8414 67.5514C61.4067 66.9861 61.4067 66.069 60.8414 65.5029C60.2753 64.9376 59.3582 64.9376 58.7929 65.5029L55.8533 68.4418C54.6013 67.8917 53.2425 67.7002 51.915 67.8619L52.9388 66.568L59.4788 60.0281L59.4795 60.0273L65.3069 54.2C67.1204 53.7292 68.7721 52.7863 70.1042 51.4542C74.2165 47.3419 74.2165 40.6494 70.1035 36.5364C65.9912 32.4242 59.2995 32.4242 55.1865 36.5372C52.4437 39.2799 51.4549 43.3548 52.5436 47.0207C51.3283 47.7562 50.2228 48.5931 49.3179 49.498L43.5364 55.2811C43.1648 55.6534 42.6659 55.8578 42.1326 55.8578H42.0853C41.2994 55.8578 40.1741 54.9797 39.8544 54.1527V49.1318L69.4366 19.5488C71.3699 20.3995 73.5596 20.3995 75.4929 19.5488L87.0918 31.1478C86.2419 33.0818 86.2419 35.2707 87.0918 37.204L63.6368 60.6583C63.0714 61.2244 63.0714 62.1414 63.6368 62.7075C63.9198 62.9898 64.2906 63.1317 64.6614 63.1317C65.0322 63.1317 65.403 62.9898 65.686 62.7075L89.5622 38.8306C90.2115 38.1805 90.3526 37.1971 89.9132 36.3838C89.1769 35.022 89.1769 33.3298 89.9124 31.9687C90.3534 31.1546 90.2122 30.1704 89.5622 29.5212L77.1202 17.0792C76.4694 16.4291 75.4868 16.288 74.6727 16.7274C73.3109 17.4637 71.6187 17.4644 70.2568 16.7274C69.4435 16.288 68.4601 16.4291 67.8093 17.0792L39.8537 45.0348V42.2905L54.0695 28.0746C54.4624 27.6817 54.5959 27.0973 54.4121 26.5717C54.2282 26.046 53.759 25.6729 53.2059 25.6111C50.7881 25.3403 48.4108 25.145 46.4996 24.9886C45.1897 24.881 44.1544 24.7963 43.5371 24.7215C41.6344 24.4942 39.7797 25.1495 37.8693 26.7258L25.2266 36.6997C25.2182 36.7065 25.209 36.7134 25.2007 36.721C23.1773 38.3957 21.7377 40.6197 21.0381 43.1541C19.7273 47.9019 16.8953 56.5353 15.1108 60.0525L8.95157 66.2125L8.72192 65.9821C8.11691 65.377 7.31201 65.0436 6.45676 65.0436C5.6015 65.0436 4.7966 65.377 4.19159 65.9821L0.938416 69.236C0.333404 69.841 0 70.6451 0 71.5004C0 72.3564 0.333404 73.1606 0.938416 73.7656L19.4275 92.2546C20.0325 92.8596 20.8366 93.1931 21.6919 93.1931C22.5479 93.1931 23.3521 92.8596 23.9571 92.2546L27.2102 89.0007C27.8152 88.3965 28.1487 87.5916 28.1487 86.7363C28.1487 85.881 27.8152 85.0761 27.211 84.4711L26.9745 84.2354L28.5095 82.7003C29.1702 82.0396 29.9934 81.5529 30.8907 81.2927C30.9105 81.2874 30.9296 81.2813 30.9494 81.2744L40.2359 78.1471C42.1967 77.475 44.0048 76.4671 45.594 75.177L51.0185 80.6015C51.5015 81.0844 52.1431 81.3499 52.8259 81.3499C53.5088 81.3499 54.1496 81.0844 54.6326 80.6015L99.2516 35.9833C99.7345 35.5003 100 34.8587 100 34.1759C100 33.4938 99.7345 32.8514 99.2516 32.3692ZM58.4549 56.9542L57.3936 55.8922C57.0221 55.5206 57.0221 54.9164 57.3936 54.5441L59.4666 52.4712C60.0937 51.844 60.9177 51.5305 61.7416 51.5305C62.3215 51.5305 62.9013 51.6861 63.4125 51.9966L58.4549 56.9542ZM57.235 38.5857C60.218 35.6018 65.0719 35.6026 68.055 38.5849C70.8412 41.3712 71.0243 45.7878 68.6073 48.79C68.6028 47.7127 68.1717 46.7087 67.3332 45.8473C66.4093 44.7441 64.9017 44.1063 62.9677 44.0025C60.6255 43.8751 57.8041 44.5206 55.1819 45.6612C54.6288 43.1458 55.3764 40.4442 57.235 38.5857ZM25.1617 86.9522L21.9086 90.2061C21.8346 90.2802 21.7499 90.2962 21.6919 90.2962C21.6347 90.2962 21.55 90.2802 21.476 90.2061L2.98691 71.7171C2.91214 71.6431 2.89688 71.5584 2.89688 71.5004C2.89688 71.4424 2.91214 71.3585 2.98691 71.2845L6.24008 68.0305C6.31409 67.9565 6.39877 67.9405 6.45676 67.9405C6.51474 67.9405 6.59866 67.9565 6.67267 68.0305L25.1617 86.5196C25.2365 86.5936 25.2518 86.6783 25.2518 86.7363C25.2518 86.7943 25.2365 86.8782 25.1617 86.9522ZM47.6624 68.5699L46.022 70.6444C45.5978 71.1815 45.1385 71.6843 44.6487 72.1519C44.6434 72.1573 44.6373 72.1619 44.632 72.1672C44.6281 72.171 44.6251 72.1748 44.6213 72.1786C43.1053 73.6198 41.2964 74.7208 39.3036 75.4044L30.0522 78.5194C28.6995 78.9177 27.4582 79.6547 26.461 80.6519L24.926 82.1869L11.0001 68.261L17.3195 61.9415C17.4225 61.8378 17.5095 61.7195 17.5774 61.5906C19.4717 57.9796 22.4258 49.0112 23.8304 43.9255C24.3698 41.9716 25.4776 40.2557 27.0348 38.9633L39.6767 28.9902C39.6851 28.9833 39.6942 28.9764 39.7026 28.9688C41.0088 27.8885 42.0853 27.4658 43.1923 27.5986C43.8637 27.6794 44.9226 27.7657 46.2624 27.8763C47.3396 27.9648 48.5672 28.0647 49.8627 28.1845L37.3802 40.667C37.1086 40.9386 36.956 41.3071 36.956 41.6908L36.9568 54.377C36.9568 54.5029 36.9736 54.6288 37.0064 54.7501C37.5755 56.884 39.949 58.7555 42.0853 58.7555H42.1326C43.4395 58.7555 44.6663 58.2489 45.5856 57.3288L51.3664 51.5472C52.314 50.5997 53.5431 49.7307 54.892 49.0067C54.8973 49.0044 54.9026 49.0028 54.908 49.0005C54.9698 48.9731 55.027 48.941 55.0827 48.9067C57.6157 47.583 60.5377 46.7705 62.812 46.8956C63.9214 46.9551 64.7438 47.2504 65.1276 47.7264C65.1604 47.7669 65.1955 47.8058 65.2313 47.8424C65.744 48.3551 65.7425 48.7686 65.6845 49.0707C65.6387 49.305 65.5312 49.5613 65.3732 49.8276C62.9822 48.0598 59.5833 48.2574 57.4181 50.4227L55.3452 52.4956C54.6181 53.2234 54.2175 54.1901 54.2175 55.2185C54.2175 56.2469 54.6181 57.2136 55.3452 57.9407L56.4072 59.0027L50.8301 64.579C50.7904 64.6187 50.753 64.6606 50.7187 64.7049L47.6662 68.5654C47.6646 68.5669 47.6631 68.5684 47.6624 68.5699Z" fill="#354FD5"/>
</g>
<defs>
<clipPath id="clip0_13_748">
<rect width="100" height="100" fill="white"/>
</clipPath>
</defs>
</svg>
