<svg width="40" height="40" viewBox="0 0 40 40" fill="none" xmlns="http://www.w3.org/2000/svg">
<g clip-path="url(#clip0_27_442)">
<path d="M38.6067 3.54959C26.2602 5.86457 13.7398 5.86457 1.39325 3.54959L0 3.28833V36.7117L1.39333 36.4505C13.7398 34.1355 26.2602 34.1355 38.6067 36.4505L40 36.7117V3.28833L38.6067 3.54959ZM4.08031 33.6028L11.8009 24.1665L19.0751 32.366C14.0682 32.4112 9.06282 32.8239 4.08031 33.6028ZM22.2378 32.3857L18.8084 28.52L26.2235 18.5152L36.3245 33.6665C31.6438 32.9159 26.9423 32.4883 22.2378 32.3857ZM37.6471 31.4086L26.3254 14.4261L17.2128 26.7214L11.7285 20.5394L2.35294 31.9983V6.11366C14.0704 8.14723 25.9296 8.14723 37.6471 6.11366V31.4086Z" fill="white"/>
<path d="M15.2941 10.5881C13.3479 10.5881 11.7646 12.1714 11.7646 14.1175C11.7646 16.0637 13.3479 17.647 15.2941 17.647C17.2402 17.647 18.8235 16.0637 18.8235 14.1175C18.8235 12.1714 17.2402 10.5881 15.2941 10.5881ZM15.2941 15.294C14.6453 15.294 14.1176 14.7663 14.1176 14.1175C14.1176 13.4688 14.6453 12.9411 15.2941 12.9411C15.9428 12.9411 16.4705 13.4688 16.4705 14.1175C16.4705 14.7663 15.9428 15.294 15.2941 15.294Z" fill="white"/>
</g>
<defs>
<clipPath id="clip0_27_442">
<rect width="40" height="40" fill="white"/>
</clipPath>
</defs>
</svg>
