<svg width="24" height="24" viewBox="0 0 24 24" fill="none" xmlns="http://www.w3.org/2000/svg">
<g clip-path="url(#clip0_9_18)">
<path d="M23.164 2.12978C15.7561 3.51876 8.24386 3.51876 0.835953 2.12978L0 1.97302V22.027L0.836 21.8703C8.24391 20.4813 15.7561 20.4813 23.164 21.8703L24 22.027V1.97302L23.164 2.12978ZM2.44819 20.1617L7.08056 14.4999L11.4451 19.4196C8.44094 19.4468 5.43769 19.6944 2.44819 20.1617ZM13.3427 19.4314L11.285 17.112L15.7341 11.1091L21.7947 20.1999C18.9863 19.7495 16.1654 19.493 13.3427 19.4314ZM22.5882 18.8452L15.7952 8.65566L10.3277 16.0328L7.03708 12.3237L1.41176 19.199V3.66822C8.44226 4.88836 15.5577 4.88836 22.5882 3.66822V18.8452Z" fill="black"/>
<path d="M9.17649 6.35303C8.00877 6.35303 7.05884 7.303 7.05884 8.47067C7.05884 9.63835 8.00877 10.5883 9.17649 10.5883C10.3442 10.5883 11.2941 9.63835 11.2941 8.47067C11.2941 7.303 10.3442 6.35303 9.17649 6.35303ZM9.17649 9.17656C8.78721 9.17656 8.4706 8.8599 8.4706 8.47067C8.4706 8.08145 8.78721 7.76479 9.17649 7.76479C9.56571 7.76479 9.88237 8.08145 9.88237 8.47067C9.88237 8.8599 9.56571 9.17656 9.17649 9.17656Z" fill="black"/>
</g>
<defs>
<clipPath id="clip0_9_18">
<rect width="24" height="24" fill="white"/>
</clipPath>
</defs>
</svg>
