<svg width="12" height="12" viewBox="0 0 12 12" fill="none" xmlns="http://www.w3.org/2000/svg">
<g clip-path="url(#clip0_142_382)">
<path d="M10.3395 8.35207C9.61454 7.73205 8.87885 7.35648 8.16283 7.97556L7.73528 8.34973C7.42246 8.62134 6.84084 9.89041 4.5921 7.30356C2.34383 4.71999 3.68174 4.31773 3.99503 4.04846L4.42492 3.67382C5.13719 3.05334 4.86839 2.27222 4.35468 1.46817L4.04467 0.981141C3.52861 0.178956 2.96666 -0.347873 2.25251 0.271678L1.86664 0.608849C1.55101 0.83878 0.668746 1.58618 0.454736 3.00604C0.197175 4.70969 1.00966 6.66059 2.87113 8.80116C4.73025 10.9427 6.5505 12.0183 8.27476 11.9996C9.70773 11.9841 10.5731 11.2152 10.8438 10.9356L11.2311 10.598C11.9434 9.97892 11.5008 9.34859 10.7754 8.72717L10.3395 8.35207Z" fill="#354FD4"/>
</g>
<defs>
<clipPath id="clip0_142_382">
<rect width="12" height="12" fill="white"/>
</clipPath>
</defs>
</svg>
