<svg width="24" height="24" viewBox="0 0 24 24" fill="none" xmlns="http://www.w3.org/2000/svg">
<g clip-path="url(#clip0_5_23)">
<path d="M20.6789 16.7039C19.2291 15.4639 17.7577 14.7127 16.3257 15.9509L15.4706 16.6992C14.8449 17.2424 13.6817 19.7806 9.1842 14.6069C4.68766 9.43974 7.36348 8.63521 7.99006 8.09667L8.84984 7.3474C10.2744 6.10643 9.73679 4.5442 8.70935 2.93609L8.08934 1.96204C7.05722 0.357668 5.93332 -0.695991 4.50502 0.543112L3.73328 1.21745C3.10202 1.67732 1.33749 3.17211 0.909472 6.01183C0.39435 9.41913 2.01933 13.3209 5.74225 17.6021C9.4605 21.8851 13.101 24.0364 16.5495 23.999C19.4155 23.968 21.1463 22.4302 21.6876 21.871L22.4622 21.1958C23.8867 19.9576 23.0016 18.6969 21.5509 17.4541L20.6789 16.7039Z" fill="#354FD4"/>
</g>
<defs>
<clipPath id="clip0_5_23">
<rect width="24" height="24" fill="white"/>
</clipPath>
</defs>
</svg>
