<svg width="17" height="17" viewBox="0 0 17 17" fill="none" xmlns="http://www.w3.org/2000/svg">
<path d="M16.892 8.16933C16.7401 7.96158 13.1215 3.0824 8.49992 3.0824C3.87833 3.0824 0.259583 7.96158 0.107877 8.16913C-0.0359591 8.36622 -0.0359591 8.63354 0.107877 8.83064C0.259583 9.03839 3.87833 13.9176 8.49992 13.9176C13.1215 13.9176 16.7401 9.03836 16.892 8.8308C17.036 8.63374 17.036 8.36622 16.892 8.16933ZM8.49992 12.7967C5.09563 12.7967 2.14715 9.55829 1.27434 8.4996C2.14602 7.43999 5.08832 4.20327 8.49992 4.20327C11.904 4.20327 14.8523 7.44111 15.7255 8.50036C14.8538 9.55994 11.9115 12.7967 8.49992 12.7967Z" fill="#9D9D9D"/>
<path d="M8.49986 5.13733C6.64573 5.13733 5.13721 6.64585 5.13721 8.49998C5.13721 10.3541 6.64573 11.8626 8.49986 11.8626C10.354 11.8626 11.8625 10.3541 11.8625 8.49998C11.8625 6.64585 10.354 5.13733 8.49986 5.13733ZM8.49986 10.7417C7.26371 10.7417 6.25811 9.7361 6.25811 8.49998C6.25811 7.26386 7.26374 6.25824 8.49986 6.25824C9.73598 6.25824 10.7416 7.26386 10.7416 8.49998C10.7416 9.7361 9.73601 10.7417 8.49986 10.7417Z" fill="#9D9D9D"/>
</svg>
