<svg width="484" height="463" viewBox="0 0 484 463" fill="none" xmlns="http://www.w3.org/2000/svg">
<path fill-rule="evenodd" clip-rule="evenodd" d="M15.5489 462.071H45.8849C40.22 451.99 40.7187 439.877 56.5147 426.796L56.4679 426.894C61.4395 422.788 81.1074 416.774 81.5426 432.976C81.693 438.2 76.3235 451.219 61.1012 437.301C61.1012 437.301 54.8305 454.996 72.1715 462.071H92.4759C105.654 455.17 109.97 434.43 103.444 424.563C103.444 424.563 128.5 447.168 156.706 418.13C133.414 385.082 105.061 403.598 105.061 403.598C115.487 392.145 110.472 359.391 85.7396 360.871C61.0073 362.351 65.367 384.337 65.367 384.337C82.5403 372.928 85.8346 386.614 84.8855 391.757C81.9357 407.588 63.432 398.62 59.1599 393.807C27.621 358.167 76.6586 340.356 91.3782 335.972C93.3044 338.876 95.3387 341.743 97.5162 344.498C125.097 379.401 175.986 411.18 225.674 428.844C237.528 433.032 249.728 436.169 262.131 438.22C248.503 436.892 234.779 436.843 221.141 438.072C188.151 441.165 153.335 449.547 123.25 462.071H204.355C228.274 458.137 240.815 459.846 254.793 461.75C255.576 461.857 256.363 461.964 257.157 462.071H286.881C283.687 455.731 281.091 448.406 279.333 439.945C313.48 379.381 376.173 402.468 376.173 402.468C398.757 411.545 404.157 438.524 405.408 451.166C397.623 455.205 397.644 447.698 397.644 447.698C398.743 429.179 368.422 428.208 352.269 430.344L351.963 430.383C347.215 430.991 343.969 431.407 341.682 430.188C340.15 429.451 335.657 426.03 339.792 416.759C341.103 414.345 342.841 412.188 344.923 410.394C346.7 408.891 348.57 407.501 350.521 406.231C351.636 408.954 352.448 414.047 345.819 417.055C350.464 417.794 351.059 420.417 350.49 423.587C349.36 427.117 344.349 428.567 343.334 425.263C345.219 425.392 347.042 423.784 345.283 421.589C341.621 419.677 339.178 422.574 340.564 425.667C341.95 428.76 343.569 428.881 347.941 428.26L347.997 428.252L348.072 428.242L348.174 428.228C349.482 428.057 351.95 427.735 353.917 421.074C355.226 416.613 355.66 412.539 351.263 402.575C349.459 404.061 347.664 405.387 345.977 406.632C343.995 408.095 342.163 409.448 340.644 410.82C338.584 412.648 336.975 414.927 335.943 417.481C334.911 420.034 334.485 422.791 334.697 425.537C334.792 428.461 335.636 431.312 337.15 433.816C340.511 439.926 350.677 439.566 362.058 439.162C369.499 438.898 377.458 438.616 384.375 440.111C386.723 440.576 388.842 441.827 390.384 443.658C391.925 445.489 392.796 447.79 392.853 450.183C384.629 440.952 372.022 442.939 365.098 445.625C362.724 446.462 360.143 446.508 357.741 445.756C355.339 445.005 353.245 443.496 351.771 441.455C351.951 443.399 352.522 445.287 353.45 447.005C354.378 448.723 355.644 450.236 357.171 451.452C355.413 452.31 353.846 453.513 352.563 454.99C351.281 456.467 350.31 458.188 349.708 460.049C351.592 458.384 353.964 457.375 356.47 457.172C358.976 456.969 361.48 457.584 363.607 458.924C365.238 460.009 367.257 461.133 369.53 462.071H389.321C390.104 461.663 390.88 461.193 391.646 460.653C391.509 461.14 391.337 461.614 391.133 462.071H396.736C397.776 460.488 399.867 459.04 403.741 462.071H433.403C433.92 454.912 436.489 448.047 440.81 442.305C445.252 436.402 451.343 431.949 458.315 429.509C465.287 427.069 472.826 426.751 479.979 428.595C481.037 428.868 482.079 429.186 483.103 429.548V392.381C478.351 396.191 473.484 399.131 469.451 401.256C463.804 395.692 470.489 393.19 470.489 393.19C488.125 387.664 478.511 358.986 470.838 344.63L470.758 344.477C468.467 340.143 466.93 337.235 467.261 334.641C467.477 332.948 469.038 327.53 479.161 328.151C480.502 328.341 481.821 328.649 483.103 329.07V325.989C481.172 325.232 479.119 324.816 477.036 324.765C474.283 324.697 471.553 325.268 469.058 326.431C466.352 327.533 463.982 329.325 462.183 331.627C457.634 336.906 461.521 346.279 465.872 356.773C468.727 363.657 471.782 371.024 472.785 378.033C473.162 380.406 472.721 382.837 471.535 384.926C470.349 387.016 468.489 388.642 466.259 389.536C472.045 378.575 465.748 367.457 460.788 361.834C459.169 359.913 458.22 357.517 458.082 355.009C457.944 352.501 458.626 350.016 460.025 347.929C458.265 348.777 456.696 349.973 455.411 351.444C454.126 352.916 453.153 354.632 452.549 356.489C451.134 355.139 449.461 354.089 447.629 353.403C445.798 352.717 443.846 352.409 441.892 352.497C444.109 353.676 445.883 355.543 446.949 357.816C448.014 360.09 448.313 362.648 447.802 365.106C446.124 372.384 445.832 385.122 456.036 391.982C453.713 392.184 451.388 391.603 449.433 390.331C447.478 389.058 446.006 387.168 445.25 384.962C442.827 378.312 442.024 370.388 441.273 362.98C440.126 351.653 439.101 341.534 432.591 339.033C429.913 337.869 426.977 337.426 424.075 337.749C421.328 337.902 418.654 338.694 416.265 340.06C413.876 341.425 411.838 343.329 410.313 345.618C409.134 347.32 408.033 349.342 406.835 351.541C405.835 353.377 404.769 355.335 403.536 357.33C414.069 360.335 417.989 359.347 422.268 357.364C428.581 354.528 428.583 352.032 428.584 350.707L428.584 350.669C428.584 350.635 428.584 350.602 428.584 350.569C428.584 350.533 428.585 350.497 428.586 350.463C428.592 346.033 427.854 344.33 424.993 343.492C421.744 342.527 419.18 345.365 421.596 348.745C423.934 350.11 425.377 348.169 424.987 346.304C428.375 346.857 427.631 352.01 424.312 353.616C423.608 354.002 422.82 354.206 422.017 354.213C421.215 354.219 420.424 354.026 419.714 353.652C419.004 353.277 418.398 352.733 417.95 352.068C417.502 351.402 417.226 350.636 417.147 349.837C416.964 350.947 416.544 352.004 415.915 352.937C415.286 353.869 414.462 354.654 413.501 355.238C412.54 355.823 411.464 356.192 410.346 356.321C409.229 356.45 408.097 356.336 407.028 355.987C408.041 353.883 409.166 351.836 410.4 349.853C411.919 347.559 413.829 345.549 416.044 343.915C424.618 338.549 428.649 342.617 429.587 343.966C431.128 346.116 431.166 349.459 431.18 354.467C431.241 370.639 436.295 400.327 454.266 397.09C454.266 397.09 462.288 395.98 458.384 405.332C450.465 405.233 415.796 403.216 404.392 376.701C404.407 376.858 379.545 313.973 438.088 277.977L438.149 278.036C459.311 282.008 473.539 291.526 483.103 302.683V282.849C475.917 276.707 467.734 271.822 458.897 268.408C458.572 266.844 458.26 265.316 458.081 263.883C457.489 260.601 456.863 257.523 456.251 254.512L456.25 254.509L456.249 254.505C451.68 232.036 447.88 213.349 464.577 142.029C469.554 120.723 476.141 104.979 483.103 93.0767V46.4163C442.747 -10.6161 384.271 0.96638 384.271 0.96638C384.271 0.96638 321.658 11.7021 306.692 85.2114C272.215 70.2293 232.034 68.4639 195.941 71.3325C168.566 73.5056 147.43 77.1642 127.819 80.5588L127.819 80.5588C109.862 83.667 93.1838 86.554 74.1659 87.8765C73.7216 106.973 71.5964 123.806 69.3054 141.952C66.8208 161.631 64.1413 182.854 63.1996 210.183C62.0628 245.575 65.5321 284.713 81.2491 318.007C4.43997 339.069 0.123964 405.636 0.123964 405.636C0.123964 405.636 -2.42076 433.542 15.5489 462.071ZM483.103 151.085C474.479 194.77 479.083 241.706 483.103 268.083V151.085ZM483.103 342.573V335.736C482.328 335.265 481.64 334.661 481.07 333.952C481.37 334.685 481.484 335.48 481.404 336.268C481.324 337.055 481.051 337.811 480.611 338.468C480.17 339.126 479.574 339.665 478.876 340.038C478.178 340.411 477.399 340.607 476.608 340.609C472.905 340.773 469.789 336.607 472.509 334.503C473.068 336.329 475.232 337.371 476.657 335.032C477.175 330.909 473.583 329.659 471.181 332.036C468.778 334.413 469.273 335.999 471.334 339.867C471.368 339.93 471.402 339.997 471.439 340.069L471.439 340.07C472.038 341.246 473.193 343.516 480.155 342.946C481.155 342.873 482.123 342.769 483.103 342.573ZM350.375 462.071H336.484C339.93 460.454 344.793 460.886 350.375 462.071ZM279.333 439.945L279.32 439.967L279.332 439.943L279.333 439.945ZM423.225 27.9872C423.225 27.9872 416.553 19.2641 387.643 19.8408L387.665 19.7319C360.499 29.564 357.447 40.1945 357.483 40.1215C377.933 35.5917 393.252 49.4962 393.252 49.4962C393.252 49.4962 402.524 31.1087 423.225 27.9872ZM379.107 86.7124C394.535 82.1007 383.642 64.6662 378.408 60.9183L378.455 60.8211C342.587 35.1663 329.16 76.8012 325.112 95.0383C327.245 96.3944 329.354 97.7991 331.403 99.2651C367.601 125.229 401.781 174.48 421.678 223.354C426.317 234.753 429.965 246.53 432.583 258.555C430.87 246.552 430.155 234.427 430.449 222.306C431.954 169.6 446.498 111.401 471.182 74.3778C472.233 72.8172 473.332 71.28 474.444 69.7789C465.456 55.4781 436.638 16.176 411.048 54.7702C407.472 60.1462 403.561 80.3365 419.643 79.0944C424.839 78.6909 437.231 71.9883 421.795 58.327C421.795 58.327 442 48.7076 449.823 72.2106C457.645 95.7136 427.284 109.009 413.551 101.888C413.551 101.888 438.774 124.395 412.83 155.451C377.51 135.75 392.919 105.612 392.919 105.612C382.606 117.329 349.476 115.723 348.346 91.01C347.216 66.2966 369.644 68.1099 369.644 68.1099C360.129 86.3803 374.097 88.2235 379.107 86.7124ZM93.1235 106.229C93.1235 106.229 90.9051 133.044 85.5596 184.829L85.6064 184.732C80.1259 237.979 87.8159 280.108 93.8468 294.392C94.5206 295.988 95.1991 297.79 95.9473 299.777C101.896 315.575 112.249 343.07 159.646 371.716C222.216 409.539 241.128 411.699 263.924 414.302C267.024 414.656 270.196 415.018 273.559 415.479C274.846 415.659 276.196 415.801 277.57 415.945L278.214 416.013C285.345 407.596 293.983 400.582 303.685 395.332C278.66 392.568 105.346 369.292 105.682 256.064C105.952 169.969 109.772 123.529 109.897 122.151C111.317 121.876 157.586 115.911 243.517 111.61C365.377 105.649 392.268 306.023 392.268 306.023C392.268 306.023 352.628 296.042 351.662 236.216C351.662 236.216 325.819 245.787 337.18 276.684C337.18 276.684 256.632 272.915 272.099 233.699C287.565 194.484 320.123 223.218 306.12 248.881C306.12 248.881 375.466 229.946 322.898 175.466C322.898 175.466 297.766 142.94 269.276 182.893C269.276 182.893 283.196 143.592 224.924 120.119C224.924 120.119 252.176 169.329 240.418 228.959C240.418 228.959 174.409 188.462 223.972 161.41C223.972 161.41 197.867 129.165 179.25 170.817C179.25 170.817 163.229 127.642 122.165 133.868C117.858 175.162 161.747 189.194 161.747 189.194C121.03 209.754 154.455 234.322 154.455 234.322C179.259 183.49 222.701 247.593 222.701 247.593C163.681 262.125 113.269 237.195 113.269 237.195C139.408 294.315 178.024 278.555 178.024 278.555C139.457 308.894 173.048 332.435 173.048 332.435C229.845 382.423 245.634 312.305 245.634 312.305C220.563 327.428 190.455 296.28 228.891 279.026C267.328 261.772 274.84 342.03 274.84 342.03C243.456 332.131 235.11 358.362 235.11 358.362C287.624 356.781 303.146 386.686 306.105 394.101C317.229 388.517 329.164 384.722 341.47 382.855C341.47 382.855 410.996 372.752 417.377 440.366L417.821 439.443C422.111 430.496 428.614 422.792 436.714 417.061C376.672 408.46 383.831 342.333 383.831 342.333C387.759 311.159 400.082 291.785 411.699 280.097C411.319 277.278 410.905 274.593 410.445 272.065C409.834 268.754 409.328 265.625 408.834 262.564L408.834 262.563C405.189 239.974 402.142 221.094 361.439 160.298C330.452 114.031 302.464 105.073 286.406 99.9342L286.405 99.934L286.404 99.9337C284.467 99.3137 282.704 98.7493 281.13 98.1817C266.507 92.9085 224.225 87.0468 171.311 94.9945C119.805 102.752 93.1235 106.229 93.1235 106.229ZM19.1472 407.368C21.6537 436.188 31.1163 441.852 31.1163 441.852L31.1631 441.755C32.0939 420.849 49.3924 409.74 49.3924 409.74C49.3924 409.74 33.9792 395.97 36.2995 375.164C36.2995 375.164 26.0662 379.312 19.1472 407.368ZM320.362 327.882L320.362 327.883C325.423 345.477 329.439 359.437 364.455 362.864C364.62 327.676 351.145 322.264 334.15 315.438C326.479 312.357 318.091 308.987 309.916 302.462C315.578 311.253 318.076 319.938 320.362 327.882ZM440.525 323.566C445.896 326.152 452.347 323.894 454.933 318.523C457.519 313.151 455.261 306.701 449.89 304.115C444.518 301.528 438.068 303.786 435.482 309.158C432.896 314.529 435.154 320.979 440.525 323.566ZM322.803 447.215C320.217 452.587 313.766 454.844 308.395 452.258C303.024 449.672 300.766 443.222 303.352 437.85C305.938 432.479 312.389 430.221 317.76 432.807C323.131 435.393 325.389 441.844 322.803 447.215Z" fill="#222222"/>
</svg>
