<svg width="320" height="320" viewBox="0 0 320 320" fill="none" xmlns="http://www.w3.org/2000/svg">
<circle cx="160" cy="160" r="160" fill="#343849" fill-opacity="0.2"/>
<circle cx="160" cy="160" r="160" fill="url(#paint0_radial_151_351)" fill-opacity="0.2"/>
<circle cx="160" cy="160" r="160" fill="url(#paint1_radial_151_351)" fill-opacity="0.2"/>
<circle cx="160" cy="160" r="160" fill="url(#paint2_radial_151_351)" fill-opacity="0.2"/>
<circle cx="160" cy="160" r="92" fill="#343849" fill-opacity="0.59"/>
<path d="M147.33 143.091V169.707C145.782 168.325 143.741 167.484 141.507 167.484C136.678 167.484 132.749 171.413 132.749 176.242C132.749 181.071 136.678 185 141.507 185C146.33 185 150.255 181.081 150.265 176.26H150.265V154.871L176.315 148.267V162.641C174.767 161.26 172.726 160.419 170.492 160.419C165.663 160.419 161.734 164.348 161.734 169.177C161.734 174.006 165.663 177.935 170.492 177.935C175.321 177.935 179.25 174.006 179.25 169.177V135L147.33 143.091Z" fill="#FCFEFF"/>
<defs>
<radialGradient id="paint0_radial_151_351" cx="0" cy="0" r="1" gradientUnits="userSpaceOnUse" gradientTransform="translate(288.742 233.642) rotate(146.147) scale(155.023)">
<stop stop-color="#4F529F"/>
<stop offset="1" stop-color="#363A95" stop-opacity="0"/>
</radialGradient>
<radialGradient id="paint1_radial_151_351" cx="0" cy="0" r="1" gradientUnits="userSpaceOnUse" gradientTransform="translate(186.49 21.7219) rotate(122.21) scale(267.374)">
<stop stop-color="#3CCECE"/>
<stop offset="1" stop-color="#42ACAC" stop-opacity="0"/>
</radialGradient>
<radialGradient id="paint2_radial_151_351" cx="0" cy="0" r="1" gradientUnits="userSpaceOnUse" gradientTransform="translate(25.9603 259.073) rotate(-30.3148) scale(224.621)">
<stop stop-color="#D739FF"/>
<stop offset="1" stop-color="#4D125B" stop-opacity="0"/>
</radialGradient>
</defs>
</svg>
