<svg width="53" height="53" viewBox="0 0 53 53" fill="none" xmlns="http://www.w3.org/2000/svg">
<rect width="53" height="53" fill="#62A5AE"/>
<g clip-path="url(#clip0_29_872)">
<path d="M23.5327 20.2365V30.8827C22.9132 30.3301 22.0969 29.9936 21.2034 29.9936C19.2717 29.9936 17.7002 31.5651 17.7002 33.4968C17.7002 35.4285 19.2717 37 21.2034 37C23.1326 37 24.7025 35.4324 24.7065 33.5041H24.7065V24.9482L35.1267 22.3068V28.0566C34.5072 27.504 33.6909 27.1675 32.7974 27.1675C30.8657 27.1675 29.2942 28.739 29.2942 30.6707C29.2942 32.6024 30.8657 34.1739 32.7974 34.1739C34.729 34.1739 36.3005 32.6023 36.3005 30.6707V17L23.5327 20.2365Z" fill="white"/>
</g>
<defs>
<clipPath id="clip0_29_872">
<rect width="20" height="20" fill="white" transform="translate(17 17)"/>
</clipPath>
</defs>
</svg>
