<svg width="160" height="3953" viewBox="0 0 160 3953" fill="none" xmlns="http://www.w3.org/2000/svg">
<path fill-rule="evenodd" clip-rule="evenodd" d="M139.028 1419.35C131.956 1399.28 114.398 1399.05 95.1337 1401.13C67.0899 1404.13 41.9725 1406.9 19.5375 1385.91C7.83232 1375.06 0.0288538 1358.69 0.0288538 1335.39C-0.328778 1324.96 2.64563 1314.67 8.5639 1305.87C23.6831 1285.11 49.2882 1291.8 9.29545 1265.04C9.49402 1261.24 8.74212 1257.45 7.10073 1253.97L0.516563 1240.36V1167.7C18.5621 1196.77 25.634 1209.22 22.9515 1244.97C29.2919 1223.75 42.4602 1227.21 57.5794 1217.06C51.483 1234.36 59.5303 1245.2 43.6795 1256.05C73.1864 1244.74 96.8407 1254.2 106.595 1279.34C106.595 1279.34 64.6513 1270.35 53.19 1286.03C77.8197 1286.26 102.206 1299.41 105.62 1320.63C112.448 1365.15 56.8479 1364.69 49.2883 1341.85C85.1355 1346.92 78.5513 1298.03 39.0462 1307.25C4.17445 1315.56 11.9779 1366.76 53.6777 1377.14C89.0372 1386.14 136.833 1363.3 134.639 1300.33C132.444 1237.36 73.918 1211.3 59.5303 1200.46C45.1427 1189.62 -1.19047 1167.01 0.760399 1129.18C2.71127 1091.36 35.1445 1064.6 85.867 1064.6H160C152.146 1070.36 143.21 1074.67 133.663 1077.29C124.342 1079.5 114.666 1080.05 105.132 1078.9C105.132 1078.9 126.591 1093.66 126.104 1126.88C125.616 1160.09 131.469 1173.01 139.028 1183.16C145.134 1190.76 151.994 1197.78 159.512 1204.15C159.512 1204.15 131.956 1210.61 113.911 1194.92C103.519 1186.16 97.1352 1173.92 96.1091 1160.78C56.604 1179.24 35.6322 1144.87 41.9725 1122.49C52.2146 1086.28 113.667 1112.35 77.0881 1143.48C77.0881 1143.48 104.156 1146.48 103.425 1118.57C101.474 1062.52 15.3919 1082.36 19.2937 1130.8C22.4638 1168.63 102.449 1203.46 122.934 1229.06C158.049 1273.34 168.291 1326.4 130.493 1373.45C130.493 1373.45 159.025 1384.29 139.028 1419.35Z" fill="url(#paint0_linear_166_365)"/>
<path fill-rule="evenodd" clip-rule="evenodd" d="M139.028 709.618C131.956 689.551 114.398 689.32 95.1337 691.396C67.0899 694.394 41.9725 697.162 19.5375 676.172C7.83232 665.331 0.0288538 648.955 0.0288538 625.658C-0.328778 615.229 2.64563 604.94 8.5639 596.134C23.6831 575.375 49.2882 582.064 9.29545 555.308C9.49402 551.505 8.74212 547.712 7.10073 544.236L0.516563 530.627V457.97C18.5621 487.033 25.634 499.489 22.9515 535.24C29.2919 514.02 42.4602 517.48 57.5794 507.331C51.483 524.63 59.5303 535.471 43.6795 546.312C73.1864 535.01 96.8407 544.467 106.595 569.608C106.595 569.608 64.6513 560.613 53.19 576.298C77.8197 576.528 102.206 589.676 105.62 610.896C112.448 655.413 56.8479 654.952 49.2883 632.117C85.1355 637.191 78.5513 588.292 39.0462 597.518C4.17445 605.822 11.9779 657.028 53.6777 667.407C89.0372 676.403 136.833 653.568 134.639 590.598C132.444 527.629 73.918 501.564 59.5303 490.724C45.1427 479.883 -1.19047 457.278 0.760399 419.45C2.71127 381.622 35.1445 354.866 85.867 354.866H160C152.146 360.629 143.21 364.933 133.663 367.552C124.342 369.769 114.666 370.316 105.132 369.167C105.132 369.167 126.591 383.929 126.104 417.144C125.616 450.358 131.469 463.275 139.028 473.424C145.134 481.022 151.994 488.05 159.512 494.414C159.512 494.414 131.956 500.872 113.911 485.188C103.519 476.424 97.1352 464.183 96.1091 451.05C56.604 469.503 35.6322 435.135 41.9725 412.761C52.2146 376.548 113.667 402.612 77.0881 433.751C77.0881 433.751 104.156 436.75 103.425 408.84C101.474 352.79 15.3919 372.627 19.2937 421.065C22.4638 458.893 102.449 493.722 122.934 519.325C158.049 563.611 168.291 616.663 130.493 663.717C130.493 663.717 159.025 674.558 139.028 709.618Z" fill="url(#paint1_linear_166_365)"/>
<path fill-rule="evenodd" clip-rule="evenodd" d="M139.028 709.618C131.956 729.685 114.398 729.916 95.1337 727.84C67.0899 724.842 41.9725 722.074 19.5375 743.064C7.83232 753.905 0.0288538 770.281 0.0288538 793.578C-0.328778 804.007 2.64563 814.296 8.5639 823.102C23.6831 843.861 49.2882 837.172 9.29545 863.928C9.48734 867.805 8.73652 871.671 7.10073 875.23L0.516563 888.609V961.266C18.5621 932.434 25.634 919.747 22.9515 883.995C29.2919 905.216 42.4602 901.756 57.5794 911.905C51.483 894.606 59.5303 883.995 43.6795 872.924C73.1864 884.457 96.8407 874.769 106.595 849.627C106.595 849.627 64.6513 858.854 53.19 842.938C77.8197 842.708 102.206 829.791 105.62 808.34C112.448 763.823 56.8479 764.284 49.2883 787.35C85.1355 782.045 78.5513 830.944 39.0462 821.718C4.17445 813.645 11.9779 762.208 53.6777 751.829C89.0372 742.833 136.833 765.668 134.639 828.638C132.444 891.607 73.918 917.671 59.5303 928.512C45.1427 939.353 -1.19047 961.958 0.760399 1000.02C2.71127 1038.07 35.1445 1064.6 85.867 1064.6H160C152.361 1058.81 143.563 1054.53 134.134 1052.04C124.706 1049.54 114.841 1048.87 105.132 1050.07C105.132 1050.07 126.591 1035.31 126.104 1002.09C125.616 968.878 131.469 955.961 139.028 945.812C145.207 938.272 152.06 931.25 159.512 924.822C159.512 924.822 131.956 918.594 113.911 934.048C103.519 942.811 97.1352 955.053 96.1091 968.186C56.604 949.964 35.6322 984.332 41.9725 1006.47C52.2146 1042.69 113.667 1016.62 77.0881 985.485C77.0881 985.485 104.156 982.717 103.425 1010.4C101.474 1066.45 15.3919 1046.61 19.2937 998.171C22.4638 960.574 102.449 925.514 122.934 899.911C158.049 855.625 168.291 802.573 130.493 755.519C130.493 755.519 159.025 744.678 139.028 709.618Z" fill="url(#paint2_linear_166_365)"/>
<path fill-rule="evenodd" clip-rule="evenodd" d="M139.028 0C131.956 20.0672 114.398 20.2978 95.1337 18.2219C67.0899 15.2233 41.9725 12.4555 19.5375 33.4454C7.83232 44.2863 0.0288538 60.6629 0.0288538 83.9594C-0.328778 94.3886 2.64563 104.678 8.5639 113.484C23.6831 134.243 49.2882 127.554 9.29545 154.31C9.48734 158.187 8.73652 162.053 7.10073 165.612L0.516563 178.99V251.648C18.5621 222.815 25.634 210.129 22.9515 174.377C29.2919 195.598 42.4602 192.138 57.5794 202.287C51.483 184.988 59.5303 174.377 43.6795 163.306C73.1864 174.839 96.8407 165.151 106.595 140.009C106.595 140.009 64.6513 149.236 53.19 133.32C77.8197 133.09 102.206 120.173 105.62 98.7215C112.448 54.2046 56.8479 54.6658 49.2883 77.7316C85.1355 72.4264 78.5513 121.326 39.0462 112.1C4.17445 104.027 11.9779 52.59 53.6777 42.2104C89.0372 33.2147 136.833 56.0498 134.639 119.019C132.444 181.989 73.918 208.053 59.5303 218.894C45.1427 229.735 -1.19047 252.34 0.760399 290.398C2.71127 328.457 35.1445 354.982 85.867 354.982H160C152.361 349.189 143.563 344.915 134.134 342.418C124.706 339.921 114.841 339.252 105.132 340.451C105.132 340.451 126.591 325.689 126.104 292.474C125.616 259.259 131.469 246.342 139.028 236.194C145.207 228.654 152.06 221.632 159.512 215.204C159.512 215.204 131.956 208.976 113.911 224.43C103.519 233.193 97.1352 245.434 96.1091 258.567C56.604 240.345 35.6322 274.713 41.9725 296.857C52.2146 333.07 113.667 307.005 77.0881 275.867C77.0881 275.867 104.156 273.099 103.425 300.778C101.474 356.828 15.3919 336.991 19.2937 288.553C22.4638 250.956 102.449 215.896 122.934 190.293C158.049 146.006 168.291 92.955 130.493 45.9008C130.493 45.9008 159.025 35.06 139.028 0Z" fill="url(#paint3_linear_166_365)"/>
<path fill-rule="evenodd" clip-rule="evenodd" d="M139.028 1419.35C131.956 1439.42 114.398 1439.65 95.1337 1437.57C67.0899 1434.58 41.9725 1431.81 19.5375 1452.8C7.83232 1463.64 0.0288538 1480.02 0.0288538 1503.31C-0.328778 1513.74 2.64563 1524.03 8.5639 1532.84C23.6831 1553.59 49.2882 1546.91 9.29545 1573.66C9.48734 1577.54 8.73652 1581.41 7.10073 1584.96L0.516563 1598.34V1671C18.5621 1642.17 25.634 1629.48 22.9515 1593.73C29.2919 1614.95 42.4602 1611.49 57.5794 1621.64C51.483 1604.34 59.5303 1593.73 43.6795 1582.66C73.1864 1594.19 96.8407 1584.5 106.595 1559.36C106.595 1559.36 64.6513 1568.59 53.19 1552.67C77.8197 1552.44 102.206 1539.52 105.62 1518.07C112.448 1473.56 56.8479 1474.02 49.2883 1497.08C85.1355 1491.78 78.5513 1540.68 39.0462 1531.45C4.17445 1523.38 11.9779 1471.94 53.6777 1461.56C89.0372 1452.57 136.833 1475.4 134.639 1538.37C132.444 1601.34 73.918 1627.41 59.5303 1638.25C45.1427 1649.09 -1.19047 1671.69 0.760399 1709.75C2.71127 1747.81 35.1445 1774.33 85.867 1774.33H160C152.361 1768.54 143.563 1764.27 134.134 1761.77C124.706 1759.27 114.841 1758.6 105.132 1759.8C105.132 1759.8 126.591 1745.04 126.104 1711.83C125.616 1678.61 131.469 1665.69 139.028 1655.55C145.207 1648.01 152.06 1640.98 159.512 1634.56C159.512 1634.56 131.956 1628.33 113.911 1643.78C103.519 1652.55 97.1352 1664.79 96.1091 1677.92C56.604 1659.7 35.6322 1694.07 41.9725 1716.21C52.2146 1752.42 113.667 1726.36 77.0881 1695.22C77.0881 1695.22 104.156 1692.45 103.425 1720.13C101.474 1776.18 15.3919 1756.34 19.2937 1707.91C22.4638 1670.31 102.449 1635.25 122.934 1609.64C158.049 1565.36 168.291 1512.31 130.493 1465.25C130.493 1465.25 159.025 1454.41 139.028 1419.35Z" fill="url(#paint4_linear_166_365)"/>
<path fill-rule="evenodd" clip-rule="evenodd" d="M139.028 2128.98C131.956 2149.05 114.398 2149.28 95.1337 2147.21C67.0899 2144.21 41.9725 2141.44 19.5375 2162.43C7.83232 2173.27 0.028849 2189.65 0.028849 2212.94C-0.328782 2223.37 2.64562 2233.66 8.5639 2242.47C23.6831 2263.23 49.2882 2256.54 9.29545 2283.29C9.49402 2287.1 8.74212 2290.89 7.10073 2294.36L0.516566 2307.97V2380.63C18.5621 2351.57 25.634 2339.11 22.9515 2303.36C29.2919 2324.58 42.4602 2321.12 57.5794 2331.27C51.483 2313.97 59.5303 2303.13 43.6795 2292.29C73.1864 2303.59 96.8407 2294.13 106.595 2268.99C106.595 2268.99 64.6513 2277.99 53.19 2262.3C77.8197 2262.07 102.206 2248.93 105.62 2227.7C112.448 2183.19 56.8479 2183.65 49.2883 2206.48C85.1355 2201.41 78.5513 2250.31 39.0462 2241.08C4.17445 2232.78 11.9779 2181.57 53.6777 2171.19C89.0372 2162.2 136.833 2185.03 134.639 2248C132.444 2310.97 73.918 2337.04 59.5303 2347.88C45.1427 2358.72 -1.19047 2381.32 0.760401 2419.15C2.71127 2456.98 35.1445 2483.73 85.867 2483.73H160C152.146 2477.97 143.21 2473.67 133.663 2471.05C124.342 2468.83 114.666 2468.28 105.132 2469.43C105.132 2469.43 126.591 2454.67 126.104 2421.46C125.616 2388.24 131.469 2375.33 139.028 2365.18C145.134 2357.58 151.994 2350.55 159.512 2344.19C159.512 2344.19 131.956 2337.73 113.911 2353.41C103.519 2362.18 97.1352 2374.42 96.1091 2387.55C56.604 2369.1 35.6322 2403.47 41.9725 2425.84C52.2146 2462.05 113.667 2435.99 77.0881 2404.85C77.0881 2404.85 104.156 2401.85 103.425 2429.76C101.474 2485.81 15.3919 2465.97 19.2937 2417.54C22.4638 2379.71 102.449 2344.88 122.934 2319.28C158.049 2274.99 168.291 2221.94 130.493 2174.88C130.493 2174.88 159.025 2164.04 139.028 2128.98Z" fill="url(#paint5_linear_166_365)"/>
<path fill-rule="evenodd" clip-rule="evenodd" d="M139.028 2838.72C131.956 2858.78 114.398 2859.01 95.1337 2856.94C67.0899 2853.94 41.9725 2851.17 19.5375 2872.16C7.83232 2883 0.028849 2899.38 0.028849 2922.68C-0.328782 2933.11 2.64562 2943.39 8.5639 2952.2C23.6831 2972.96 49.2882 2966.27 9.29545 2993.03C9.49402 2996.83 8.74212 3000.62 7.10073 3004.1L0.516566 3017.71V3090.36C18.5621 3061.3 25.634 3048.85 22.9515 3013.09C29.2919 3034.31 42.4602 3030.85 57.5794 3041C51.483 3023.7 59.5303 3012.86 43.6795 3002.02C73.1864 3013.32 96.8407 3003.87 106.595 2978.73C106.595 2978.73 64.6513 2987.72 53.19 2972.04C77.8197 2971.81 102.206 2958.66 105.62 2937.44C112.448 2892.92 56.8479 2893.38 49.2883 2916.22C85.1355 2911.14 78.5513 2960.04 39.0462 2950.82C4.17445 2942.51 11.9779 2891.31 53.6777 2880.93C89.0372 2871.93 136.833 2894.77 134.639 2957.74C132.444 3020.71 73.918 3046.77 59.5303 3057.61C45.1427 3068.45 -1.19047 3091.06 0.760401 3128.88C2.71127 3166.71 35.1445 3193.47 85.867 3193.47H160C152.146 3187.71 143.21 3183.4 133.663 3180.78C124.342 3178.57 114.666 3178.02 105.132 3179.17C105.132 3179.17 126.591 3164.41 126.104 3131.19C125.616 3097.98 131.469 3085.06 139.028 3074.91C145.134 3067.31 151.994 3060.28 159.512 3053.92C159.512 3053.92 131.956 3047.46 113.911 3063.15C103.519 3071.91 97.1352 3084.15 96.1091 3097.28C56.604 3078.83 35.6322 3113.2 41.9725 3135.57C52.2146 3171.79 113.667 3145.72 77.0881 3114.58C77.0881 3114.58 104.156 3111.58 103.425 3139.49C101.474 3195.54 15.3919 3175.71 19.2937 3127.27C22.4638 3089.44 102.449 3054.61 122.934 3029.01C158.049 2984.72 168.291 2931.67 130.493 2884.62C130.493 2884.62 159.025 2873.78 139.028 2838.72Z" fill="url(#paint6_linear_166_365)"/>
<path fill-rule="evenodd" clip-rule="evenodd" d="M139.028 2838.72C131.956 2818.65 114.398 2818.42 95.1337 2820.49C67.0899 2823.49 41.9725 2826.26 19.5375 2805.27C7.83232 2794.43 0.028849 2778.05 0.028849 2754.76C-0.328782 2744.33 2.64562 2734.04 8.5639 2725.23C23.6831 2704.47 49.2882 2711.16 9.29545 2684.41C9.48734 2680.53 8.73652 2676.66 7.10073 2673.1L0.516566 2659.73V2587.07C18.5621 2615.9 25.634 2628.59 22.9515 2664.34C29.2919 2643.12 42.4602 2646.58 57.5794 2636.43C51.483 2653.73 59.5303 2664.34 43.6795 2675.41C73.1864 2663.88 96.8407 2673.57 106.595 2698.71C106.595 2698.71 64.6513 2689.48 53.19 2705.4C77.8197 2705.63 102.206 2718.54 105.62 2739.99C112.448 2784.51 56.8479 2784.05 49.2883 2760.98C85.1355 2766.29 78.5513 2717.39 39.0462 2726.62C4.17445 2734.69 11.9779 2786.13 53.6777 2796.51C89.0372 2805.5 136.833 2782.67 134.639 2719.7C132.444 2656.73 73.918 2630.66 59.5303 2619.82C45.1427 2608.98 -1.19047 2586.38 0.760401 2548.32C2.71127 2510.26 35.1445 2483.73 85.867 2483.73H160C152.361 2489.53 143.563 2493.8 134.134 2496.3C124.706 2498.8 114.841 2499.46 105.132 2498.27C105.132 2498.27 126.591 2513.03 126.104 2546.24C125.616 2579.46 131.469 2592.37 139.028 2602.52C145.207 2610.06 152.06 2617.08 159.512 2623.51C159.512 2623.51 131.956 2629.74 113.911 2614.29C103.519 2605.52 97.1352 2593.28 96.1091 2580.15C56.604 2598.37 35.6322 2564 41.9725 2541.86C52.2146 2505.65 113.667 2531.71 77.0881 2562.85C77.0881 2562.85 104.156 2565.62 103.425 2537.94C101.474 2481.89 15.3919 2501.73 19.2937 2550.16C22.4638 2587.76 102.449 2622.82 122.934 2648.42C158.049 2692.71 168.291 2745.76 130.493 2792.82C130.493 2792.82 159.025 2803.66 139.028 2838.72Z" fill="url(#paint7_linear_166_365)"/>
<path fill-rule="evenodd" clip-rule="evenodd" d="M139.028 3548.33C131.956 3528.27 114.398 3528.04 95.1337 3530.11C67.0899 3533.11 41.9725 3535.88 19.5375 3514.89C7.83232 3504.05 0.028849 3487.67 0.028849 3464.38C-0.328782 3453.95 2.64562 3443.66 8.5639 3434.85C23.6831 3414.09 49.2882 3420.78 9.29545 3394.02C9.48734 3390.15 8.73652 3386.28 7.10073 3382.72L0.516566 3369.34V3296.69C18.5621 3325.52 25.634 3338.21 22.9515 3373.96C29.2919 3352.74 42.4602 3356.2 57.5794 3346.05C51.483 3363.35 59.5303 3373.96 43.6795 3385.03C73.1864 3373.5 96.8407 3383.18 106.595 3408.33C106.595 3408.33 64.6513 3399.1 53.19 3415.01C77.8197 3415.24 102.206 3428.16 105.62 3449.61C112.448 3494.13 56.8479 3493.67 49.2883 3470.6C85.1355 3475.91 78.5513 3427.01 39.0462 3436.23C4.17445 3444.31 11.9779 3495.74 53.6777 3506.12C89.0372 3515.12 136.833 3492.28 134.639 3429.32C132.444 3366.35 73.918 3340.28 59.5303 3329.44C45.1427 3318.6 -1.19047 3295.99 0.760401 3257.94C2.71127 3219.88 35.1445 3193.35 85.867 3193.35H160C152.361 3199.15 143.563 3203.42 134.134 3205.92C124.706 3208.41 114.841 3209.08 105.132 3207.88C105.132 3207.88 126.591 3222.65 126.104 3255.86C125.616 3289.08 131.469 3301.99 139.028 3312.14C145.207 3319.68 152.06 3326.7 159.512 3333.13C159.512 3333.13 131.956 3339.36 113.911 3323.9C103.519 3315.14 97.1352 3302.9 96.1091 3289.77C56.604 3307.99 35.6322 3273.62 41.9725 3251.48C52.2146 3215.26 113.667 3241.33 77.0881 3272.47C77.0881 3272.47 104.156 3275.24 103.425 3247.56C101.474 3191.51 15.3919 3211.34 19.2937 3259.78C22.4638 3297.38 102.449 3332.44 122.934 3358.04C158.049 3402.33 168.291 3455.38 130.493 3502.43C130.493 3502.43 159.025 3513.27 139.028 3548.33Z" fill="url(#paint8_linear_166_365)"/>
<path fill-rule="evenodd" clip-rule="evenodd" d="M139.028 2128.98C131.956 2108.92 114.398 2108.68 95.1337 2110.76C67.0899 2113.76 41.9725 2116.53 19.5375 2095.54C7.83232 2084.7 0.028849 2068.32 0.028849 2045.02C-0.328782 2034.59 2.64562 2024.3 8.5639 2015.5C23.6831 1994.74 49.2882 2001.43 9.29545 1974.67C9.48734 1970.8 8.73652 1966.93 7.10073 1963.37L0.516566 1949.99V1877.33C18.5621 1906.17 25.634 1918.85 22.9515 1954.6C29.2919 1933.38 42.4602 1936.84 57.5794 1926.7C51.483 1943.99 59.5303 1954.6 43.6795 1965.68C73.1864 1954.14 96.8407 1963.83 106.595 1988.97C106.595 1988.97 64.6513 1979.75 53.19 1995.66C77.8197 1995.89 102.206 2008.81 105.62 2030.26C112.448 2074.78 56.8479 2074.32 49.2883 2051.25C85.1355 2056.56 78.5513 2007.66 39.0462 2016.88C4.17445 2024.96 11.9779 2076.39 53.6777 2086.77C89.0372 2095.77 136.833 2072.93 134.639 2009.96C132.444 1946.99 73.918 1920.93 59.5303 1910.09C45.1427 1899.25 -1.19047 1876.64 0.760401 1838.58C2.71127 1800.53 35.1445 1774 85.867 1774H160C152.361 1779.79 143.563 1784.07 134.134 1786.56C124.706 1789.06 114.841 1789.73 105.132 1788.53C105.132 1788.53 126.591 1803.29 126.104 1836.51C125.616 1869.72 131.469 1882.64 139.028 1892.79C145.207 1900.33 152.06 1907.35 159.512 1913.78C159.512 1913.78 131.956 1920.01 113.911 1904.55C103.519 1895.79 97.1352 1883.55 96.1091 1870.41C56.604 1888.64 35.6322 1854.27 41.9725 1832.13C52.2146 1795.91 113.667 1821.98 77.0881 1853.12C77.0881 1853.12 104.156 1855.88 103.425 1828.2C101.474 1772.15 15.3919 1791.99 19.2937 1840.43C22.4638 1878.03 102.449 1913.09 122.934 1938.69C158.049 1982.98 168.291 2036.03 130.493 2083.08C130.493 2083.08 159.025 2093.92 139.028 2128.98Z" fill="url(#paint9_linear_166_365)"/>
<path fill-rule="evenodd" clip-rule="evenodd" d="M139.028 4967.35C131.956 4947.28 114.398 4947.05 95.1337 4949.13C67.0899 4952.13 41.9725 4954.9 19.5375 4933.91C7.83232 4923.06 0.028849 4906.69 0.028849 4883.39C-0.328782 4872.96 2.64562 4862.67 8.5639 4853.87C23.6831 4833.11 49.2882 4839.8 9.29545 4813.04C9.49402 4809.24 8.74212 4805.45 7.10073 4801.97L0.516566 4788.36V4715.7C18.5621 4744.77 25.634 4757.22 22.9515 4792.97C29.2919 4771.75 42.4602 4775.21 57.5794 4765.06C51.483 4782.36 59.5303 4793.2 43.6795 4804.05C73.1864 4792.74 96.8407 4802.2 106.595 4827.34C106.595 4827.34 64.6513 4818.35 53.19 4834.03C77.8197 4834.26 102.206 4847.41 105.62 4868.63C112.448 4913.15 56.8479 4912.69 49.2883 4889.85C85.1355 4894.92 78.5513 4846.03 39.0462 4855.25C4.17445 4863.56 11.9779 4914.76 53.6777 4925.14C89.0372 4934.14 136.833 4911.3 134.639 4848.33C132.444 4785.36 73.918 4759.3 59.5303 4748.46C45.1427 4737.62 -1.19047 4715.01 0.760401 4677.18C2.71127 4639.36 35.1445 4612.6 85.867 4612.6H160C152.146 4618.36 143.21 4622.67 133.663 4625.29C124.342 4627.5 114.666 4628.05 105.132 4626.9C105.132 4626.9 126.591 4641.66 126.104 4674.88C125.616 4708.09 131.469 4721.01 139.028 4731.16C145.134 4738.75 151.994 4745.78 159.512 4752.15C159.512 4752.15 131.956 4758.61 113.911 4742.92C103.519 4734.16 97.1352 4721.92 96.1091 4708.78C56.604 4727.24 35.6322 4692.87 41.9725 4670.49C52.2146 4634.28 113.667 4660.35 77.0881 4691.48C77.0881 4691.48 104.156 4694.48 103.425 4666.57C101.474 4610.52 15.3919 4630.36 19.2937 4678.8C22.4638 4716.63 102.449 4751.46 122.934 4777.06C158.049 4821.34 168.291 4874.4 130.493 4921.45C130.493 4921.45 159.025 4932.29 139.028 4967.35Z" fill="url(#paint10_linear_166_365)"/>
<path fill-rule="evenodd" clip-rule="evenodd" d="M139.028 4257.62C131.956 4237.55 114.398 4237.32 95.1337 4239.4C67.0899 4242.39 41.9725 4245.16 19.5375 4224.17C7.83232 4213.33 0.028849 4196.95 0.028849 4173.66C-0.328782 4163.23 2.64562 4152.94 8.5639 4144.13C23.6831 4123.38 49.2882 4130.06 9.29545 4103.31C9.49402 4099.51 8.74212 4095.71 7.10073 4092.24L0.516566 4078.63V4005.97C18.5621 4035.03 25.634 4047.49 22.9515 4083.24C29.2919 4062.02 42.4602 4065.48 57.5794 4055.33C51.483 4072.63 59.5303 4083.47 43.6795 4094.31C73.1864 4083.01 96.8407 4092.47 106.595 4117.61C106.595 4117.61 64.6513 4108.61 53.19 4124.3C77.8197 4124.53 102.206 4137.68 105.62 4158.9C112.448 4203.41 56.8479 4202.95 49.2883 4180.12C85.1355 4185.19 78.5513 4136.29 39.0462 4145.52C4.17445 4153.82 11.9779 4205.03 53.6777 4215.41C89.0372 4224.4 136.833 4201.57 134.639 4138.6C132.444 4075.63 73.918 4049.56 59.5303 4038.72C45.1427 4027.88 -1.19047 4005.28 0.760401 3967.45C2.71127 3929.62 35.1445 3902.87 85.867 3902.87H160C152.146 3908.63 143.21 3912.93 133.663 3915.55C124.342 3917.77 114.666 3918.32 105.132 3917.17C105.132 3917.17 126.591 3931.93 126.104 3965.14C125.616 3998.36 131.469 4011.28 139.028 4021.42C145.134 4029.02 151.994 4036.05 159.512 4042.41C159.512 4042.41 131.956 4048.87 113.911 4033.19C103.519 4024.42 97.1352 4012.18 96.1091 3999.05C56.604 4017.5 35.6322 3983.14 41.9725 3960.76C52.2146 3924.55 113.667 3950.61 77.0881 3981.75C77.0881 3981.75 104.156 3984.75 103.425 3956.84C101.474 3900.79 15.3919 3920.63 19.2937 3969.06C22.4638 4006.89 102.449 4041.72 122.934 4067.33C158.049 4111.61 168.291 4164.66 130.493 4211.72C130.493 4211.72 159.025 4222.56 139.028 4257.62Z" fill="url(#paint11_linear_166_365)"/>
<path fill-rule="evenodd" clip-rule="evenodd" d="M139.028 4257.62C131.956 4277.69 114.398 4277.92 95.1337 4275.84C67.0899 4272.84 41.9725 4270.07 19.5375 4291.06C7.83232 4301.9 0.028849 4318.28 0.028849 4341.58C-0.328782 4352.01 2.64562 4362.3 8.5639 4371.1C23.6831 4391.86 49.2882 4385.17 9.29545 4411.93C9.48734 4415.8 8.73652 4419.67 7.10073 4423.23L0.516566 4436.61V4509.27C18.5621 4480.43 25.634 4467.75 22.9515 4432C29.2919 4453.22 42.4602 4449.76 57.5794 4459.9C51.483 4442.61 59.5303 4432 43.6795 4420.92C73.1864 4432.46 96.8407 4422.77 106.595 4397.63C106.595 4397.63 64.6513 4406.85 53.19 4390.94C77.8197 4390.71 102.206 4377.79 105.62 4356.34C112.448 4311.82 56.8479 4312.28 49.2883 4335.35C85.1355 4330.04 78.5513 4378.94 39.0462 4369.72C4.17445 4361.64 11.9779 4310.21 53.6777 4299.83C89.0372 4290.83 136.833 4313.67 134.639 4376.64C132.444 4439.61 73.918 4465.67 59.5303 4476.51C45.1427 4487.35 -1.19047 4509.96 0.760401 4548.02C2.71127 4586.07 35.1445 4612.6 85.867 4612.6H160C152.361 4606.81 143.563 4602.53 134.134 4600.04C124.706 4597.54 114.841 4596.87 105.132 4598.07C105.132 4598.07 126.591 4583.31 126.104 4550.09C125.616 4516.88 131.469 4503.96 139.028 4493.81C145.207 4486.27 152.06 4479.25 159.512 4472.82C159.512 4472.82 131.956 4466.59 113.911 4482.05C103.519 4490.81 97.1352 4503.05 96.1091 4516.19C56.604 4497.96 35.6322 4532.33 41.9725 4554.47C52.2146 4590.69 113.667 4564.62 77.0881 4533.48C77.0881 4533.48 104.156 4530.72 103.425 4558.4C101.474 4614.45 15.3919 4594.61 19.2937 4546.17C22.4638 4508.57 102.449 4473.51 122.934 4447.91C158.049 4403.62 168.291 4350.57 130.493 4303.52C130.493 4303.52 159.025 4292.68 139.028 4257.62Z" fill="url(#paint12_linear_166_365)"/>
<path fill-rule="evenodd" clip-rule="evenodd" d="M139.028 3548C131.956 3568.07 114.398 3568.3 95.1337 3566.22C67.0899 3563.22 41.9725 3560.46 19.5375 3581.45C7.83232 3592.29 0.028849 3608.66 0.028849 3631.96C-0.328782 3642.39 2.64562 3652.68 8.5639 3661.48C23.6831 3682.24 49.2882 3675.55 9.29545 3702.31C9.48734 3706.19 8.73652 3710.05 7.10073 3713.61L0.516566 3726.99V3799.65C18.5621 3770.82 25.634 3758.13 22.9515 3722.38C29.2919 3743.6 42.4602 3740.14 57.5794 3750.29C51.483 3732.99 59.5303 3722.38 43.6795 3711.31C73.1864 3722.84 96.8407 3713.15 106.595 3688.01C106.595 3688.01 64.6513 3697.24 53.19 3681.32C77.8197 3681.09 102.206 3668.17 105.62 3646.72C112.448 3602.2 56.8479 3602.67 49.2883 3625.73C85.1355 3620.43 78.5513 3669.33 39.0462 3660.1C4.17445 3652.03 11.9779 3600.59 53.6777 3590.21C89.0372 3581.21 136.833 3604.05 134.639 3667.02C132.444 3729.99 73.918 3756.05 59.5303 3766.89C45.1427 3777.74 -1.19047 3800.34 0.760401 3838.4C2.71127 3876.46 35.1445 3902.98 85.867 3902.98H160C152.361 3897.19 143.563 3892.92 134.134 3890.42C124.706 3887.92 114.841 3887.25 105.132 3888.45C105.132 3888.45 126.591 3873.69 126.104 3840.47C125.616 3807.26 131.469 3794.34 139.028 3784.19C145.207 3776.65 152.06 3769.63 159.512 3763.2C159.512 3763.2 131.956 3756.98 113.911 3772.43C103.519 3781.19 97.1352 3793.43 96.1091 3806.57C56.604 3788.35 35.6322 3822.71 41.9725 3844.86C52.2146 3881.07 113.667 3855.01 77.0881 3823.87C77.0881 3823.87 104.156 3821.1 103.425 3848.78C101.474 3904.83 15.3919 3884.99 19.2937 3836.55C22.4638 3798.96 102.449 3763.9 122.934 3738.29C158.049 3694.01 168.291 3640.96 130.493 3593.9C130.493 3593.9 159.025 3583.06 139.028 3548Z" fill="url(#paint13_linear_166_365)"/>
<path fill-rule="evenodd" clip-rule="evenodd" d="M139.028 4967.35C131.956 4987.42 114.398 4987.65 95.1337 4985.57C67.0899 4982.58 41.9725 4979.81 19.5375 5000.8C7.83232 5011.64 0.028849 5028.02 0.028849 5051.31C-0.328782 5061.74 2.64562 5072.03 8.5639 5080.84C23.6831 5101.6 49.2882 5094.91 9.29545 5121.66C9.48734 5125.54 8.73652 5129.41 7.10073 5132.96L0.516566 5146.34V5219C18.5621 5190.17 25.634 5177.48 22.9515 5141.73C29.2919 5162.95 42.4602 5159.49 57.5794 5169.64C51.483 5152.34 59.5303 5141.73 43.6795 5130.66C73.1864 5142.19 96.8407 5132.5 106.595 5107.36C106.595 5107.36 64.6513 5116.59 53.19 5100.67C77.8197 5100.44 102.206 5087.52 105.62 5066.07C112.448 5021.56 56.8479 5022.02 49.2883 5045.08C85.1355 5039.78 78.5513 5088.68 39.0462 5079.45C4.17445 5071.38 11.9779 5019.94 53.6777 5009.56C89.0372 5000.57 136.833 5023.4 134.639 5086.37C132.444 5149.34 73.918 5175.41 59.5303 5186.25C45.1427 5197.09 -1.19047 5219.69 0.760401 5257.75C2.71127 5295.81 35.1445 5322.33 85.867 5322.33H160C152.361 5316.54 143.563 5312.27 134.134 5309.77C124.706 5307.27 114.841 5306.6 105.132 5307.8C105.132 5307.8 126.591 5293.04 126.104 5259.83C125.616 5226.61 131.469 5213.69 139.028 5203.55C145.207 5196.01 152.06 5188.98 159.512 5182.56C159.512 5182.56 131.956 5176.33 113.911 5191.78C103.519 5200.55 97.1352 5212.79 96.1091 5225.92C56.604 5207.7 35.6322 5242.07 41.9725 5264.21C52.2146 5300.42 113.667 5274.36 77.0881 5243.22C77.0881 5243.22 104.156 5240.45 103.425 5268.13C101.474 5324.18 15.3919 5304.34 19.2937 5255.9C22.4638 5218.31 102.449 5183.25 122.934 5157.64C158.049 5113.36 168.291 5060.31 130.493 5013.25C130.493 5013.25 159.025 5002.41 139.028 4967.35Z" fill="url(#paint14_linear_166_365)"/>
<defs>
<linearGradient id="paint0_linear_166_365" x1="306" y1="1688.5" x2="-1.41105e-05" y2="1684.5" gradientUnits="userSpaceOnUse">
<stop stop-color="#3CCECE"/>
<stop offset="0.0474673" stop-color="#3CCECE" stop-opacity="0.733148"/>
<stop offset="0.31794" stop-color="#3CCECE" stop-opacity="0.517958"/>
<stop offset="0.712455" stop-color="#3CCECE" stop-opacity="0.198937"/>
<stop offset="1" stop-color="#3CCECE" stop-opacity="0"/>
</linearGradient>
<linearGradient id="paint1_linear_166_365" x1="306" y1="1688.5" x2="-1.41105e-05" y2="1684.5" gradientUnits="userSpaceOnUse">
<stop stop-color="#3CCECE"/>
<stop offset="0.0474673" stop-color="#3CCECE" stop-opacity="0.733148"/>
<stop offset="0.31794" stop-color="#3CCECE" stop-opacity="0.517958"/>
<stop offset="0.712455" stop-color="#3CCECE" stop-opacity="0.198937"/>
<stop offset="1" stop-color="#3CCECE" stop-opacity="0"/>
</linearGradient>
<linearGradient id="paint2_linear_166_365" x1="306" y1="1688.5" x2="-1.41105e-05" y2="1684.5" gradientUnits="userSpaceOnUse">
<stop stop-color="#3CCECE"/>
<stop offset="0.0474673" stop-color="#3CCECE" stop-opacity="0.733148"/>
<stop offset="0.31794" stop-color="#3CCECE" stop-opacity="0.517958"/>
<stop offset="0.712455" stop-color="#3CCECE" stop-opacity="0.198937"/>
<stop offset="1" stop-color="#3CCECE" stop-opacity="0"/>
</linearGradient>
<linearGradient id="paint3_linear_166_365" x1="306" y1="1688.5" x2="-1.41105e-05" y2="1684.5" gradientUnits="userSpaceOnUse">
<stop stop-color="#3CCECE"/>
<stop offset="0.0474673" stop-color="#3CCECE" stop-opacity="0.733148"/>
<stop offset="0.31794" stop-color="#3CCECE" stop-opacity="0.517958"/>
<stop offset="0.712455" stop-color="#3CCECE" stop-opacity="0.198937"/>
<stop offset="1" stop-color="#3CCECE" stop-opacity="0"/>
</linearGradient>
<linearGradient id="paint4_linear_166_365" x1="306" y1="1688.5" x2="-1.41105e-05" y2="1684.5" gradientUnits="userSpaceOnUse">
<stop stop-color="#3CCECE"/>
<stop offset="0.0474673" stop-color="#3CCECE" stop-opacity="0.733148"/>
<stop offset="0.31794" stop-color="#3CCECE" stop-opacity="0.517958"/>
<stop offset="0.712455" stop-color="#3CCECE" stop-opacity="0.198937"/>
<stop offset="1" stop-color="#3CCECE" stop-opacity="0"/>
</linearGradient>
<linearGradient id="paint5_linear_166_365" x1="306" y1="1688.5" x2="-1.41105e-05" y2="1684.5" gradientUnits="userSpaceOnUse">
<stop stop-color="#3CCECE"/>
<stop offset="0.0474673" stop-color="#3CCECE" stop-opacity="0.733148"/>
<stop offset="0.31794" stop-color="#3CCECE" stop-opacity="0.517958"/>
<stop offset="0.712455" stop-color="#3CCECE" stop-opacity="0.198937"/>
<stop offset="1" stop-color="#3CCECE" stop-opacity="0"/>
</linearGradient>
<linearGradient id="paint6_linear_166_365" x1="306" y1="1688.5" x2="-1.41105e-05" y2="1684.5" gradientUnits="userSpaceOnUse">
<stop stop-color="#3CCECE"/>
<stop offset="0.0474673" stop-color="#3CCECE" stop-opacity="0.733148"/>
<stop offset="0.31794" stop-color="#3CCECE" stop-opacity="0.517958"/>
<stop offset="0.712455" stop-color="#3CCECE" stop-opacity="0.198937"/>
<stop offset="1" stop-color="#3CCECE" stop-opacity="0"/>
</linearGradient>
<linearGradient id="paint7_linear_166_365" x1="306" y1="1688.5" x2="-1.41105e-05" y2="1684.5" gradientUnits="userSpaceOnUse">
<stop stop-color="#3CCECE"/>
<stop offset="0.0474673" stop-color="#3CCECE" stop-opacity="0.733148"/>
<stop offset="0.31794" stop-color="#3CCECE" stop-opacity="0.517958"/>
<stop offset="0.712455" stop-color="#3CCECE" stop-opacity="0.198937"/>
<stop offset="1" stop-color="#3CCECE" stop-opacity="0"/>
</linearGradient>
<linearGradient id="paint8_linear_166_365" x1="306" y1="1688.5" x2="-1.41105e-05" y2="1684.5" gradientUnits="userSpaceOnUse">
<stop stop-color="#3CCECE"/>
<stop offset="0.0474673" stop-color="#3CCECE" stop-opacity="0.733148"/>
<stop offset="0.31794" stop-color="#3CCECE" stop-opacity="0.517958"/>
<stop offset="0.712455" stop-color="#3CCECE" stop-opacity="0.198937"/>
<stop offset="1" stop-color="#3CCECE" stop-opacity="0"/>
</linearGradient>
<linearGradient id="paint9_linear_166_365" x1="306" y1="1688.5" x2="-1.41105e-05" y2="1684.5" gradientUnits="userSpaceOnUse">
<stop stop-color="#3CCECE"/>
<stop offset="0.0474673" stop-color="#3CCECE" stop-opacity="0.733148"/>
<stop offset="0.31794" stop-color="#3CCECE" stop-opacity="0.517958"/>
<stop offset="0.712455" stop-color="#3CCECE" stop-opacity="0.198937"/>
<stop offset="1" stop-color="#3CCECE" stop-opacity="0"/>
</linearGradient>
<linearGradient id="paint10_linear_166_365" x1="306" y1="1688.5" x2="-1.41105e-05" y2="1684.5" gradientUnits="userSpaceOnUse">
<stop stop-color="#3CCECE"/>
<stop offset="0.0474673" stop-color="#3CCECE" stop-opacity="0.733148"/>
<stop offset="0.31794" stop-color="#3CCECE" stop-opacity="0.517958"/>
<stop offset="0.712455" stop-color="#3CCECE" stop-opacity="0.198937"/>
<stop offset="1" stop-color="#3CCECE" stop-opacity="0"/>
</linearGradient>
<linearGradient id="paint11_linear_166_365" x1="306" y1="1688.5" x2="-1.41105e-05" y2="1684.5" gradientUnits="userSpaceOnUse">
<stop stop-color="#3CCECE"/>
<stop offset="0.0474673" stop-color="#3CCECE" stop-opacity="0.733148"/>
<stop offset="0.31794" stop-color="#3CCECE" stop-opacity="0.517958"/>
<stop offset="0.712455" stop-color="#3CCECE" stop-opacity="0.198937"/>
<stop offset="1" stop-color="#3CCECE" stop-opacity="0"/>
</linearGradient>
<linearGradient id="paint12_linear_166_365" x1="306" y1="1688.5" x2="-1.41105e-05" y2="1684.5" gradientUnits="userSpaceOnUse">
<stop stop-color="#3CCECE"/>
<stop offset="0.0474673" stop-color="#3CCECE" stop-opacity="0.733148"/>
<stop offset="0.31794" stop-color="#3CCECE" stop-opacity="0.517958"/>
<stop offset="0.712455" stop-color="#3CCECE" stop-opacity="0.198937"/>
<stop offset="1" stop-color="#3CCECE" stop-opacity="0"/>
</linearGradient>
<linearGradient id="paint13_linear_166_365" x1="306" y1="1688.5" x2="-1.41105e-05" y2="1684.5" gradientUnits="userSpaceOnUse">
<stop stop-color="#3CCECE"/>
<stop offset="0.0474673" stop-color="#3CCECE" stop-opacity="0.733148"/>
<stop offset="0.31794" stop-color="#3CCECE" stop-opacity="0.517958"/>
<stop offset="0.712455" stop-color="#3CCECE" stop-opacity="0.198937"/>
<stop offset="1" stop-color="#3CCECE" stop-opacity="0"/>
</linearGradient>
<linearGradient id="paint14_linear_166_365" x1="306" y1="1688.5" x2="-1.41105e-05" y2="1684.5" gradientUnits="userSpaceOnUse">
<stop stop-color="#3CCECE"/>
<stop offset="0.0474673" stop-color="#3CCECE" stop-opacity="0.733148"/>
<stop offset="0.31794" stop-color="#3CCECE" stop-opacity="0.517958"/>
<stop offset="0.712455" stop-color="#3CCECE" stop-opacity="0.198937"/>
<stop offset="1" stop-color="#3CCECE" stop-opacity="0"/>
</linearGradient>
</defs>
</svg>
