<svg width="160" height="3953" viewBox="0 0 160 3953" fill="none" xmlns="http://www.w3.org/2000/svg">
<path fill-rule="evenodd" clip-rule="evenodd" d="M20.9718 1419.35C28.0437 1399.28 45.6015 1399.05 64.8663 1401.13C92.9101 1404.13 118.027 1406.9 140.462 1385.91C152.168 1375.06 159.971 1358.69 159.971 1335.39C160.329 1324.96 157.354 1314.67 151.436 1305.87C136.317 1285.11 110.712 1291.8 150.705 1265.04C150.506 1261.24 151.258 1257.45 152.899 1253.97L159.483 1240.36V1167.7C141.438 1196.77 134.366 1209.22 137.048 1244.97C130.708 1223.75 117.54 1227.21 102.421 1217.06C108.517 1234.36 100.47 1245.2 116.32 1256.05C86.8136 1244.74 63.1593 1254.2 53.405 1279.34C53.405 1279.34 95.3487 1270.35 106.81 1286.03C82.1803 1286.26 57.7945 1299.41 54.3804 1320.63C47.5524 1365.15 103.152 1364.69 110.712 1341.85C74.8645 1346.92 81.4487 1298.03 120.954 1307.25C155.826 1315.56 148.022 1366.76 106.322 1377.14C70.9628 1386.14 23.1665 1363.3 25.3613 1300.33C27.556 1237.36 86.082 1211.3 100.47 1200.46C114.857 1189.62 161.19 1167.01 159.24 1129.18C157.289 1091.36 124.856 1064.6 74.133 1064.6H0C7.85398 1070.36 16.7902 1074.67 26.3367 1077.29C35.6575 1079.5 45.3344 1080.05 54.8682 1078.9C54.8682 1078.9 33.4086 1093.66 33.8963 1126.88C34.384 1160.09 28.5314 1173.01 20.9718 1183.16C14.8656 1190.76 8.00646 1197.78 0.48771 1204.15C0.48771 1204.15 28.0437 1210.61 46.0892 1194.92C56.4813 1186.16 62.8648 1173.92 63.8909 1160.78C103.396 1179.24 124.368 1144.87 118.027 1122.49C107.785 1086.28 46.3331 1112.35 82.9119 1143.48C82.9119 1143.48 55.8436 1146.48 56.5752 1118.57C58.526 1062.52 144.608 1082.36 140.706 1130.8C137.536 1168.63 57.5506 1203.46 37.0665 1229.06C1.95086 1273.34 -8.29121 1326.4 29.5069 1373.45C29.5069 1373.45 0.975412 1384.29 20.9718 1419.35Z" fill="url(#paint0_linear_166_364)"/>
<path fill-rule="evenodd" clip-rule="evenodd" d="M20.9718 709.618C28.0437 689.551 45.6015 689.32 64.8663 691.396C92.9101 694.394 118.027 697.162 140.462 676.172C152.168 665.331 159.971 648.955 159.971 625.658C160.329 615.229 157.354 604.94 151.436 596.134C136.317 575.375 110.712 582.064 150.705 555.308C150.506 551.505 151.258 547.712 152.899 544.236L159.483 530.627V457.97C141.438 487.033 134.366 499.489 137.048 535.24C130.708 514.02 117.54 517.48 102.421 507.331C108.517 524.63 100.47 535.471 116.32 546.312C86.8136 535.01 63.1593 544.467 53.405 569.608C53.405 569.608 95.3487 560.613 106.81 576.298C82.1803 576.528 57.7945 589.676 54.3804 610.896C47.5524 655.413 103.152 654.952 110.712 632.117C74.8645 637.191 81.4487 588.292 120.954 597.518C155.826 605.822 148.022 657.028 106.322 667.407C70.9628 676.403 23.1665 653.568 25.3613 590.598C27.556 527.629 86.082 501.564 100.47 490.724C114.857 479.883 161.19 457.278 159.24 419.45C157.289 381.622 124.856 354.866 74.133 354.866H0C7.85398 360.629 16.7902 364.933 26.3367 367.552C35.6575 369.769 45.3344 370.316 54.8682 369.167C54.8682 369.167 33.4086 383.929 33.8963 417.144C34.384 450.358 28.5314 463.275 20.9718 473.424C14.8656 481.022 8.00646 488.05 0.48771 494.414C0.48771 494.414 28.0437 500.872 46.0892 485.188C56.4813 476.424 62.8648 464.183 63.8909 451.05C103.396 469.503 124.368 435.135 118.027 412.761C107.785 376.548 46.3331 402.612 82.9119 433.751C82.9119 433.751 55.8436 436.75 56.5752 408.84C58.526 352.79 144.608 372.627 140.706 421.065C137.536 458.893 57.5506 493.722 37.0665 519.325C1.95086 563.611 -8.29121 616.663 29.5069 663.717C29.5069 663.717 0.975412 674.558 20.9718 709.618Z" fill="url(#paint1_linear_166_364)"/>
<path fill-rule="evenodd" clip-rule="evenodd" d="M20.9718 709.618C28.0437 729.685 45.6015 729.916 64.8663 727.84C92.9101 724.842 118.027 722.074 140.462 743.064C152.168 753.905 159.971 770.281 159.971 793.578C160.329 804.007 157.354 814.296 151.436 823.102C136.317 843.861 110.712 837.172 150.705 863.928C150.513 867.805 151.263 871.671 152.899 875.23L159.483 888.609V961.266C141.438 932.434 134.366 919.747 137.048 883.995C130.708 905.216 117.54 901.756 102.421 911.905C108.517 894.606 100.47 883.995 116.32 872.924C86.8136 884.457 63.1593 874.769 53.405 849.627C53.405 849.627 95.3487 858.854 106.81 842.938C82.1803 842.708 57.7945 829.791 54.3804 808.34C47.5524 763.823 103.152 764.284 110.712 787.35C74.8645 782.045 81.4487 830.944 120.954 821.718C155.826 813.645 148.022 762.208 106.322 751.829C70.9628 742.833 23.1665 765.668 25.3613 828.638C27.556 891.607 86.082 917.671 100.47 928.512C114.857 939.353 161.19 961.958 159.24 1000.02C157.289 1038.07 124.856 1064.6 74.133 1064.6H0C7.63894 1058.81 16.4369 1054.53 25.8656 1052.04C35.2943 1049.54 45.1592 1048.87 54.8682 1050.07C54.8682 1050.07 33.4086 1035.31 33.8963 1002.09C34.384 968.878 28.5314 955.961 20.9718 945.812C14.7929 938.272 7.93956 931.25 0.48771 924.822C0.48771 924.822 28.0437 918.594 46.0892 934.048C56.4813 942.811 62.8648 955.053 63.8909 968.186C103.396 949.964 124.368 984.332 118.027 1006.47C107.785 1042.69 46.3331 1016.62 82.9119 985.485C82.9119 985.485 55.8436 982.717 56.5752 1010.4C58.526 1066.45 144.608 1046.61 140.706 998.171C137.536 960.574 57.5506 925.514 37.0665 899.911C1.95086 855.625 -8.29121 802.573 29.5069 755.519C29.5069 755.519 0.975412 744.678 20.9718 709.618Z" fill="url(#paint2_linear_166_364)"/>
<path fill-rule="evenodd" clip-rule="evenodd" d="M20.9718 0C28.0437 20.0672 45.6015 20.2978 64.8663 18.2219C92.9101 15.2233 118.027 12.4555 140.462 33.4454C152.168 44.2863 159.971 60.6629 159.971 83.9594C160.329 94.3886 157.354 104.678 151.436 113.484C136.317 134.243 110.712 127.554 150.705 154.31C150.513 158.187 151.263 162.053 152.899 165.612L159.483 178.99V251.648C141.438 222.815 134.366 210.129 137.048 174.377C130.708 195.598 117.54 192.138 102.421 202.287C108.517 184.988 100.47 174.377 116.32 163.306C86.8136 174.839 63.1593 165.151 53.405 140.009C53.405 140.009 95.3487 149.236 106.81 133.32C82.1803 133.09 57.7945 120.173 54.3804 98.7215C47.5524 54.2046 103.152 54.6658 110.712 77.7316C74.8645 72.4264 81.4487 121.326 120.954 112.1C155.826 104.027 148.022 52.59 106.322 42.2104C70.9628 33.2147 23.1665 56.0498 25.3613 119.019C27.556 181.989 86.082 208.053 100.47 218.894C114.857 229.735 161.19 252.34 159.24 290.398C157.289 328.457 124.856 354.982 74.133 354.982H0C7.63894 349.189 16.4369 344.915 25.8656 342.418C35.2943 339.921 45.1592 339.252 54.8682 340.451C54.8682 340.451 33.4086 325.689 33.8963 292.474C34.384 259.259 28.5314 246.342 20.9718 236.194C14.7929 228.654 7.93956 221.632 0.48771 215.204C0.48771 215.204 28.0437 208.976 46.0892 224.43C56.4813 233.193 62.8648 245.434 63.8909 258.567C103.396 240.345 124.368 274.713 118.027 296.857C107.785 333.07 46.3331 307.005 82.9119 275.867C82.9119 275.867 55.8436 273.099 56.5752 300.778C58.526 356.828 144.608 336.991 140.706 288.553C137.536 250.956 57.5506 215.896 37.0665 190.293C1.95086 146.006 -8.29121 92.955 29.5069 45.9008C29.5069 45.9008 0.975412 35.06 20.9718 0Z" fill="url(#paint3_linear_166_364)"/>
<path fill-rule="evenodd" clip-rule="evenodd" d="M20.9718 1419.35C28.0437 1439.42 45.6015 1439.65 64.8663 1437.57C92.9101 1434.58 118.027 1431.81 140.462 1452.8C152.168 1463.64 159.971 1480.02 159.971 1503.31C160.329 1513.74 157.354 1524.03 151.436 1532.84C136.317 1553.59 110.712 1546.91 150.705 1573.66C150.513 1577.54 151.263 1581.41 152.899 1584.96L159.483 1598.34V1671C141.438 1642.17 134.366 1629.48 137.048 1593.73C130.708 1614.95 117.54 1611.49 102.421 1621.64C108.517 1604.34 100.47 1593.73 116.32 1582.66C86.8136 1594.19 63.1593 1584.5 53.405 1559.36C53.405 1559.36 95.3487 1568.59 106.81 1552.67C82.1803 1552.44 57.7945 1539.52 54.3804 1518.07C47.5524 1473.56 103.152 1474.02 110.712 1497.08C74.8645 1491.78 81.4487 1540.68 120.954 1531.45C155.826 1523.38 148.022 1471.94 106.322 1461.56C70.9628 1452.57 23.1665 1475.4 25.3613 1538.37C27.556 1601.34 86.082 1627.41 100.47 1638.25C114.857 1649.09 161.19 1671.69 159.24 1709.75C157.289 1747.81 124.856 1774.33 74.133 1774.33H0C7.63894 1768.54 16.4369 1764.27 25.8656 1761.77C35.2943 1759.27 45.1592 1758.6 54.8682 1759.8C54.8682 1759.8 33.4086 1745.04 33.8963 1711.83C34.384 1678.61 28.5314 1665.69 20.9718 1655.55C14.7929 1648.01 7.93956 1640.98 0.48771 1634.56C0.48771 1634.56 28.0437 1628.33 46.0892 1643.78C56.4813 1652.55 62.8648 1664.79 63.8909 1677.92C103.396 1659.7 124.368 1694.07 118.027 1716.21C107.785 1752.42 46.3331 1726.36 82.9119 1695.22C82.9119 1695.22 55.8436 1692.45 56.5752 1720.13C58.526 1776.18 144.608 1756.34 140.706 1707.91C137.536 1670.31 57.5506 1635.25 37.0665 1609.64C1.95086 1565.36 -8.29121 1512.31 29.5069 1465.25C29.5069 1465.25 0.975412 1454.41 20.9718 1419.35Z" fill="url(#paint4_linear_166_364)"/>
<path fill-rule="evenodd" clip-rule="evenodd" d="M20.9718 2128.98C28.0437 2149.05 45.6015 2149.28 64.8663 2147.21C92.9101 2144.21 118.027 2141.44 140.462 2162.43C152.168 2173.27 159.971 2189.65 159.971 2212.94C160.329 2223.37 157.354 2233.66 151.436 2242.47C136.317 2263.23 110.712 2256.54 150.705 2283.29C150.506 2287.1 151.258 2290.89 152.899 2294.36L159.483 2307.97V2380.63C141.438 2351.57 134.366 2339.11 137.048 2303.36C130.708 2324.58 117.54 2321.12 102.421 2331.27C108.517 2313.97 100.47 2303.13 116.32 2292.29C86.8136 2303.59 63.1593 2294.13 53.405 2268.99C53.405 2268.99 95.3487 2277.99 106.81 2262.3C82.1803 2262.07 57.7945 2248.93 54.3804 2227.7C47.5524 2183.19 103.152 2183.65 110.712 2206.48C74.8645 2201.41 81.4487 2250.31 120.954 2241.08C155.826 2232.78 148.022 2181.57 106.322 2171.19C70.9628 2162.2 23.1665 2185.03 25.3613 2248C27.556 2310.97 86.082 2337.04 100.47 2347.88C114.857 2358.72 161.19 2381.32 159.24 2419.15C157.289 2456.98 124.856 2483.73 74.133 2483.73H0C7.85398 2477.97 16.7902 2473.67 26.3367 2471.05C35.6575 2468.83 45.3344 2468.28 54.8682 2469.43C54.8682 2469.43 33.4086 2454.67 33.8963 2421.46C34.384 2388.24 28.5314 2375.33 20.9718 2365.18C14.8656 2357.58 8.00646 2350.55 0.48771 2344.19C0.48771 2344.19 28.0437 2337.73 46.0892 2353.41C56.4813 2362.18 62.8648 2374.42 63.8909 2387.55C103.396 2369.1 124.368 2403.47 118.027 2425.84C107.785 2462.05 46.3331 2435.99 82.9119 2404.85C82.9119 2404.85 55.8436 2401.85 56.5752 2429.76C58.526 2485.81 144.608 2465.97 140.706 2417.54C137.536 2379.71 57.5506 2344.88 37.0665 2319.28C1.95086 2274.99 -8.29121 2221.94 29.5069 2174.88C29.5069 2174.88 0.975412 2164.04 20.9718 2128.98Z" fill="url(#paint5_linear_166_364)"/>
<path fill-rule="evenodd" clip-rule="evenodd" d="M20.9718 2838.72C28.0437 2858.78 45.6015 2859.01 64.8663 2856.94C92.9101 2853.94 118.027 2851.17 140.462 2872.16C152.168 2883 159.971 2899.38 159.971 2922.68C160.329 2933.11 157.354 2943.39 151.436 2952.2C136.317 2972.96 110.712 2966.27 150.705 2993.03C150.506 2996.83 151.258 3000.62 152.899 3004.1L159.483 3017.71V3090.36C141.438 3061.3 134.366 3048.85 137.048 3013.09C130.708 3034.31 117.54 3030.85 102.421 3041C108.517 3023.7 100.47 3012.86 116.32 3002.02C86.8136 3013.32 63.1593 3003.87 53.405 2978.73C53.405 2978.73 95.3487 2987.72 106.81 2972.04C82.1803 2971.81 57.7945 2958.66 54.3804 2937.44C47.5524 2892.92 103.152 2893.38 110.712 2916.22C74.8645 2911.14 81.4487 2960.04 120.954 2950.82C155.826 2942.51 148.022 2891.31 106.322 2880.93C70.9628 2871.93 23.1665 2894.77 25.3613 2957.74C27.556 3020.71 86.082 3046.77 100.47 3057.61C114.857 3068.45 161.19 3091.06 159.24 3128.88C157.289 3166.71 124.856 3193.47 74.133 3193.47H0C7.85398 3187.71 16.7902 3183.4 26.3367 3180.78C35.6575 3178.57 45.3344 3178.02 54.8682 3179.17C54.8682 3179.17 33.4086 3164.41 33.8963 3131.19C34.384 3097.98 28.5314 3085.06 20.9718 3074.91C14.8656 3067.31 8.00646 3060.28 0.48771 3053.92C0.48771 3053.92 28.0437 3047.46 46.0892 3063.15C56.4813 3071.91 62.8648 3084.15 63.8909 3097.28C103.396 3078.83 124.368 3113.2 118.027 3135.57C107.785 3171.79 46.3331 3145.72 82.9119 3114.58C82.9119 3114.58 55.8436 3111.58 56.5752 3139.49C58.526 3195.54 144.608 3175.71 140.706 3127.27C137.536 3089.44 57.5506 3054.61 37.0665 3029.01C1.95086 2984.72 -8.29121 2931.67 29.5069 2884.62C29.5069 2884.62 0.975412 2873.78 20.9718 2838.72Z" fill="url(#paint6_linear_166_364)"/>
<path fill-rule="evenodd" clip-rule="evenodd" d="M20.9718 2838.72C28.0437 2818.65 45.6015 2818.42 64.8663 2820.49C92.9101 2823.49 118.027 2826.26 140.462 2805.27C152.168 2794.43 159.971 2778.05 159.971 2754.76C160.329 2744.33 157.354 2734.04 151.436 2725.23C136.317 2704.47 110.712 2711.16 150.705 2684.41C150.513 2680.53 151.263 2676.66 152.899 2673.1L159.483 2659.73V2587.07C141.438 2615.9 134.366 2628.59 137.048 2664.34C130.708 2643.12 117.54 2646.58 102.421 2636.43C108.517 2653.73 100.47 2664.34 116.32 2675.41C86.8136 2663.88 63.1593 2673.57 53.405 2698.71C53.405 2698.71 95.3487 2689.48 106.81 2705.4C82.1803 2705.63 57.7945 2718.54 54.3804 2739.99C47.5524 2784.51 103.152 2784.05 110.712 2760.98C74.8645 2766.29 81.4487 2717.39 120.954 2726.62C155.826 2734.69 148.022 2786.13 106.322 2796.51C70.9628 2805.5 23.1665 2782.67 25.3613 2719.7C27.556 2656.73 86.082 2630.66 100.47 2619.82C114.857 2608.98 161.19 2586.38 159.24 2548.32C157.289 2510.26 124.856 2483.73 74.133 2483.73H0C7.63894 2489.53 16.4369 2493.8 25.8656 2496.3C35.2943 2498.8 45.1592 2499.46 54.8682 2498.27C54.8682 2498.27 33.4086 2513.03 33.8963 2546.24C34.384 2579.46 28.5314 2592.37 20.9718 2602.52C14.7929 2610.06 7.93956 2617.08 0.48771 2623.51C0.48771 2623.51 28.0437 2629.74 46.0892 2614.29C56.4813 2605.52 62.8648 2593.28 63.8909 2580.15C103.396 2598.37 124.368 2564 118.027 2541.86C107.785 2505.65 46.3331 2531.71 82.9119 2562.85C82.9119 2562.85 55.8436 2565.62 56.5752 2537.94C58.526 2481.89 144.608 2501.73 140.706 2550.16C137.536 2587.76 57.5506 2622.82 37.0665 2648.42C1.95086 2692.71 -8.29121 2745.76 29.5069 2792.82C29.5069 2792.82 0.975412 2803.66 20.9718 2838.72Z" fill="url(#paint7_linear_166_364)"/>
<path fill-rule="evenodd" clip-rule="evenodd" d="M20.9718 3548.33C28.0437 3528.27 45.6015 3528.04 64.8663 3530.11C92.9101 3533.11 118.027 3535.88 140.462 3514.89C152.168 3504.05 159.971 3487.67 159.971 3464.38C160.329 3453.95 157.354 3443.66 151.436 3434.85C136.317 3414.09 110.712 3420.78 150.705 3394.02C150.513 3390.15 151.263 3386.28 152.899 3382.72L159.483 3369.34V3296.69C141.438 3325.52 134.366 3338.21 137.048 3373.96C130.708 3352.74 117.54 3356.2 102.421 3346.05C108.517 3363.35 100.47 3373.96 116.32 3385.03C86.8136 3373.5 63.1593 3383.18 53.405 3408.33C53.405 3408.33 95.3487 3399.1 106.81 3415.01C82.1803 3415.24 57.7945 3428.16 54.3804 3449.61C47.5524 3494.13 103.152 3493.67 110.712 3470.6C74.8645 3475.91 81.4487 3427.01 120.954 3436.23C155.826 3444.31 148.022 3495.74 106.322 3506.12C70.9628 3515.12 23.1665 3492.28 25.3613 3429.32C27.556 3366.35 86.082 3340.28 100.47 3329.44C114.857 3318.6 161.19 3295.99 159.24 3257.94C157.289 3219.88 124.856 3193.35 74.133 3193.35H0C7.63894 3199.15 16.4369 3203.42 25.8656 3205.92C35.2943 3208.41 45.1592 3209.08 54.8682 3207.88C54.8682 3207.88 33.4086 3222.65 33.8963 3255.86C34.384 3289.08 28.5314 3301.99 20.9718 3312.14C14.7929 3319.68 7.93956 3326.7 0.48771 3333.13C0.48771 3333.13 28.0437 3339.36 46.0892 3323.9C56.4813 3315.14 62.8648 3302.9 63.8909 3289.77C103.396 3307.99 124.368 3273.62 118.027 3251.48C107.785 3215.26 46.3331 3241.33 82.9119 3272.47C82.9119 3272.47 55.8436 3275.24 56.5752 3247.56C58.526 3191.51 144.608 3211.34 140.706 3259.78C137.536 3297.38 57.5506 3332.44 37.0665 3358.04C1.95086 3402.33 -8.29121 3455.38 29.5069 3502.43C29.5069 3502.43 0.975412 3513.27 20.9718 3548.33Z" fill="url(#paint8_linear_166_364)"/>
<path fill-rule="evenodd" clip-rule="evenodd" d="M20.9718 2128.98C28.0437 2108.92 45.6015 2108.68 64.8663 2110.76C92.9101 2113.76 118.027 2116.53 140.462 2095.54C152.168 2084.7 159.971 2068.32 159.971 2045.02C160.329 2034.59 157.354 2024.3 151.436 2015.5C136.317 1994.74 110.712 2001.43 150.705 1974.67C150.513 1970.8 151.263 1966.93 152.899 1963.37L159.483 1949.99V1877.33C141.438 1906.17 134.366 1918.85 137.048 1954.6C130.708 1933.38 117.54 1936.84 102.421 1926.7C108.517 1943.99 100.47 1954.6 116.32 1965.68C86.8136 1954.14 63.1593 1963.83 53.405 1988.97C53.405 1988.97 95.3487 1979.75 106.81 1995.66C82.1803 1995.89 57.7945 2008.81 54.3804 2030.26C47.5524 2074.78 103.152 2074.32 110.712 2051.25C74.8645 2056.56 81.4487 2007.66 120.954 2016.88C155.826 2024.96 148.022 2076.39 106.322 2086.77C70.9628 2095.77 23.1665 2072.93 25.3613 2009.96C27.556 1946.99 86.082 1920.93 100.47 1910.09C114.857 1899.25 161.19 1876.64 159.24 1838.58C157.289 1800.53 124.856 1774 74.133 1774H0C7.63894 1779.79 16.4369 1784.07 25.8656 1786.56C35.2943 1789.06 45.1592 1789.73 54.8682 1788.53C54.8682 1788.53 33.4086 1803.29 33.8963 1836.51C34.384 1869.72 28.5314 1882.64 20.9718 1892.79C14.7929 1900.33 7.93956 1907.35 0.48771 1913.78C0.48771 1913.78 28.0437 1920.01 46.0892 1904.55C56.4813 1895.79 62.8648 1883.55 63.8909 1870.41C103.396 1888.64 124.368 1854.27 118.027 1832.13C107.785 1795.91 46.3331 1821.98 82.9119 1853.12C82.9119 1853.12 55.8436 1855.88 56.5752 1828.2C58.526 1772.15 144.608 1791.99 140.706 1840.43C137.536 1878.03 57.5506 1913.09 37.0665 1938.69C1.95086 1982.98 -8.29121 2036.03 29.5069 2083.08C29.5069 2083.08 0.975412 2093.92 20.9718 2128.98Z" fill="url(#paint9_linear_166_364)"/>
<path fill-rule="evenodd" clip-rule="evenodd" d="M20.9718 4967.35C28.0437 4947.28 45.6015 4947.05 64.8663 4949.13C92.9101 4952.13 118.027 4954.9 140.462 4933.91C152.168 4923.06 159.971 4906.69 159.971 4883.39C160.329 4872.96 157.354 4862.67 151.436 4853.87C136.317 4833.11 110.712 4839.8 150.705 4813.04C150.506 4809.24 151.258 4805.45 152.899 4801.97L159.483 4788.36V4715.7C141.438 4744.77 134.366 4757.22 137.048 4792.97C130.708 4771.75 117.54 4775.21 102.421 4765.06C108.517 4782.36 100.47 4793.2 116.32 4804.05C86.8136 4792.74 63.1593 4802.2 53.405 4827.34C53.405 4827.34 95.3487 4818.35 106.81 4834.03C82.1803 4834.26 57.7945 4847.41 54.3804 4868.63C47.5524 4913.15 103.152 4912.69 110.712 4889.85C74.8645 4894.92 81.4487 4846.03 120.954 4855.25C155.826 4863.56 148.022 4914.76 106.322 4925.14C70.9628 4934.14 23.1665 4911.3 25.3613 4848.33C27.556 4785.36 86.082 4759.3 100.47 4748.46C114.857 4737.62 161.19 4715.01 159.24 4677.18C157.289 4639.36 124.856 4612.6 74.133 4612.6H0C7.85398 4618.36 16.7902 4622.67 26.3367 4625.29C35.6575 4627.5 45.3344 4628.05 54.8682 4626.9C54.8682 4626.9 33.4086 4641.66 33.8963 4674.88C34.384 4708.09 28.5314 4721.01 20.9718 4731.16C14.8656 4738.75 8.00646 4745.78 0.48771 4752.15C0.48771 4752.15 28.0437 4758.61 46.0892 4742.92C56.4813 4734.16 62.8648 4721.92 63.8909 4708.78C103.396 4727.24 124.368 4692.87 118.027 4670.49C107.785 4634.28 46.3331 4660.35 82.9119 4691.48C82.9119 4691.48 55.8436 4694.48 56.5752 4666.57C58.526 4610.52 144.608 4630.36 140.706 4678.8C137.536 4716.63 57.5506 4751.46 37.0665 4777.06C1.95086 4821.34 -8.29121 4874.4 29.5069 4921.45C29.5069 4921.45 0.975412 4932.29 20.9718 4967.35Z" fill="url(#paint10_linear_166_364)"/>
<path fill-rule="evenodd" clip-rule="evenodd" d="M20.9718 4257.62C28.0437 4237.55 45.6015 4237.32 64.8663 4239.4C92.9101 4242.39 118.027 4245.16 140.462 4224.17C152.168 4213.33 159.971 4196.95 159.971 4173.66C160.329 4163.23 157.354 4152.94 151.436 4144.13C136.317 4123.38 110.712 4130.06 150.705 4103.31C150.506 4099.51 151.258 4095.71 152.899 4092.24L159.483 4078.63V4005.97C141.438 4035.03 134.366 4047.49 137.048 4083.24C130.708 4062.02 117.54 4065.48 102.421 4055.33C108.517 4072.63 100.47 4083.47 116.32 4094.31C86.8136 4083.01 63.1593 4092.47 53.405 4117.61C53.405 4117.61 95.3487 4108.61 106.81 4124.3C82.1803 4124.53 57.7945 4137.68 54.3804 4158.9C47.5524 4203.41 103.152 4202.95 110.712 4180.12C74.8645 4185.19 81.4487 4136.29 120.954 4145.52C155.826 4153.82 148.022 4205.03 106.322 4215.41C70.9628 4224.4 23.1665 4201.57 25.3613 4138.6C27.556 4075.63 86.082 4049.56 100.47 4038.72C114.857 4027.88 161.19 4005.28 159.24 3967.45C157.289 3929.62 124.856 3902.87 74.133 3902.87H0C7.85398 3908.63 16.7902 3912.93 26.3367 3915.55C35.6575 3917.77 45.3344 3918.32 54.8682 3917.17C54.8682 3917.17 33.4086 3931.93 33.8963 3965.14C34.384 3998.36 28.5314 4011.28 20.9718 4021.42C14.8656 4029.02 8.00646 4036.05 0.48771 4042.41C0.48771 4042.41 28.0437 4048.87 46.0892 4033.19C56.4813 4024.42 62.8648 4012.18 63.8909 3999.05C103.396 4017.5 124.368 3983.14 118.027 3960.76C107.785 3924.55 46.3331 3950.61 82.9119 3981.75C82.9119 3981.75 55.8436 3984.75 56.5752 3956.84C58.526 3900.79 144.608 3920.63 140.706 3969.06C137.536 4006.89 57.5506 4041.72 37.0665 4067.33C1.95086 4111.61 -8.29121 4164.66 29.5069 4211.72C29.5069 4211.72 0.975412 4222.56 20.9718 4257.62Z" fill="url(#paint11_linear_166_364)"/>
<path fill-rule="evenodd" clip-rule="evenodd" d="M20.9718 4257.62C28.0437 4277.69 45.6015 4277.92 64.8663 4275.84C92.9101 4272.84 118.027 4270.07 140.462 4291.06C152.168 4301.9 159.971 4318.28 159.971 4341.58C160.329 4352.01 157.354 4362.3 151.436 4371.1C136.317 4391.86 110.712 4385.17 150.705 4411.93C150.513 4415.8 151.263 4419.67 152.899 4423.23L159.483 4436.61V4509.27C141.438 4480.43 134.366 4467.75 137.048 4432C130.708 4453.22 117.54 4449.76 102.421 4459.9C108.517 4442.61 100.47 4432 116.32 4420.92C86.8136 4432.46 63.1593 4422.77 53.405 4397.63C53.405 4397.63 95.3487 4406.85 106.81 4390.94C82.1803 4390.71 57.7945 4377.79 54.3804 4356.34C47.5524 4311.82 103.152 4312.28 110.712 4335.35C74.8645 4330.04 81.4487 4378.94 120.954 4369.72C155.826 4361.64 148.022 4310.21 106.322 4299.83C70.9628 4290.83 23.1665 4313.67 25.3613 4376.64C27.556 4439.61 86.082 4465.67 100.47 4476.51C114.857 4487.35 161.19 4509.96 159.24 4548.02C157.289 4586.07 124.856 4612.6 74.133 4612.6H0C7.63894 4606.81 16.4369 4602.53 25.8656 4600.04C35.2943 4597.54 45.1592 4596.87 54.8682 4598.07C54.8682 4598.07 33.4086 4583.31 33.8963 4550.09C34.384 4516.88 28.5314 4503.96 20.9718 4493.81C14.7929 4486.27 7.93956 4479.25 0.48771 4472.82C0.48771 4472.82 28.0437 4466.59 46.0892 4482.05C56.4813 4490.81 62.8648 4503.05 63.8909 4516.19C103.396 4497.96 124.368 4532.33 118.027 4554.47C107.785 4590.69 46.3331 4564.62 82.9119 4533.48C82.9119 4533.48 55.8436 4530.72 56.5752 4558.4C58.526 4614.45 144.608 4594.61 140.706 4546.17C137.536 4508.57 57.5506 4473.51 37.0665 4447.91C1.95086 4403.62 -8.29121 4350.57 29.5069 4303.52C29.5069 4303.52 0.975412 4292.68 20.9718 4257.62Z" fill="url(#paint12_linear_166_364)"/>
<path fill-rule="evenodd" clip-rule="evenodd" d="M20.9718 3548C28.0437 3568.07 45.6015 3568.3 64.8663 3566.22C92.9101 3563.22 118.027 3560.46 140.462 3581.45C152.168 3592.29 159.971 3608.66 159.971 3631.96C160.329 3642.39 157.354 3652.68 151.436 3661.48C136.317 3682.24 110.712 3675.55 150.705 3702.31C150.513 3706.19 151.263 3710.05 152.899 3713.61L159.483 3726.99V3799.65C141.438 3770.82 134.366 3758.13 137.048 3722.38C130.708 3743.6 117.54 3740.14 102.421 3750.29C108.517 3732.99 100.47 3722.38 116.32 3711.31C86.8136 3722.84 63.1593 3713.15 53.405 3688.01C53.405 3688.01 95.3487 3697.24 106.81 3681.32C82.1803 3681.09 57.7945 3668.17 54.3804 3646.72C47.5524 3602.2 103.152 3602.67 110.712 3625.73C74.8645 3620.43 81.4487 3669.33 120.954 3660.1C155.826 3652.03 148.022 3600.59 106.322 3590.21C70.9628 3581.21 23.1665 3604.05 25.3613 3667.02C27.556 3729.99 86.082 3756.05 100.47 3766.89C114.857 3777.74 161.19 3800.34 159.24 3838.4C157.289 3876.46 124.856 3902.98 74.133 3902.98H0C7.63894 3897.19 16.4369 3892.92 25.8656 3890.42C35.2943 3887.92 45.1592 3887.25 54.8682 3888.45C54.8682 3888.45 33.4086 3873.69 33.8963 3840.47C34.384 3807.26 28.5314 3794.34 20.9718 3784.19C14.7929 3776.65 7.93956 3769.63 0.48771 3763.2C0.48771 3763.2 28.0437 3756.98 46.0892 3772.43C56.4813 3781.19 62.8648 3793.43 63.8909 3806.57C103.396 3788.35 124.368 3822.71 118.027 3844.86C107.785 3881.07 46.3331 3855.01 82.9119 3823.87C82.9119 3823.87 55.8436 3821.1 56.5752 3848.78C58.526 3904.83 144.608 3884.99 140.706 3836.55C137.536 3798.96 57.5506 3763.9 37.0665 3738.29C1.95086 3694.01 -8.29121 3640.96 29.5069 3593.9C29.5069 3593.9 0.975412 3583.06 20.9718 3548Z" fill="url(#paint13_linear_166_364)"/>
<path fill-rule="evenodd" clip-rule="evenodd" d="M20.9718 4967.35C28.0437 4987.42 45.6015 4987.65 64.8663 4985.57C92.9101 4982.58 118.027 4979.81 140.462 5000.8C152.168 5011.64 159.971 5028.02 159.971 5051.31C160.329 5061.74 157.354 5072.03 151.436 5080.84C136.317 5101.6 110.712 5094.91 150.705 5121.66C150.513 5125.54 151.263 5129.41 152.899 5132.96L159.483 5146.34V5219C141.438 5190.17 134.366 5177.48 137.048 5141.73C130.708 5162.95 117.54 5159.49 102.421 5169.64C108.517 5152.34 100.47 5141.73 116.32 5130.66C86.8136 5142.19 63.1593 5132.5 53.405 5107.36C53.405 5107.36 95.3487 5116.59 106.81 5100.67C82.1803 5100.44 57.7945 5087.52 54.3804 5066.07C47.5524 5021.56 103.152 5022.02 110.712 5045.08C74.8645 5039.78 81.4487 5088.68 120.954 5079.45C155.826 5071.38 148.022 5019.94 106.322 5009.56C70.9628 5000.57 23.1665 5023.4 25.3613 5086.37C27.556 5149.34 86.082 5175.41 100.47 5186.25C114.857 5197.09 161.19 5219.69 159.24 5257.75C157.289 5295.81 124.856 5322.33 74.133 5322.33H0C7.63894 5316.54 16.4369 5312.27 25.8656 5309.77C35.2943 5307.27 45.1592 5306.6 54.8682 5307.8C54.8682 5307.8 33.4086 5293.04 33.8963 5259.83C34.384 5226.61 28.5314 5213.69 20.9718 5203.55C14.7929 5196.01 7.93956 5188.98 0.48771 5182.56C0.48771 5182.56 28.0437 5176.33 46.0892 5191.78C56.4813 5200.55 62.8648 5212.79 63.8909 5225.92C103.396 5207.7 124.368 5242.07 118.027 5264.21C107.785 5300.42 46.3331 5274.36 82.9119 5243.22C82.9119 5243.22 55.8436 5240.45 56.5752 5268.13C58.526 5324.18 144.608 5304.34 140.706 5255.9C137.536 5218.31 57.5506 5183.25 37.0665 5157.64C1.95086 5113.36 -8.29121 5060.31 29.5069 5013.25C29.5069 5013.25 0.975412 5002.41 20.9718 4967.35Z" fill="url(#paint14_linear_166_364)"/>
<defs>
<linearGradient id="paint0_linear_166_364" x1="-173" y1="1692.5" x2="160" y2="1689" gradientUnits="userSpaceOnUse">
<stop stop-color="#3CCECE"/>
<stop offset="0.0474673" stop-color="#3CCECE" stop-opacity="0.733148"/>
<stop offset="0.31794" stop-color="#3CCECE" stop-opacity="0.517958"/>
<stop offset="0.712455" stop-color="#3CCECE" stop-opacity="0.198937"/>
<stop offset="1" stop-color="#3CCECE" stop-opacity="0"/>
</linearGradient>
<linearGradient id="paint1_linear_166_364" x1="-173" y1="1692.5" x2="160" y2="1689" gradientUnits="userSpaceOnUse">
<stop stop-color="#3CCECE"/>
<stop offset="0.0474673" stop-color="#3CCECE" stop-opacity="0.733148"/>
<stop offset="0.31794" stop-color="#3CCECE" stop-opacity="0.517958"/>
<stop offset="0.712455" stop-color="#3CCECE" stop-opacity="0.198937"/>
<stop offset="1" stop-color="#3CCECE" stop-opacity="0"/>
</linearGradient>
<linearGradient id="paint2_linear_166_364" x1="-173" y1="1692.5" x2="160" y2="1689" gradientUnits="userSpaceOnUse">
<stop stop-color="#3CCECE"/>
<stop offset="0.0474673" stop-color="#3CCECE" stop-opacity="0.733148"/>
<stop offset="0.31794" stop-color="#3CCECE" stop-opacity="0.517958"/>
<stop offset="0.712455" stop-color="#3CCECE" stop-opacity="0.198937"/>
<stop offset="1" stop-color="#3CCECE" stop-opacity="0"/>
</linearGradient>
<linearGradient id="paint3_linear_166_364" x1="-173" y1="1692.5" x2="160" y2="1689" gradientUnits="userSpaceOnUse">
<stop stop-color="#3CCECE"/>
<stop offset="0.0474673" stop-color="#3CCECE" stop-opacity="0.733148"/>
<stop offset="0.31794" stop-color="#3CCECE" stop-opacity="0.517958"/>
<stop offset="0.712455" stop-color="#3CCECE" stop-opacity="0.198937"/>
<stop offset="1" stop-color="#3CCECE" stop-opacity="0"/>
</linearGradient>
<linearGradient id="paint4_linear_166_364" x1="-173" y1="1692.5" x2="160" y2="1689" gradientUnits="userSpaceOnUse">
<stop stop-color="#3CCECE"/>
<stop offset="0.0474673" stop-color="#3CCECE" stop-opacity="0.733148"/>
<stop offset="0.31794" stop-color="#3CCECE" stop-opacity="0.517958"/>
<stop offset="0.712455" stop-color="#3CCECE" stop-opacity="0.198937"/>
<stop offset="1" stop-color="#3CCECE" stop-opacity="0"/>
</linearGradient>
<linearGradient id="paint5_linear_166_364" x1="-173" y1="1692.5" x2="160" y2="1689" gradientUnits="userSpaceOnUse">
<stop stop-color="#3CCECE"/>
<stop offset="0.0474673" stop-color="#3CCECE" stop-opacity="0.733148"/>
<stop offset="0.31794" stop-color="#3CCECE" stop-opacity="0.517958"/>
<stop offset="0.712455" stop-color="#3CCECE" stop-opacity="0.198937"/>
<stop offset="1" stop-color="#3CCECE" stop-opacity="0"/>
</linearGradient>
<linearGradient id="paint6_linear_166_364" x1="-173" y1="1692.5" x2="160" y2="1689" gradientUnits="userSpaceOnUse">
<stop stop-color="#3CCECE"/>
<stop offset="0.0474673" stop-color="#3CCECE" stop-opacity="0.733148"/>
<stop offset="0.31794" stop-color="#3CCECE" stop-opacity="0.517958"/>
<stop offset="0.712455" stop-color="#3CCECE" stop-opacity="0.198937"/>
<stop offset="1" stop-color="#3CCECE" stop-opacity="0"/>
</linearGradient>
<linearGradient id="paint7_linear_166_364" x1="-173" y1="1692.5" x2="160" y2="1689" gradientUnits="userSpaceOnUse">
<stop stop-color="#3CCECE"/>
<stop offset="0.0474673" stop-color="#3CCECE" stop-opacity="0.733148"/>
<stop offset="0.31794" stop-color="#3CCECE" stop-opacity="0.517958"/>
<stop offset="0.712455" stop-color="#3CCECE" stop-opacity="0.198937"/>
<stop offset="1" stop-color="#3CCECE" stop-opacity="0"/>
</linearGradient>
<linearGradient id="paint8_linear_166_364" x1="-173" y1="1692.5" x2="160" y2="1689" gradientUnits="userSpaceOnUse">
<stop stop-color="#3CCECE"/>
<stop offset="0.0474673" stop-color="#3CCECE" stop-opacity="0.733148"/>
<stop offset="0.31794" stop-color="#3CCECE" stop-opacity="0.517958"/>
<stop offset="0.712455" stop-color="#3CCECE" stop-opacity="0.198937"/>
<stop offset="1" stop-color="#3CCECE" stop-opacity="0"/>
</linearGradient>
<linearGradient id="paint9_linear_166_364" x1="-173" y1="1692.5" x2="160" y2="1689" gradientUnits="userSpaceOnUse">
<stop stop-color="#3CCECE"/>
<stop offset="0.0474673" stop-color="#3CCECE" stop-opacity="0.733148"/>
<stop offset="0.31794" stop-color="#3CCECE" stop-opacity="0.517958"/>
<stop offset="0.712455" stop-color="#3CCECE" stop-opacity="0.198937"/>
<stop offset="1" stop-color="#3CCECE" stop-opacity="0"/>
</linearGradient>
<linearGradient id="paint10_linear_166_364" x1="-173" y1="1692.5" x2="160" y2="1689" gradientUnits="userSpaceOnUse">
<stop stop-color="#3CCECE"/>
<stop offset="0.0474673" stop-color="#3CCECE" stop-opacity="0.733148"/>
<stop offset="0.31794" stop-color="#3CCECE" stop-opacity="0.517958"/>
<stop offset="0.712455" stop-color="#3CCECE" stop-opacity="0.198937"/>
<stop offset="1" stop-color="#3CCECE" stop-opacity="0"/>
</linearGradient>
<linearGradient id="paint11_linear_166_364" x1="-173" y1="1692.5" x2="160" y2="1689" gradientUnits="userSpaceOnUse">
<stop stop-color="#3CCECE"/>
<stop offset="0.0474673" stop-color="#3CCECE" stop-opacity="0.733148"/>
<stop offset="0.31794" stop-color="#3CCECE" stop-opacity="0.517958"/>
<stop offset="0.712455" stop-color="#3CCECE" stop-opacity="0.198937"/>
<stop offset="1" stop-color="#3CCECE" stop-opacity="0"/>
</linearGradient>
<linearGradient id="paint12_linear_166_364" x1="-173" y1="1692.5" x2="160" y2="1689" gradientUnits="userSpaceOnUse">
<stop stop-color="#3CCECE"/>
<stop offset="0.0474673" stop-color="#3CCECE" stop-opacity="0.733148"/>
<stop offset="0.31794" stop-color="#3CCECE" stop-opacity="0.517958"/>
<stop offset="0.712455" stop-color="#3CCECE" stop-opacity="0.198937"/>
<stop offset="1" stop-color="#3CCECE" stop-opacity="0"/>
</linearGradient>
<linearGradient id="paint13_linear_166_364" x1="-173" y1="1692.5" x2="160" y2="1689" gradientUnits="userSpaceOnUse">
<stop stop-color="#3CCECE"/>
<stop offset="0.0474673" stop-color="#3CCECE" stop-opacity="0.733148"/>
<stop offset="0.31794" stop-color="#3CCECE" stop-opacity="0.517958"/>
<stop offset="0.712455" stop-color="#3CCECE" stop-opacity="0.198937"/>
<stop offset="1" stop-color="#3CCECE" stop-opacity="0"/>
</linearGradient>
<linearGradient id="paint14_linear_166_364" x1="-173" y1="1692.5" x2="160" y2="1689" gradientUnits="userSpaceOnUse">
<stop stop-color="#3CCECE"/>
<stop offset="0.0474673" stop-color="#3CCECE" stop-opacity="0.733148"/>
<stop offset="0.31794" stop-color="#3CCECE" stop-opacity="0.517958"/>
<stop offset="0.712455" stop-color="#3CCECE" stop-opacity="0.198937"/>
<stop offset="1" stop-color="#3CCECE" stop-opacity="0"/>
</linearGradient>
</defs>
</svg>
